<svg width="60" height="40" viewBox="0 0 60 40" fill="none" xmlns="http://www.w3.org/2000/svg">
<rect width="60" height="40" rx="4" fill="#0060AF"/>
<path fill-rule="evenodd" clip-rule="evenodd" d="M12.3401 23.8332C12.3401 23.2964 12.3467 21.8615 12.3317 21.6847C12.3448 19.5495 10.5803 18.0433 9.46554 18.1607C8.69418 18.2196 8.04758 18.4963 7.70061 19.2924C7.37876 20.0344 7.66652 21.0212 8.73613 21.2528C9.87972 21.5015 10.5477 21.7084 11.031 22.0003C11.6233 22.3576 12.1067 23.0404 12.1196 23.8341" fill="white"/>
<path fill-rule="evenodd" clip-rule="evenodd" d="M11.8624 23.834C11.8662 23.1459 11.4296 22.5374 10.8591 22.2104C10.353 21.9214 9.67353 21.7316 8.57742 21.4869C8.23859 21.4107 7.88417 21.2413 7.77445 21.0254C7.4842 21.2827 7.43148 21.8612 7.48255 22.1994C7.54189 22.5905 8.06152 23.2353 8.84392 23.2605C9.32173 23.2774 9.92582 23.1701 10.2155 23.1159C10.7153 23.0209 11.5059 23.2963 11.6318 23.8332" fill="white"/>
<path fill-rule="evenodd" clip-rule="evenodd" d="M12.7444 14.833C11.4177 14.833 10.2719 15.6027 10.2759 16.9347C10.28 18.0548 11.3038 18.6544 11.6693 19.0826C12.2213 19.728 12.5201 20.4919 12.5511 21.6608C12.5753 22.5911 12.5741 23.5097 12.5795 23.8352H12.8722C12.8673 23.4946 12.854 22.5194 12.869 21.632C12.8889 20.4628 13.1985 19.728 13.7508 19.0826C14.1195 18.6544 15.1423 18.0548 15.1445 16.9347C15.1496 15.6027 14.0042 14.833 12.6789 14.833" fill="white"/>
<path fill-rule="evenodd" clip-rule="evenodd" d="M13.0812 23.8332C13.0812 23.2964 13.0743 21.8615 13.0891 21.6847C13.0761 19.5495 14.8395 18.0433 15.9552 18.1607C16.7266 18.2196 17.3723 18.4963 17.7204 19.2924C18.0419 20.0344 17.7526 21.0212 16.6843 21.2528C15.5399 21.5015 14.8729 21.7084 14.3883 22.0003C13.7968 22.3576 13.3472 23.0404 13.3334 23.8341" fill="white"/>
<path fill-rule="evenodd" clip-rule="evenodd" d="M13.5586 23.834C13.5545 23.1459 13.9909 22.5374 14.5598 22.2104C15.0681 21.9214 15.7482 21.7316 16.8434 21.4869C17.1829 21.4107 17.5369 21.2413 17.6447 21.0254C17.9363 21.2827 17.989 21.8612 17.9378 22.1994C17.8774 22.5905 17.359 23.2353 16.578 23.2605C16.1004 23.2774 15.493 23.1701 15.2046 23.1159C14.7068 23.0209 13.9139 23.2963 13.7875 23.8332" fill="white"/>
<path fill-rule="evenodd" clip-rule="evenodd" d="M13.968 26.0555L13.7983 24.9657L14.2081 24.911C14.3078 24.8991 14.4292 24.9144 14.4778 24.9693C14.5315 25.0267 14.5479 25.0742 14.5582 25.1495C14.5738 25.2428 14.5432 25.3503 14.424 25.404V25.4073C14.557 25.4073 14.6375 25.4914 14.6609 25.6335C14.6642 25.6636 14.6745 25.736 14.6642 25.7965C14.6372 25.9404 14.5398 25.9867 14.375 26.007L13.968 26.0555ZM14.2317 25.8605C14.2803 25.8543 14.3296 25.852 14.3681 25.8303C14.4271 25.7965 14.4218 25.7241 14.4135 25.6702C14.393 25.552 14.358 25.507 14.2154 25.5256L14.1257 25.5377L14.1826 25.8664L14.2317 25.8605ZM14.146 25.3568C14.2002 25.3491 14.2737 25.3433 14.3043 25.298C14.3204 25.2678 14.3409 25.2437 14.3273 25.1765C14.3106 25.0968 14.2807 25.0473 14.1655 25.0664L14.0582 25.0816L14.1006 25.3609L14.146 25.3568Z" fill="white"/>
<path fill-rule="evenodd" clip-rule="evenodd" d="M15.7431 25.4C15.7463 25.4203 15.75 25.4429 15.7514 25.4632C15.7845 25.6618 15.7431 25.8265 15.4892 25.8718C15.1136 25.9353 15.0417 25.7302 14.9758 25.4429L14.9406 25.2873C14.8888 25.0125 14.8666 24.8044 15.2326 24.7402C15.4389 24.7072 15.5753 24.7794 15.632 24.9601C15.6408 24.987 15.6519 25.0136 15.656 25.0408L15.4315 25.0816C15.4055 25.0136 15.3712 24.8923 15.2701 24.9025C15.0888 24.9218 15.1487 25.1203 15.1673 25.2033L15.2348 25.5017C15.2551 25.5919 15.2954 25.736 15.4523 25.7082C15.5797 25.6857 15.5241 25.5111 15.5128 25.4395" fill="white"/>
<path fill-rule="evenodd" clip-rule="evenodd" d="M16.1034 25.7293L16.0259 24.6015L16.3274 24.5205L16.96 25.5014L16.7224 25.5639L16.5726 25.3147L16.3088 25.3844L16.3429 25.6678L16.1034 25.7293ZM16.2867 25.2022L16.4773 25.1536L16.2242 24.6973L16.2867 25.2022Z" fill="white"/>
<path fill-rule="evenodd" clip-rule="evenodd" d="M8.65183 24.8771C8.74624 24.6113 8.8307 24.4154 9.19106 24.5023C9.38386 24.5498 9.50338 24.6245 9.49772 24.8216C9.49676 24.8654 9.48033 24.9102 9.46957 24.9534L9.2453 24.899C9.27469 24.7901 9.29333 24.7038 9.14096 24.6625C8.96485 24.62 8.92193 24.808 8.89764 24.8891L8.80641 25.1846C8.77743 25.2724 8.74265 25.4175 8.89764 25.4551C9.02572 25.4853 9.10328 25.3748 9.14965 25.2133L8.99287 25.1766L9.04711 25.0057L9.41602 25.11L9.24088 25.6798L9.07112 25.6393L9.10935 25.5188H9.10452C9.02627 25.6174 8.93104 25.6277 8.84754 25.6135C8.47863 25.5259 8.51713 25.3137 8.60518 25.0303" fill="white"/>
<path fill-rule="evenodd" clip-rule="evenodd" d="M10.0248 25.3588L9.91366 25.8224L9.66357 25.7749L9.93008 24.6924L10.3564 24.777C10.6059 24.8245 10.6813 24.9221 10.646 25.1235C10.6258 25.2389 10.5611 25.3633 10.4031 25.3532L10.4014 25.3514C10.535 25.3924 10.5463 25.4518 10.523 25.5542C10.5129 25.5979 10.4435 25.8623 10.4914 25.9051L10.493 25.9376L10.2343 25.8781C10.2235 25.8049 10.2602 25.673 10.2747 25.5999C10.2892 25.5353 10.3125 25.4443 10.238 25.4101C10.1797 25.3827 10.1579 25.384 10.092 25.3708L10.0248 25.3588ZM10.0674 25.1911L10.2358 25.231C10.3381 25.2442 10.3949 25.1975 10.4151 25.0887C10.4333 24.989 10.4097 24.9502 10.3179 24.9309L10.1374 24.8986L10.0674 25.1911Z" fill="white"/>
<path fill-rule="evenodd" clip-rule="evenodd" d="M11.629 24.9336L11.8763 24.9589L11.7697 25.72C11.718 25.9613 11.612 26.0667 11.3103 26.0338C11.0033 25.9995 10.9305 25.8767 10.949 25.6334L11.0563 24.873L11.3056 24.8981L11.1986 25.6414C11.1872 25.7222 11.1661 25.8418 11.3292 25.8564C11.474 25.8661 11.5068 25.7816 11.5232 25.6767" fill="white"/>
<path fill-rule="evenodd" clip-rule="evenodd" d="M12.1489 26.0755L12.2235 24.9873L12.6985 25.0054C12.9232 25.0152 12.9818 25.1765 12.9749 25.3305C12.9683 25.4241 12.9352 25.5286 12.8424 25.5853C12.7664 25.6335 12.6686 25.645 12.578 25.6411L12.4232 25.6335L12.3922 26.0896L12.1489 26.0755ZM12.4301 25.4676L12.5559 25.4737C12.6582 25.477 12.726 25.4414 12.7348 25.3093C12.7399 25.1826 12.6853 25.1609 12.5528 25.1558L12.4531 25.1528L12.4301 25.4676Z" fill="white"/>
<path fill-rule="evenodd" clip-rule="evenodd" d="M45.6631 15.8847L43.7745 18.9008C43.0616 18.3914 42.1913 18.0166 41.0807 18.0166C38.4525 18.0166 37.3848 19.7402 37.3848 20.9544C37.3848 21.8557 38.0556 23.1854 40.3941 23.1854C41.3758 23.1854 42.7711 22.5847 43.1727 22.3112L41.305 25.8103C40.4147 25.9666 40.1221 26.0635 39.3685 26.084C35.1828 26.1939 33.4916 23.9316 33.4927 21.62C33.4956 18.564 36.5835 14.8476 41.7029 14.8476C42.0165 14.8476 42.4001 14.9432 42.7282 15.0489L43.0598 14.6758" fill="white"/>
<path fill-rule="evenodd" clip-rule="evenodd" d="M53.4556 14.7705L53.9904 25.732H50.0104L50.0082 23.8522H47.2941L46.401 25.732H42.0845L46.5973 17.9046L45.5797 17.8988L47.513 14.7705H53.4556ZM49.9822 18.1239L48.4479 21.3122H50.0286L49.9822 18.1239Z" fill="white"/>
<path fill-rule="evenodd" clip-rule="evenodd" d="M30.98 14.7699C32.9509 14.7797 34.0647 15.721 34.0647 17.0806C34.0647 18.3342 32.8901 19.4437 31.6006 20.0175C32.9282 20.447 33.043 21.501 33.043 22.2465C33.043 24.0482 30.9885 25.7314 28.3178 25.7314H22.4932L24.7652 18.0131L23.8319 18.0083L25.7397 14.7699C25.7397 14.7699 29.3772 14.7602 30.98 14.7699ZM29.0462 19.2142C29.4539 19.2142 30.1738 19.1234 30.3538 18.4292C30.551 17.6755 29.8754 17.6552 29.5514 17.6552L28.3934 17.6508L27.9896 19.2142H29.0462ZM27.4091 21.1513L26.876 22.9528H28.2395C28.7759 22.9528 29.5069 22.7184 29.6861 22.1322C29.863 21.5443 29.3519 21.1513 28.8175 21.1513H27.4091Z" fill="white"/>
<path fill-rule="evenodd" clip-rule="evenodd" d="M12.7969 27.0786C10.7801 27.0786 8.70763 26.6416 6.63783 25.7772L6.58704 25.7553L6.56275 25.7097C5.63391 23.9847 5.14258 22.0981 5.14258 20.2521C5.14258 18.4088 5.61376 16.6028 6.54315 14.8801L6.56882 14.8343L6.62058 14.8115C8.53525 14.0135 10.5948 13.6094 12.7444 13.6094C14.7466 13.6094 16.8851 14.0593 18.9275 14.9129L18.9798 14.9334L19.0041 14.9801C19.9506 16.7369 20.4498 18.6232 20.4498 20.4386C20.4498 22.2468 19.9704 24.0545 19.0227 25.8103L18.9979 25.8563L18.9451 25.8777C17.0596 26.6629 14.9335 27.0786 12.7969 27.0786ZM6.82939 25.5407C8.83999 26.373 10.8455 26.7931 12.7969 26.7931C14.866 26.7931 16.9236 26.3952 18.7555 25.6409C19.6654 23.9395 20.1267 22.1885 20.1267 20.4386C20.1267 18.6814 19.6453 16.8538 18.7347 15.1486C16.7526 14.3288 14.6827 13.8941 12.7444 13.8941C10.6634 13.8941 8.66871 14.2825 6.812 15.0487C5.9207 16.7183 5.46705 18.468 5.46705 20.2521C5.46705 22.0394 5.93837 23.8679 6.82939 25.5407Z" fill="white"/>
</svg>
