<svg width="60" height="40" viewBox="0 0 60 40" fill="none" xmlns="http://www.w3.org/2000/svg">
<rect width="60" height="40" rx="4" fill="white"/>
<path fill-rule="evenodd" clip-rule="evenodd" d="M9.73005 23.7524L11.7663 26.1059H6.72493L9.73005 23.7524ZM9.08973 23.0254L5.14614 26.1131L5.14452 18.5194L9.08973 23.0254ZM18.5784 15.379C18.5784 15.379 17.7126 14.9965 16.7069 15.0524C15.5571 15.1156 14.5951 15.5271 14.0421 16.0702C13.6942 16.4114 13.3095 16.8276 13.1163 17.2796C12.8361 17.9335 12.7762 18.7975 12.7762 18.7975C12.7762 18.7975 12.3741 18.4789 11.8702 17.5507C11.2844 16.471 11.1242 15.8169 11.0448 15.0708C10.9741 14.416 11.0851 13.7686 11.0851 13.7686H18.5784V15.379ZM18.5784 17.5318V22.3199C18.5784 22.3199 18.1125 22.4869 17.7325 22.4869C17.3525 22.4869 16.7054 22.4343 15.9539 22.0486C15.2078 21.6661 14.7948 21.2034 14.4747 20.784C14.15 20.3575 13.8819 19.7662 13.8022 19.3401C13.7382 18.9992 13.6691 18.149 14.0421 17.4579C14.2446 17.0829 14.7879 16.4401 15.8339 16.4036C16.6865 16.373 17.1593 16.5823 17.5927 16.8042C18.4173 17.2275 18.5784 17.5318 18.5784 17.5318ZM10.419 21.9836L11.7706 20.9321C11.3399 20.4186 11.2261 20.2251 10.7445 19.562C10.2515 18.8834 9.83854 18.1368 9.4854 17.2609C9.10315 16.3119 9.01082 15.7792 9.05303 15.0708C9.1059 14.1695 9.32548 13.7686 9.32548 13.7686H5.14258L5.14452 15.8727C5.14452 15.8727 8.34642 19.6178 10.419 21.9836ZM14.281 26.1024H18.5784V23.1779C18.5784 23.1779 17.5125 23.6342 16.8196 23.6711C16.4071 23.6936 16.0067 23.7084 15.3608 23.548C14.6427 23.3699 14.2347 23.1963 13.5692 22.684C13.0346 22.273 12.4234 21.6661 12.4234 21.6661L11.0639 22.7241C11.6946 23.4442 12.1605 23.9684 12.3031 24.1095C12.9163 24.7142 13.1761 24.9365 13.5891 25.152C14.0019 25.368 15.3811 25.3563 15.3811 25.3563L14.281 26.1024Z" fill="#E94E0F"/>
<path fill-rule="evenodd" clip-rule="evenodd" d="M51.0795 23.5013C51.0795 24.3487 51.2019 25.7415 50.1851 26.0806V26.137H54.0468V26.0806C53.0307 25.7229 53.1526 24.3487 53.1526 23.5013V16.4042C53.1526 15.5573 53.0307 14.1641 54.0468 13.8065V13.75H50.1851V13.8065C51.2218 14.1641 51.0795 15.5384 51.0795 16.4042V23.5013ZM36.9196 16.4042L43.8911 24.5934C44.7852 25.6662 45.4156 26.2877 46.8586 26.7393V16.1783C46.8586 15.1243 46.8586 14.3711 47.9157 13.8065V13.75H44.3382V13.8065C45.4156 14.3711 45.3949 15.1243 45.3949 16.1783V23.3132L37.9564 14.6158L37.6715 14.2393C37.5295 14.0888 37.4484 13.9947 37.367 13.7689V13.75H34.3991V13.8065C35.4561 14.3711 35.4561 15.1243 35.4561 16.1783V23.69C35.4561 24.7439 35.4561 25.4968 34.3792 26.0806V26.137H37.9768V26.0806C36.8994 25.4968 36.9196 24.7439 36.9196 23.69V16.4042ZM25.5558 18.7388V15.0491L26.9173 14.917C28.137 14.8041 29.4375 15.4819 29.4375 16.781C29.4375 18.3247 27.5473 18.7388 26.2265 18.7388H25.5558ZM25.5558 24.631V19.981L26.9783 19.9058C28.7669 19.8116 30.6774 20.6025 30.6774 22.4285C30.6774 24.2169 28.9909 24.9322 27.3238 24.7816L25.5558 24.631ZM23.4824 23.4825C23.4824 24.3487 23.6045 25.7229 22.5879 26.0806V26.137H25.9416C27.4659 26.137 29.072 26.1937 30.4945 25.5535C31.8563 24.951 32.9337 23.7084 32.9337 22.2588C32.9337 20.4142 31.4496 19.2845 29.6204 18.9266C30.7791 18.4562 31.6527 17.7409 31.6527 16.4795C31.6527 14.8041 30.0881 13.75 27.4055 13.75H22.5879V13.8065C23.625 14.1641 23.4824 15.5384 23.4824 16.3853V23.4825Z" fill="#005B6A"/>
</svg>
