<svg width="60" height="40" viewBox="0 0 60 40" fill="none" xmlns="http://www.w3.org/2000/svg">
<rect width="60" height="40" rx="4" fill="#00529C"/>
<path fill-rule="evenodd" clip-rule="evenodd" d="M17.7871 17.3525H20.6468C21.8048 17.3525 22.6681 17.8308 22.6681 18.8375C22.6681 19.5756 22.2679 19.9867 21.5727 20.2045V20.221C22.4013 20.3809 22.8289 20.8004 22.8289 21.513C22.8289 22.9142 21.519 23.2075 20.4058 23.2075H17.7871V17.3525ZM19.4435 19.6678H19.9071C20.4505 19.6678 21.012 19.5419 21.012 19.0466C21.012 18.5104 20.4773 18.4596 19.9245 18.4596H19.4435V19.6678ZM19.4435 22.1005H19.9342C20.5394 22.1005 21.1717 22.0165 21.1717 21.4208C21.1717 20.7838 20.5218 20.7245 19.9516 20.7245H19.4435V22.1005Z" fill="white"/>
<path fill-rule="evenodd" clip-rule="evenodd" d="M25.0036 17.3525H27.0347L29.431 23.2075H27.6136L27.1507 21.958H24.8168L24.3266 23.2075H22.6431L25.0036 17.3525ZM26.0195 18.5607H26.0008L25.1996 20.8509H26.7584L26.0195 18.5607Z" fill="white"/>
<path fill-rule="evenodd" clip-rule="evenodd" d="M29.6616 17.3525H31.7727L33.8751 21.3289H33.8924L33.8661 17.3525H35.381V23.2075H33.3231L31.1488 19.2064H31.1317L31.1849 23.2075H29.6616V17.3525Z" fill="white"/>
<path fill-rule="evenodd" clip-rule="evenodd" d="M35.9434 17.3525H37.6V19.7439H37.6179L39.4879 17.3525H41.484L39.1853 20.0786L41.6622 23.2075H39.5503L37.6179 20.5486H37.6V23.2075H35.9434V17.3525Z" fill="white"/>
<path fill-rule="evenodd" clip-rule="evenodd" d="M43.7163 17.3525H46.576C47.7337 17.3525 48.5981 17.8308 48.5981 18.8375C48.5981 19.5756 48.1979 19.9867 47.5027 20.2045V20.221C48.3311 20.3809 48.7586 20.8004 48.7586 21.513C48.7586 22.9142 47.4491 23.2075 46.336 23.2075H43.7163V17.3525ZM45.3735 19.6678H45.8363C46.38 19.6678 46.9407 19.5419 46.9407 19.0466C46.9407 18.5104 46.4068 18.4596 45.8548 18.4596H45.3735V19.6678ZM45.3735 22.1005H45.8637C46.4689 22.1005 47.1017 22.0165 47.1017 21.4208C47.1017 20.7838 46.4515 20.7245 45.8813 20.7245H45.3735V22.1005Z" fill="white"/>
<path fill-rule="evenodd" clip-rule="evenodd" d="M49.1255 17.3525H52.0831C53.1874 17.3525 54.0876 17.8221 54.0876 18.8293C54.0876 19.6093 53.6955 20.1294 52.894 20.3053V20.3219C53.4273 20.4565 53.4637 20.9007 53.7755 21.6138L54.3815 23.2075H52.6535L52.297 22.1513C51.9583 21.1445 51.7444 20.8923 51.1297 20.8923H50.7821V23.2075H49.1255V17.3525ZM50.7821 19.7852H51.2189C51.7534 19.7852 52.4307 19.7681 52.4307 19.1056C52.4307 18.5607 51.851 18.4596 51.2189 18.4596H50.7821V19.7852Z" fill="white"/>
<mask id="mask0_1190_8223" style="mask-type:luminance" maskUnits="userSpaceOnUse" x="3" y="14" width="54" height="13">
<path fill-rule="evenodd" clip-rule="evenodd" d="M3.42871 26.165H56.4946V14.4004H3.42871V26.165Z" fill="white"/>
</mask>
<g mask="url(#mask0_1190_8223)">
<path fill-rule="evenodd" clip-rule="evenodd" d="M54.8379 23.2085H56.4945V17.3535H54.8379V23.2085Z" fill="white"/>
<path fill-rule="evenodd" clip-rule="evenodd" d="M14.006 14.4004H5.33453C4.28198 14.4004 3.42871 15.2238 3.42871 16.2397V16.2591V24.3262C3.42871 25.3321 4.26625 26.1499 5.30525 26.165H14.0014C15.0543 26.165 15.9078 25.3416 15.9078 24.3262L15.9119 16.2397C15.9119 15.2238 15.0589 14.4004 14.006 14.4004ZM6.3654 25.2223L5.89226 25.2272C5.31962 25.2272 4.85543 24.7842 4.85543 24.2376L4.85272 24.1597V16.6916L4.85571 16.2895C4.87712 15.7605 5.30389 15.3346 5.86298 15.3346H6.8247C7.69614 15.3346 8.40299 16.0482 8.40299 16.8903C8.40299 17.3064 8.22973 17.6843 7.94911 17.959L5.49532 20.3036L7.7951 22.5088C8.09173 22.7966 8.27095 23.1749 8.27095 23.5893C8.27095 24.4914 7.41768 25.2223 6.3654 25.2223ZM13.4356 25.2149L9.1478 25.2132C9.1478 25.2132 9.64371 24.2041 9.64371 23.5796C9.64371 22.8183 9.37312 22.1378 8.94987 21.6877L7.48329 20.2799L8.98024 18.8235C9.42572 18.4291 9.7218 17.729 9.7218 16.9316C9.7218 16.3002 9.53634 15.7408 9.23782 15.3346H10.2768C11.1485 15.3346 11.8554 16.0482 11.8554 16.8903C11.8554 17.3064 11.6824 17.6843 11.4018 17.959L8.99488 20.2791L13.9938 25.0794C13.8355 25.1733 13.6357 25.2149 13.4356 25.2149ZM14.4827 23.7162L10.9002 20.2781L12.6064 18.6451C12.954 18.2363 13.1742 17.6202 13.1742 16.9316C13.1742 16.2961 12.986 15.7232 12.6848 15.3167L13.4486 15.3382C14.0212 15.3382 14.4854 15.7819 14.4854 16.3283L14.4827 23.7162Z" fill="white"/>
</g>
</svg>
