<svg width="60" height="40" viewBox="0 0 60 40" fill="none" xmlns="http://www.w3.org/2000/svg">
<rect width="60" height="40" rx="4" fill="#108EE9"/>
<path d="M12.9512 13.5996C14.3541 13.6239 15.7461 14.0539 16.8711 14.8379C18.1951 15.7451 19.1513 17.1032 19.5303 18.5938C19.9823 20.3213 19.6693 22.2163 18.6514 23.7227C17.4614 25.5399 15.2587 26.7355 12.9707 26.7598H12.7754C11.0824 26.7336 9.41427 26.0937 8.19727 24.9961C6.82337 23.7865 6.03406 22.0464 6 20.2881V20.1211C6.018 18.3254 6.83012 16.543 8.24512 15.3203C9.45209 14.2527 11.0891 13.6323 12.751 13.5996H12.9512ZM41.917 16.9199C42.921 16.7398 43.9974 17.109 44.6514 17.8389C45.1572 18.3587 45.415 19.0627 45.415 19.7607C45.418 21.0159 45.415 22.2702 45.415 23.5254C44.921 23.5282 44.4256 23.5183 43.9316 23.5332C43.9126 22.2751 43.9329 21.0159 43.9229 19.7578C43.9309 19.2501 43.64 18.7442 43.1641 18.4922C42.6701 18.2159 42.0009 18.2566 41.5479 18.5889C41.1559 18.8623 40.9374 19.318 40.9443 19.7715C40.9403 21.023 40.9444 22.2739 40.9424 23.5254C40.4435 23.5235 39.9442 23.5289 39.4453 23.5215C39.4673 22.2084 39.4349 20.8941 39.4609 19.5811C39.5051 18.3118 40.5681 17.1336 41.917 16.9199ZM33.9053 16.8779C35.4381 16.8632 36.7837 18.131 36.8447 19.5449C36.8607 20.3572 36.8589 21.1699 36.8564 21.9824C36.8549 22.4964 36.8533 23.0106 36.8564 23.5244H35.3672C35.3647 23.2865 35.365 23.0484 35.3652 22.8105C35.3655 22.5728 35.3658 22.3351 35.3633 22.0977C34.7786 22.1004 34.1936 22.1001 33.6094 22.0996C33.2005 22.0993 32.7916 22.0988 32.3828 22.0996C32.3813 22.2769 32.3821 22.4544 32.3828 22.6318C32.384 22.9316 32.3854 23.2318 32.376 23.5312C32.046 23.5238 31.7161 23.5246 31.3867 23.5254C31.2221 23.5258 31.0571 23.526 30.8926 23.5254C30.8944 23.0457 30.8939 22.5658 30.8926 22.0859C30.8902 21.2459 30.8877 20.4056 30.9023 19.5664C30.9504 18.1244 32.3413 16.8285 33.9053 16.8779ZM25.1133 16.8926C26.6861 16.9907 28.0397 18.2196 28.2559 19.666C28.5169 21.0557 27.7282 22.5552 26.3662 23.1787C25.8543 23.426 25.2751 23.5283 24.7021 23.5273C24.3082 23.5269 23.9143 23.5273 23.5205 23.5273C23.1268 23.5273 22.7329 23.5268 22.3389 23.5264C22.3394 22.4181 22.3398 21.3093 22.3398 20.2012C22.3398 19.0933 22.3393 17.9855 22.3398 16.8779C22.6934 16.8819 23.0477 16.879 23.4014 16.877C23.972 16.8736 24.543 16.8707 25.1133 16.8926ZM51.207 16.8857C52.42 16.9558 53.496 17.8185 53.832 18.8965C53.956 19.2604 53.9619 19.6407 53.9678 20.0205C53.9711 20.2377 53.9745 20.4551 54 20.6689V23.5186C53.6191 23.5284 53.2383 23.5266 52.8574 23.5254C52.7304 23.525 52.6026 23.5244 52.4756 23.5244C52.4749 23.3712 52.4753 23.2178 52.4756 23.0645C52.4762 22.7406 52.4769 22.4164 52.4688 22.0928C51.8656 22.1013 51.2618 22.1008 50.6582 22.0996C50.2702 22.0989 49.8822 22.0978 49.4941 22.0996C49.4936 22.3371 49.4932 22.5749 49.4932 22.8125C49.4932 23.05 49.4937 23.2876 49.4932 23.5254H48.0029C48.0024 22.9129 48.0029 22.3006 48.0029 21.6885C48.0029 21.0763 48.0025 20.4637 48.002 19.8516C47.995 19.2617 48.1461 18.6616 48.4971 18.166C49.0721 17.3299 50.1342 16.7906 51.207 16.8857ZM16.7637 18.3926C16.1477 17.9166 15.2836 17.7812 14.5146 17.9492C13.9402 18.0818 13.3884 18.2785 12.8369 18.4756C12.4957 18.5975 12.1542 18.7195 11.8076 18.8262C11.1787 19.0156 10.4896 19.1227 9.84375 18.9463C9.6262 18.8937 9.43064 18.7938 9.23535 18.6934C9.12204 18.6351 9.00843 18.5763 8.89062 18.5273C8.83755 19.2208 8.84543 19.9177 8.85254 20.6143C8.85695 21.0464 8.86054 21.4789 8.85059 21.9102C8.85607 21.9754 8.85467 22.0442 8.85254 22.1133C8.8473 22.283 8.84204 22.4562 8.94922 22.5947C9.47321 22.9578 10.148 23.1006 10.7939 23.0586C11.5059 23.0058 12.1798 22.7801 12.8525 22.5547C13.6792 22.2777 14.5049 22.0011 15.3975 22.0469C15.8253 22.0545 16.2084 22.2167 16.5889 22.3779C16.6812 22.4171 16.7735 22.4564 16.8662 22.4932C16.8924 21.7837 16.8884 21.0734 16.8848 20.3633C16.8823 19.8815 16.8799 19.3996 16.8867 18.918C16.8849 18.8828 16.8857 18.8456 16.8857 18.8086C16.886 18.659 16.8854 18.5017 16.7637 18.3926ZM23.8242 18.3076C23.8345 19.389 23.8311 20.4704 23.8281 21.5518C23.8276 21.732 23.8276 21.9126 23.8271 22.0928C23.9856 22.0871 24.1469 22.0906 24.3086 22.0938C24.7613 22.1026 25.2186 22.1112 25.6348 21.9277C26.4027 21.6104 26.8858 20.8087 26.7988 20.0322C26.7408 19.252 26.1081 18.5378 25.2871 18.3623C24.9577 18.2957 24.6206 18.3012 24.2842 18.3066C24.1305 18.3091 23.9769 18.312 23.8242 18.3076ZM35.0088 18.8135C34.4758 18.1601 33.3157 18.1448 32.7637 18.7842C32.358 19.1935 32.3695 19.7462 32.3809 20.2754C32.3837 20.4098 32.3869 20.5431 32.3828 20.6719C32.78 20.6722 33.1778 20.6721 33.5752 20.6719C34.1712 20.6715 34.7676 20.6712 35.3633 20.6729C35.3596 20.5445 35.362 20.4112 35.3652 20.2773C35.3777 19.7602 35.3908 19.2219 35.0088 18.8135ZM52.1182 18.8105C51.5802 18.1563 50.4152 18.1481 49.8672 18.7939C49.4694 19.2017 49.4808 19.7493 49.4922 20.2744C49.4951 20.4092 49.4982 20.5428 49.4941 20.6719H52.4746C52.4702 20.5402 52.4734 20.4039 52.4766 20.2666C52.4884 19.7516 52.5009 19.2165 52.1182 18.8105Z" fill="white"/>
</svg>
