<svg width="60" height="40" viewBox="0 0 60 40" fill="none" xmlns="http://www.w3.org/2000/svg">
<rect width="60" height="40" rx="4" fill="white"/>
<path d="M9.67432 15.3184C10.2433 15.2319 10.8273 15.2416 11.3989 15.2949C11.9289 15.3971 12.4634 15.5114 12.9497 15.7402C13.9339 16.1785 14.7723 16.889 15.3306 17.7637C15.7933 18.5718 16.1116 19.4784 16.064 20.4043C16.0774 22.3054 14.7865 24.1175 12.9585 24.9258C11.7735 25.4517 10.3947 25.5238 9.12842 25.2354C8.27202 24.9896 7.44583 24.592 6.82178 23.9814C6.22727 23.4667 5.77851 22.8105 5.49365 22.1045C5.12214 21.2361 5.08871 20.2703 5.24658 19.3555C5.53548 17.9968 6.43451 16.7506 7.70752 16.0283C8.30006 15.664 8.98168 15.4482 9.67432 15.3184ZM10.563 17.6777C10.0112 17.6679 9.45663 17.6576 8.91357 17.7578C8.48511 17.7986 8.01699 17.9389 7.77979 18.2998C7.51779 18.6457 7.49032 19.0792 7.46436 19.4902C7.46223 19.5239 7.45975 19.5576 7.45752 19.5908C7.45217 19.6944 7.44301 19.7979 7.43311 19.9014C7.41309 20.1103 7.39215 20.3198 7.40967 20.5303C7.4227 20.6722 7.43269 20.8146 7.44189 20.957C7.46492 21.3133 7.48782 21.6698 7.5708 22.0195C7.67359 22.4603 8.09894 22.8026 8.56787 22.8828C9.44174 23.0298 10.3324 23.0167 11.2173 23.0039C11.2981 23.0027 11.3788 23.001 11.4595 23C11.8216 22.9812 12.1844 22.9469 12.5425 22.8936C13.0784 22.8282 13.5521 22.4205 13.6401 21.9189C13.7939 21.304 13.8216 20.6695 13.7759 20.042C13.6899 19.6395 13.3847 19.2763 12.9702 19.1289C12.7835 19.0447 12.5757 19.0454 12.3726 19.0459H11.0669C10.3676 19.0455 9.66818 19.0447 8.96924 19.0479C8.88895 19.0492 8.81402 19.0234 8.73975 18.998C8.71221 18.9886 8.68433 18.9796 8.65674 18.9717C8.65472 18.8312 8.6606 18.6209 8.86279 18.6172C9.38916 18.6061 9.91604 18.61 10.4429 18.6133C11.1369 18.6176 11.8312 18.6213 12.5239 18.5928C12.4486 18.2668 12.2354 17.9262 11.8687 17.8359C11.5377 17.7533 11.1953 17.7111 10.855 17.6816C10.7579 17.6805 10.6603 17.6795 10.563 17.6777ZM12.2153 20.6875C12.2771 20.5176 12.4888 20.4526 12.6655 20.4971C12.776 20.5604 12.8582 20.6672 12.8911 20.7842C12.8394 21.0156 12.756 21.2416 12.7446 21.4805C12.6715 21.5099 12.6008 21.5435 12.5317 21.5811C12.4915 21.5592 12.411 21.5161 12.3706 21.4941C12.3088 21.2283 12.1603 20.9652 12.2153 20.6875Z" fill="#01ACD7"/>
<path d="M21.3306 16.7744C21.8733 16.7118 22.4485 16.6906 22.9663 16.8799C23.3109 16.9884 23.6208 17.1769 23.9009 17.3906C23.905 17.224 23.9038 17.0573 23.9028 16.8906C23.9025 16.8393 23.902 16.7877 23.9019 16.7363C24.1291 16.7376 24.3563 16.7374 24.5835 16.7373C24.8983 16.7371 25.214 16.7376 25.5288 16.7412V22.4072C25.5305 22.7602 25.5317 23.1212 25.4058 23.459C25.2028 24.1367 24.6858 24.7182 24.0288 25.0586C23.2542 25.4755 22.319 25.5251 21.4497 25.4229C20.5602 25.3131 19.7399 24.9 19.0923 24.3281C19.2973 24.1015 19.5301 23.8993 19.7632 23.6973C19.9071 23.5725 20.0515 23.448 20.189 23.3174C20.8077 23.8491 21.6886 24.114 22.521 23.9717C22.9058 23.9165 23.2867 23.7655 23.5386 23.4785C23.9143 23.1296 23.9013 22.6067 23.8901 22.1445C23.8897 22.125 23.8896 22.1052 23.8892 22.0859C23.7987 22.1347 23.7154 22.1936 23.6323 22.252C23.5433 22.3144 23.4539 22.3772 23.356 22.4277C22.6056 22.8382 21.6677 22.83 20.855 22.6006C19.7083 22.2575 18.8049 21.2734 18.6646 20.1523C18.6229 19.7142 18.6191 19.2608 18.7769 18.8408C19.1249 17.7805 20.1562 16.9437 21.3306 16.7744ZM54.5728 16.9121C53.16 19.6208 51.7461 22.3287 50.3306 25.0361C49.7051 25.0662 49.0781 25.0453 48.4526 25.0479C48.9014 24.1156 49.4367 23.2204 49.8901 22.29C48.9637 20.4893 47.9994 18.7057 47.0757 16.9043C47.7077 16.9043 48.3401 16.8996 48.9722 16.9053C49.0729 17.196 49.2445 17.4591 49.3774 17.7373C49.8497 18.7098 50.3447 19.6742 50.8257 20.6436C51.4451 19.4014 52.0608 18.1563 52.6694 16.9092C53.3036 16.8991 53.9379 16.8971 54.5728 16.9121ZM37.2397 16.7373C38.1471 16.7073 39.066 17.0623 39.6646 17.7041C40.8019 18.8578 40.7341 20.8281 39.5532 21.9336C38.4683 22.9599 36.5479 23.0586 35.3413 22.1641C35.3417 22.409 35.3423 22.6544 35.3433 22.8994C35.346 23.6167 35.3489 24.3339 35.3364 25.0508H34.2212C34.0288 25.0486 33.8361 25.0438 33.644 25.0322V16.9072C34.1908 16.8991 34.7379 16.901 35.2847 16.9072C35.2932 17.0096 35.3 17.1129 35.3071 17.2158C35.3113 17.2753 35.3154 17.3349 35.3198 17.3945C35.8203 16.9268 36.5451 16.7329 37.2397 16.7373ZM28.7378 16.8145C29.6924 16.6351 30.7378 16.7433 31.5688 17.2393C32.2009 17.5954 32.682 18.1731 32.897 18.832C33.1918 19.6979 33.0595 20.6887 32.5073 21.4424C31.9585 22.2017 31.0206 22.6667 30.0532 22.7539C29.4575 22.7915 28.8413 22.7728 28.2778 22.5703C27.3442 22.2775 26.5611 21.5583 26.2856 20.6699C25.99 19.8372 26.1268 18.8839 26.6333 18.1465C27.1022 17.4569 27.8881 16.9857 28.7378 16.8145ZM41.8853 17.3398C42.6961 16.7824 43.7554 16.6556 44.7329 16.7754C45.4141 16.8795 46.1144 17.1519 46.5269 17.6924C46.7807 18.0472 46.9488 18.4668 46.9429 18.8975C46.9423 19.4285 46.9427 19.9602 46.9429 20.4912C46.9431 21.1991 46.9434 21.9071 46.9419 22.6152C46.5523 22.6095 46.1628 22.6111 45.7739 22.6123C45.6512 22.6127 45.5284 22.6131 45.4058 22.6133C45.4037 22.5073 45.4038 22.4007 45.4038 22.2949C45.4038 22.1894 45.4039 22.084 45.4019 21.9785C45.0465 22.4067 44.4851 22.6313 43.9282 22.7285C43.1235 22.8281 42.2201 22.7696 41.5786 22.2549C40.8013 21.6554 40.8046 20.3641 41.645 19.8154C42.3246 19.3847 43.155 19.2752 43.9536 19.1699C44.0084 19.1627 44.0633 19.1557 44.1177 19.1484C44.1573 19.1406 44.1974 19.1326 44.2378 19.125C44.5523 19.0655 44.8827 19.0033 45.1255 18.7969C45.2558 18.5072 45.0295 18.2026 44.7319 18.1123C44.3914 18.0158 44.0272 17.9992 43.6772 18.0557C43.1366 18.1372 42.6759 18.5315 42.5435 19.0273C42.2376 18.9876 41.9358 18.9266 41.6343 18.8652C41.4028 18.8181 41.1713 18.7707 40.938 18.7334C41.0173 18.1654 41.4171 17.6872 41.8853 17.3398ZM45.3169 19.8369C44.9286 20.1107 44.4621 20.1898 43.9946 20.2695C43.6065 20.3357 43.2171 20.4023 42.8716 20.5801C42.7004 20.6766 42.5294 20.8703 42.6177 21.0664C42.6768 21.3454 43.0217 21.4299 43.2837 21.4443C43.9144 21.4819 44.6282 21.402 45.0972 20.9658C45.3396 20.7357 45.3299 20.4129 45.3198 20.1045C45.3168 20.0133 45.3132 19.9229 45.3169 19.8369ZM31.3198 19.7109C31.3607 18.7002 30.16 17.8862 29.1382 18.1846C28.9004 18.2479 28.6777 18.3579 28.4829 18.499C27.8085 18.995 27.6442 19.9756 28.1245 20.6396C28.6734 21.4841 30.0895 21.6506 30.8325 20.9434C31.1957 20.6317 31.3682 20.1666 31.3198 19.7109ZM38.2251 18.5449C37.8072 18.2013 37.2024 18.0736 36.6616 18.1758C36.1369 18.273 35.5971 18.5695 35.4204 19.0654C35.3315 19.2636 35.3373 19.4757 35.3433 19.6875C35.3459 19.7812 35.3488 19.8755 35.3433 19.9678C35.3185 20.3174 35.4664 20.6832 35.7495 20.917C36.4153 21.5221 37.6012 21.5338 38.271 20.9287C38.9385 20.2998 38.933 19.1456 38.2251 18.5449ZM23.7085 18.9307C23.3531 18.3507 22.5724 18.0539 21.8784 18.1523C21.5298 18.2006 21.1722 18.2856 20.9028 18.5088C20.0712 19.1019 20.0877 20.4374 20.9233 21.0225C21.4809 21.4369 22.2698 21.4217 22.9087 21.1973C23.4373 21.0091 23.8988 20.5207 23.8403 19.9678C23.836 19.8779 23.8373 19.7863 23.8394 19.6943C23.8453 19.4313 23.8516 19.1656 23.7085 18.9307Z" fill="#010101"/>
</svg>
