<svg width="68" height="48" viewBox="0 0 68 48" fill="none" xmlns="http://www.w3.org/2000/svg">
<g filter="url(#filter0_d_1190_8200)">
<rect x="4" width="60" height="40" rx="4" fill="#003D79"/>
</g>
<path fill-rule="evenodd" clip-rule="evenodd" d="M8.33978 21.1851C8.33978 20.4677 8.32625 19.8657 8.28564 19.3289H9.69425L9.76029 20.2511H9.79981C10.1191 19.7638 10.7029 19.1875 11.792 19.1875C12.6421 19.1875 13.306 19.6495 13.5844 20.3406H13.6117C13.8379 19.995 14.1026 19.7391 14.4078 19.5592C14.7667 19.3163 15.1786 19.1875 15.7098 19.1875C16.7852 19.1875 17.8734 19.8915 17.8734 21.8891V25.5631H16.2801V22.1199C16.2801 21.083 15.9088 20.4677 15.1258 20.4677C14.5671 20.4677 14.155 20.8525 13.9835 21.3008C13.9432 21.454 13.9034 21.6461 13.9034 21.8241V25.5631H12.3095V21.9529C12.3095 21.083 11.9516 20.4677 11.1945 20.4677C10.5836 20.4677 10.1724 20.9293 10.026 21.3637C9.9591 21.5183 9.93231 21.697 9.93231 21.8759V25.5631H8.33978V21.1851Z" fill="white"/>
<path fill-rule="evenodd" clip-rule="evenodd" d="M24.0817 24.0664C24.0817 24.6294 24.1082 25.1789 24.1747 25.5641H22.7001L22.5943 24.873H22.554C22.1558 25.3599 21.4786 25.705 20.6421 25.705C19.3404 25.705 18.6104 24.7968 18.6104 23.8489C18.6104 22.2737 20.0573 21.4806 22.4477 21.4933V21.3905C22.4477 20.9807 22.2749 20.3026 21.1331 20.3026C20.4953 20.3026 19.8311 20.4948 19.3931 20.7632L19.074 19.7399C19.553 19.4576 20.3903 19.1885 21.412 19.1885C23.4844 19.1885 24.0817 20.4567 24.0817 21.8131V24.0664ZM22.4875 22.5175C21.3324 22.4917 20.2305 22.7349 20.2305 23.6824C20.2305 24.2963 20.642 24.5785 21.1601 24.5785C21.81 24.5785 22.2888 24.1687 22.4345 23.7207C22.474 23.6055 22.4875 23.477 22.4875 23.375V22.5175Z" fill="white"/>
<path fill-rule="evenodd" clip-rule="evenodd" d="M25.2105 21.1851C25.2105 20.4677 25.1959 19.8657 25.1572 19.3289H26.5902L26.6703 20.2634H26.7096C26.9888 19.7775 27.6925 19.1875 28.7679 19.1875C29.897 19.1875 31.0656 19.8915 31.0656 21.8635V25.5631H29.4324V22.0432C29.4324 21.1464 29.0872 20.4677 28.1973 20.4677C27.5466 20.4677 27.0953 20.9159 26.9222 21.3898C26.8699 21.5309 26.8561 21.7234 26.8561 21.9014V25.5631H25.2105V21.1851Z" fill="white"/>
<path fill-rule="evenodd" clip-rule="evenodd" d="M38.1472 16.8242V23.8091C38.1472 24.4491 38.1733 25.1417 38.2 25.5636H36.7392L36.6738 24.578H36.6467C36.2614 25.2697 35.4767 25.7045 34.5349 25.7045C32.9952 25.7045 31.773 24.4374 31.773 22.5171C31.7595 20.4301 33.114 19.188 34.6675 19.188C35.557 19.188 36.195 19.5469 36.4866 20.0082H36.5135V16.8242H38.1472ZM36.5135 21.9272C36.5135 21.8005 36.4999 21.6461 36.4743 21.5185C36.328 20.904 35.8098 20.4044 35.0661 20.4044C34.0171 20.4044 33.4327 21.301 33.4327 22.466C33.4327 23.6051 34.0171 24.4374 35.0528 24.4374C35.7165 24.4374 36.3012 24.0022 36.4604 23.3239C36.4999 23.1825 36.5135 23.029 36.5135 22.862V21.9272Z" fill="white"/>
<path fill-rule="evenodd" clip-rule="evenodd" d="M39.3013 25.5629H40.9496V19.3291H39.3013V25.5629Z" fill="white"/>
<path fill-rule="evenodd" clip-rule="evenodd" d="M42.1038 21.3389C42.1038 20.4943 42.0899 19.8918 42.0503 19.329H43.4715L43.5235 20.5192H43.5785C43.8967 19.6359 44.6538 19.329 45.344 19.329C45.503 19.329 45.5959 19.3028 45.7291 19.329V20.7121C45.5959 20.6865 45.4501 20.6609 45.2509 20.6609C44.4676 20.6609 43.936 21.1469 43.7901 21.8506C43.7642 21.9915 43.7374 22.1586 43.7374 22.3387V25.5636H42.1038V21.3389Z" fill="white"/>
<path fill-rule="evenodd" clip-rule="evenodd" d="M46.4863 25.5629H48.1322V19.3291H46.4863V25.5629Z" fill="white"/>
<path fill-rule="evenodd" clip-rule="evenodd" d="M46.0966 11.7919C45.108 12.3438 42.7761 13.6332 41.9056 14.1133C41.3751 14.3739 40.1463 14.4876 39.4514 13.5842C39.4389 13.5679 38.527 12.4695 38.4898 12.4281C38.4637 12.3989 37.8741 11.5559 36.5605 11.5295C36.3665 11.5251 35.4015 11.5201 34.46 12.036C33.2085 12.7253 30.2979 14.3295 30.2979 14.3295C30.2971 14.3295 30.2971 14.3309 30.2956 14.3309C29.0992 14.9909 28.167 15.5047 28.167 15.5047L29.2684 16.8088C29.7836 17.4255 30.9455 17.9027 31.9531 17.345C31.9531 17.345 35.6761 15.2666 35.6898 15.2606C37.2999 14.4092 38.5423 14.4092 39.3669 14.726C40.1071 15.0275 40.751 15.7788 40.751 15.7788C40.751 15.7788 41.5926 16.7842 41.741 16.9601C42.2198 17.5283 43.0124 17.3051 43.0124 17.3051C43.0124 17.3051 43.3061 17.273 43.7488 17.0196C43.7488 17.0196 47.355 15.0038 47.3573 15.0031C48.5024 14.3555 49.5526 14.2345 50.0894 14.2821C51.7705 14.4294 52.2928 15.5617 53.0217 16.3516C53.451 16.8162 53.8384 17.08 54.4308 17.0667C54.82 17.0588 55.2597 16.8312 55.3245 16.7901L59.6429 14.3876C59.6429 14.3876 59.1998 13.7442 58.2924 12.7432C57.4802 11.8501 56.6175 12.2542 55.9298 12.5826C55.6408 12.7204 54.5938 13.3918 53.5566 13.8602C52.8175 14.1938 51.7559 14.0935 51.1741 13.4004C51.1393 13.3583 50.198 12.2597 50.0991 12.1245C49.7192 11.6657 48.978 11.2549 48.028 11.2549C47.4504 11.2549 46.795 11.4068 46.0966 11.7919Z" fill="url(#paint0_linear_1190_8200)"/>
<defs>
<filter id="filter0_d_1190_8200" x="0" y="0" width="68" height="48" filterUnits="userSpaceOnUse" color-interpolation-filters="sRGB">
<feFlood flood-opacity="0" result="BackgroundImageFix"/>
<feColorMatrix in="SourceAlpha" type="matrix" values="0 0 0 0 0 0 0 0 0 0 0 0 0 0 0 0 0 0 127 0" result="hardAlpha"/>
<feOffset dy="4"/>
<feGaussianBlur stdDeviation="2"/>
<feComposite in2="hardAlpha" operator="out"/>
<feColorMatrix type="matrix" values="0 0 0 0 0 0 0 0 0 0 0 0 0 0 0 0 0 0 0.25 0"/>
<feBlend mode="normal" in2="BackgroundImageFix" result="effect1_dropShadow_1190_8200"/>
<feBlend mode="normal" in="SourceGraphic" in2="effect1_dropShadow_1190_8200" result="shape"/>
</filter>
<linearGradient id="paint0_linear_1190_8200" x1="28.167" y1="17.592" x2="59.6429" y2="17.592" gradientUnits="userSpaceOnUse">
<stop stop-color="#FFCA06"/>
<stop offset="0.330844" stop-color="#FBAA18"/>
<stop offset="0.694742" stop-color="#FFC907"/>
<stop offset="1" stop-color="#FAA619"/>
</linearGradient>
</defs>
</svg>
