<svg width="20" height="20" viewBox="0 0 20 20" fill="none" xmlns="http://www.w3.org/2000/svg">
<path fill-rule="evenodd" clip-rule="evenodd" d="M5.22575 1.76033C4.55075 1.84866 4.19409 2.01116 3.93909 2.26033C3.68492 2.51033 3.51909 2.86033 3.42825 3.52116C3.33492 4.20199 3.33325 5.10366 3.33325 6.39616V13.5378C3.66323 13.3125 4.02936 13.1454 4.41575 13.0437C4.85575 12.9278 5.36909 12.9278 6.12159 12.9287H16.6666V6.39699C16.6666 5.10366 16.6649 4.20199 16.5716 3.52116C16.4808 2.86033 16.3149 2.51033 16.0608 2.26033C15.8058 2.01116 15.4491 1.84866 14.7741 1.76033C14.0791 1.66866 13.1591 1.66699 11.8391 1.66699H8.16075C6.84075 1.66699 5.92075 1.66866 5.22575 1.76033ZM5.63242 5.49616C5.63242 5.12283 5.94075 4.82033 6.32158 4.82033H13.6783C13.8591 4.81877 14.0331 4.88893 14.1623 5.01545C14.2915 5.14197 14.3652 5.31453 14.3674 5.49533C14.3654 5.67627 14.2918 5.84904 14.1626 5.97574C14.0334 6.10243 13.8592 6.17271 13.6783 6.17116H6.32158C6.14078 6.17272 5.96673 6.10255 5.83756 5.97603C5.70838 5.84951 5.63462 5.67696 5.63242 5.49616ZM6.32158 7.97366C6.14078 7.9721 5.96673 8.04227 5.83756 8.16879C5.70838 8.2953 5.63462 8.46786 5.63242 8.64866C5.63242 9.02199 5.94075 9.32449 6.32158 9.32449H10.9191C11.1 9.32627 11.2743 9.2562 11.4037 9.12966C11.533 9.00312 11.6069 8.83044 11.6091 8.64949C11.6071 8.4684 11.5333 8.29551 11.4039 8.16878C11.2746 8.04206 11.1002 7.97188 10.9191 7.97366H6.32158Z" fill="#EAE6FE"/>
<path d="M6.22756 14.2793H16.6667C16.6642 15.221 16.6492 15.9243 16.5726 16.4793C16.4817 17.1401 16.3159 17.4901 16.0617 17.7401C15.8067 17.9893 15.4501 18.1518 14.7751 18.2401C14.0801 18.3318 13.1601 18.3335 11.8401 18.3335H8.1609C6.8409 18.3335 5.9209 18.3318 5.2259 18.241C4.5509 18.1518 4.19423 17.9893 3.93923 17.7401C3.68507 17.4901 3.51923 17.1401 3.4284 16.4793C3.39423 16.2293 3.37173 15.9485 3.3584 15.6293C3.47262 15.3172 3.66103 15.0375 3.90739 14.8143C4.15375 14.5912 4.45067 14.4313 4.77257 14.3485C5.01423 14.2851 5.3284 14.2793 6.22756 14.2793Z" fill="#EAE6FE"/>
</svg>
