<svg width="28" height="28" viewBox="0 0 28 28" fill="none" xmlns="http://www.w3.org/2000/svg">
<g filter="url(#filter0_d_958_3590)">
<path d="M22.0488 15C23.122 15 24 14.1 24 13V2C24 0.9 23.122 0 22.0488 0H11.8049C12.0976 0.6 12.2927 1.3 12.2927 2H22.0488V13H13.2683V15M17.1707 5V7H11.3171V20H9.36585V14H7.41463V20H5.46341V12H4V7C4 5.9 4.87805 5 5.95122 5H17.1707ZM10.3415 2C10.3415 3.1 9.46341 4 8.39024 4C7.31707 4 6.43902 3.1 6.43902 2C6.43902 0.9 7.31707 0 8.39024 0C9.46341 0 10.3415 0.9 10.3415 2ZM19.122 4H21.0732V12H19.122V4ZM16.1951 8H18.1463V12H16.1951V8ZM13.2683 8H15.2195V12H13.2683V8Z" fill="#EAE6FE"/>
</g>
<defs>
<filter id="filter0_d_958_3590" x="0" y="0" width="28" height="28" filterUnits="userSpaceOnUse" color-interpolation-filters="sRGB">
<feFlood flood-opacity="0" result="BackgroundImageFix"/>
<feColorMatrix in="SourceAlpha" type="matrix" values="0 0 0 0 0 0 0 0 0 0 0 0 0 0 0 0 0 0 127 0" result="hardAlpha"/>
<feOffset dy="4"/>
<feGaussianBlur stdDeviation="2"/>
<feComposite in2="hardAlpha" operator="out"/>
<feColorMatrix type="matrix" values="0 0 0 0 0 0 0 0 0 0 0 0 0 0 0 0 0 0 0.25 0"/>
<feBlend mode="normal" in2="BackgroundImageFix" result="effect1_dropShadow_958_3590"/>
<feBlend mode="normal" in="SourceGraphic" in2="effect1_dropShadow_958_3590" result="shape"/>
</filter>
</defs>
</svg>
