<svg width="20" height="20" viewBox="0 0 20 20" fill="none" xmlns="http://www.w3.org/2000/svg">
<path d="M2.5 0C1.83696 0 1.20107 0.271889 0.732233 0.755853C0.263392 1.23982 0 1.89622 0 2.58065V7.31742C0.937706 6.11967 2.29794 5.35549 3.78147 5.193C5.265 5.03051 6.7503 5.48301 7.91062 6.45097C9.07095 7.41892 9.81124 8.82304 9.96866 10.3544C10.1261 11.8858 9.68771 13.419 8.75 14.6168V15.4839H17.5C18.163 15.4839 18.7989 15.212 19.2678 14.728C19.7366 14.2441 20 13.5877 20 12.9032V2.58065C20 1.89622 19.7366 1.23982 19.2678 0.755853C18.7989 0.271889 18.163 0 17.5 0H2.5ZM4.375 5.16129C4.20924 5.16129 4.05027 5.09332 3.93306 4.97233C3.81585 4.85134 3.75 4.68724 3.75 4.51613C3.75 4.34502 3.81585 4.18092 3.93306 4.05993C4.05027 3.93894 4.20924 3.87097 4.375 3.87097H15.625C15.7908 3.87097 15.9497 3.93894 16.0669 4.05993C16.1842 4.18092 16.25 4.34502 16.25 4.51613C16.25 4.68724 16.1842 4.85134 16.0669 4.97233C15.9497 5.09332 15.7908 5.16129 15.625 5.16129H4.375ZM11.25 9.67742C11.25 9.50631 11.3158 9.34221 11.4331 9.22122C11.5503 9.10023 11.7092 9.03226 11.875 9.03226H15.625C15.7908 9.03226 15.9497 9.10023 16.0669 9.22122C16.1842 9.34221 16.25 9.50631 16.25 9.67742C16.25 9.84853 16.1842 10.0126 16.0669 10.1336C15.9497 10.2546 15.7908 10.3226 15.625 10.3226H11.875C11.7092 10.3226 11.5503 10.2546 11.4331 10.1336C11.3158 10.0126 11.25 9.84853 11.25 9.67742ZM4.375 15.4839C3.21468 15.4839 2.10188 15.0081 1.28141 14.1611C0.460936 13.3142 0 12.1655 0 10.9677C0 9.76999 0.460936 8.6213 1.28141 7.77436C2.10188 6.92742 3.21468 6.45161 4.375 6.45161C5.53532 6.45161 6.64812 6.92742 7.46859 7.77436C8.28906 8.6213 8.75 9.76999 8.75 10.9677C8.75 12.1655 8.28906 13.3142 7.46859 14.1611C6.64812 15.0081 5.53532 15.4839 4.375 15.4839ZM1.25 15.7961C2.17506 16.434 3.26256 16.7743 4.375 16.7742C5.53125 16.7742 6.60625 16.4129 7.5 15.7961V19.3548C7.5 19.4747 7.46768 19.5921 7.40666 19.694C7.34564 19.7959 7.25832 19.8783 7.15451 19.9319C7.05069 19.9855 6.93447 20.0082 6.81887 19.9974C6.70327 19.9866 6.59286 19.9429 6.5 19.871L4.75 18.5161C4.64181 18.4324 4.51023 18.3871 4.375 18.3871C4.23977 18.3871 4.10818 18.4324 4 18.5161L2.25 19.871C2.15714 19.9429 2.04673 19.9866 1.93113 19.9974C1.81553 20.0082 1.69931 19.9855 1.59549 19.9319C1.49168 19.8783 1.40436 19.7959 1.34334 19.694C1.28232 19.5921 1.25 19.4747 1.25 19.3548V15.7961Z" fill="#EAE6FE"/>
</svg>
