<svg width="22" height="24" viewBox="0 0 22 24" fill="none" xmlns="http://www.w3.org/2000/svg">
<path d="M7.60571 6C7.65889 5.9994 7.711 5.98807 7.75717 5.96709C7.80334 5.9461 7.84207 5.91614 7.86971 5.88C7.89502 5.84321 7.90829 5.80194 7.90829 5.76C7.90829 5.71806 7.89502 5.67679 7.86971 5.64L4.71429 0.28C4.65685 0.201106 4.57436 0.135609 4.47507 0.0900767C4.37578 0.0445442 4.26318 0.0205763 4.14857 0.0205763C4.03396 0.0205763 3.92137 0.0445442 3.82208 0.0900767C3.72279 0.135609 3.64029 0.201106 3.58286 0.28L0.289143 5.64C0.263835 5.67679 0.25057 5.71806 0.25057 5.76C0.25057 5.80194 0.263835 5.84321 0.289143 5.88C0.317889 5.91759 0.3586 5.94849 0.407162 5.96956C0.455723 5.99063 0.510416 6.00113 0.565714 6H7.60571ZM0.314286 20.25C0.230932 20.25 0.150992 20.2763 0.0920522 20.3232C0.0331122 20.3701 0 20.4337 0 20.5V20.75C0 21.612 0.430458 22.4386 1.19668 23.0481C1.9629 23.6576 3.00212 24 4.08571 24C5.16931 24 6.20853 23.6576 6.97475 23.0481C7.74097 22.4386 8.17143 21.612 8.17143 20.75V20.5C8.17143 20.4337 8.13832 20.3701 8.07938 20.3232C8.02044 20.2763 7.9405 20.25 7.85714 20.25H0.314286ZM20.1143 0H13.8286C13.3284 0 12.8488 0.158035 12.4952 0.43934C12.1415 0.720644 11.9429 1.10218 11.9429 1.5V2.75C11.9429 2.8163 11.976 2.87989 12.0349 2.92678C12.0938 2.97366 12.1738 3 12.2571 3H14.4571C14.6239 3 14.7837 3.05268 14.9016 3.14645C15.0195 3.24021 15.0857 3.36739 15.0857 3.5C15.0857 3.63261 15.0195 3.75979 14.9016 3.85355C14.7837 3.94732 14.6239 4 14.4571 4H12.2571C12.1738 4 12.0938 4.02634 12.0349 4.07322C11.976 4.12011 11.9429 4.1837 11.9429 4.25V6.75C11.9429 6.8163 11.976 6.87989 12.0349 6.92678C12.0938 6.97366 12.1738 7 12.2571 7H14.4571C14.6239 7 14.7837 7.05268 14.9016 7.14645C15.0195 7.24021 15.0857 7.36739 15.0857 7.5C15.0857 7.63261 15.0195 7.75979 14.9016 7.85355C14.7837 7.94732 14.6239 8 14.4571 8H12.2571C12.1738 8 12.0938 8.02634 12.0349 8.07322C11.976 8.12011 11.9429 8.1837 11.9429 8.25V10.75C11.9429 10.8163 11.976 10.8799 12.0349 10.9268C12.0938 10.9737 12.1738 11 12.2571 11H14.4571C14.6239 11 14.7837 11.0527 14.9016 11.1464C15.0195 11.2402 15.0857 11.3674 15.0857 11.5C15.0857 11.6326 15.0195 11.7598 14.9016 11.8536C14.7837 11.9473 14.6239 12 14.4571 12H12.2571C12.1738 12 12.0938 12.0263 12.0349 12.0732C11.976 12.1201 11.9429 12.1837 11.9429 12.25V14.75C11.9429 14.8163 11.976 14.8799 12.0349 14.9268C12.0938 14.9737 12.1738 15 12.2571 15H14.4571C14.6239 15 14.7837 15.0527 14.9016 15.1464C15.0195 15.2402 15.0857 15.3674 15.0857 15.5C15.0857 15.6326 15.0195 15.7598 14.9016 15.8536C14.7837 15.9473 14.6239 16 14.4571 16H12.2571C12.1738 16 12.0938 16.0263 12.0349 16.0732C11.976 16.1201 11.9429 16.1837 11.9429 16.25V22.5C11.9429 22.8978 12.1415 23.2794 12.4952 23.5607C12.8488 23.842 13.3284 24 13.8286 24H20.1143C20.6144 24 21.094 23.842 21.4477 23.5607C21.8013 23.2794 22 22.8978 22 22.5V1.5C22 1.10218 21.8013 0.720644 21.4477 0.43934C21.094 0.158035 20.6144 0 20.1143 0ZM16.9714 19.5C17.2822 19.5 17.5861 19.5733 17.8445 19.7107C18.1029 19.848 18.3043 20.0432 18.4232 20.2716C18.5422 20.5001 18.5733 20.7514 18.5127 20.9939C18.452 21.2363 18.3024 21.4591 18.0826 21.6339C17.8628 21.8087 17.5828 21.9277 17.278 21.976C16.9732 22.0242 16.6572 21.9995 16.3701 21.9049C16.0829 21.8102 15.8375 21.65 15.6648 21.4445C15.4922 21.2389 15.4 20.9972 15.4 20.75C15.4 20.4185 15.5656 20.1005 15.8603 19.8661C16.155 19.6317 16.5547 19.5 16.9714 19.5ZM3.45714 7.5C3.45714 7.36739 3.39092 7.24021 3.27304 7.14645C3.15516 7.05268 2.99528 7 2.82857 7H0.314286C0.230932 7 0.150992 7.02634 0.0920522 7.07322C0.0331122 7.12011 0 7.1837 0 7.25V19C0 19.0663 0.0331122 19.1299 0.0920522 19.1768C0.150992 19.2237 0.230932 19.25 0.314286 19.25H2.82857C2.99528 19.25 3.15516 19.1973 3.27304 19.1036C3.39092 19.0098 3.45714 18.8826 3.45714 18.75V7.5ZM8.17143 7.25C8.17143 7.1837 8.13832 7.12011 8.07938 7.07322C8.02044 7.02634 7.9405 7 7.85714 7H5.34286C5.17615 7 5.01627 7.05268 4.89839 7.14645C4.78051 7.24021 4.71429 7.36739 4.71429 7.5V18.75C4.71429 18.8826 4.78051 19.0098 4.89839 19.1036C5.01627 19.1973 5.17615 19.25 5.34286 19.25H7.85714C7.9405 19.25 8.02044 19.2237 8.07938 19.1768C8.13832 19.1299 8.17143 19.0663 8.17143 19V7.25Z" fill="#661FFF"/>
</svg>
