<svg width="24" height="22" viewBox="0 0 24 22" fill="none" xmlns="http://www.w3.org/2000/svg">
<path d="M23.6279 1.65046C23.5127 1.55162 23.3811 1.49472 23.2455 1.4851C23.1099 1.47548 22.9748 1.51345 22.8528 1.59546C18.5591 4.48289 15.4926 3.12992 12.251 1.70271C8.84146 0.210864 5.32088 -1.33598 0.449074 1.9337C0.314528 2.02401 0.201114 2.16441 0.121727 2.33893C0.0423403 2.51345 0.000166125 2.71509 7.93729e-09 2.92093V19.4109C-1.91117e-05 19.5976 0.0345041 19.7811 0.100321 19.9444C0.166137 20.1076 0.261083 20.2451 0.376222 20.344C0.491361 20.4429 0.622907 20.4999 0.758481 20.5096C0.894055 20.5193 1.0292 20.4814 1.15119 20.3995C5.4449 17.5121 8.51141 18.8651 11.7579 20.2923C13.6823 21.1379 15.6426 22 17.859 22C19.5682 22 21.4325 21.4885 23.5509 20.0668C23.6854 19.9765 23.7989 19.8361 23.8782 19.6616C23.9576 19.487 23.9998 19.2854 24 19.0796V2.58956C24.0012 2.40245 23.9676 2.218 23.9025 2.05367C23.8374 1.88934 23.7429 1.75056 23.6279 1.65046ZM4.00066 14.3002C4.00066 14.5919 3.91636 14.8717 3.76631 15.078C3.61625 15.2843 3.41274 15.4001 3.20053 15.4001C2.98832 15.4001 2.7848 15.2843 2.63475 15.078C2.4847 14.8717 2.4004 14.5919 2.4004 14.3002V5.50037C2.4004 5.20864 2.4847 4.92886 2.63475 4.72257C2.7848 4.51629 2.98832 4.4004 3.20053 4.4004C3.41274 4.4004 3.61625 4.51629 3.76631 4.72257C3.91636 4.92886 4.00066 5.20864 4.00066 5.50037V14.3002ZM12.002 15.4001C11.369 15.4001 10.7502 15.1421 10.2239 14.6586C9.69754 14.1752 9.28732 13.488 9.04508 12.684C8.80284 11.88 8.73946 10.9954 8.86295 10.1419C8.98645 9.28837 9.29127 8.50438 9.73887 7.88905C10.1865 7.27371 10.7568 6.85466 11.3776 6.68489C11.9984 6.51512 12.642 6.60225 13.2268 6.93527C13.8116 7.26829 14.3114 7.83223 14.6631 8.55579C15.0148 9.27935 15.2025 10.13 15.2025 11.0002C15.2025 12.1672 14.8653 13.2863 14.2651 14.1114C13.6649 14.9366 12.8508 15.4001 12.002 15.4001ZM21.6036 16.5001C21.6036 16.7919 21.5193 17.0716 21.3692 17.2779C21.2192 17.4842 21.0156 17.6001 20.8034 17.6001C20.5912 17.6001 20.3877 17.4842 20.2377 17.2779C20.0876 17.0716 20.0033 16.7919 20.0033 16.5001V7.70032C20.0033 7.40859 20.0876 7.12881 20.2377 6.92252C20.3877 6.71624 20.5912 6.60035 20.8034 6.60035C21.0156 6.60035 21.2192 6.71624 21.3692 6.92252C21.5193 7.12881 21.6036 7.40859 21.6036 7.70032V16.5001Z" fill="#661FFF"/>
</svg>
