<svg width="349" height="309" viewBox="0 0 349 309" fill="none" xmlns="http://www.w3.org/2000/svg">
<path d="M189.856 98.8799C195.253 98.8799 199.628 103.722 199.628 109.695C199.628 115.668 195.253 120.51 189.856 120.51H279.2C284.597 120.51 288.972 125.352 288.972 131.325C288.972 137.298 284.597 142.14 279.2 142.14H309.912C315.309 142.14 319.684 146.982 319.684 152.955C319.684 158.928 315.308 163.77 309.912 163.77H283.388C277.991 163.77 273.616 168.612 273.616 174.585C273.616 180.558 277.991 185.399 283.388 185.399H291.764C297.161 185.4 301.536 190.242 301.536 196.215C301.536 202.188 297.161 207.03 291.764 207.03H219.172C218.454 207.03 217.752 206.944 217.078 206.781C216.403 206.944 215.703 207.03 214.984 207.03H87.9478C82.5509 207.03 78.1763 202.188 78.1763 196.215C78.1763 190.242 82.5509 185.4 87.9478 185.399H33.5044C28.1075 185.399 23.732 180.558 23.7319 174.585C23.7319 168.612 28.1075 163.77 33.5044 163.77H89.3442C94.741 163.769 99.1156 158.928 99.1157 152.955C99.1157 146.982 94.741 142.14 89.3442 142.14H54.4438C49.0471 142.14 44.6725 137.298 44.6724 131.325C44.6724 125.352 49.047 120.51 54.4438 120.51H110.284C104.887 120.51 100.512 115.668 100.512 109.695C100.512 103.722 104.887 98.88 110.284 98.8799H189.856ZM315.496 185.399C320.893 185.399 325.268 190.242 325.268 196.215C325.268 202.188 320.893 207.03 315.496 207.03C310.099 207.03 305.724 202.188 305.724 196.215C305.724 190.242 310.099 185.4 315.496 185.399Z" fill="#EAE6FE"/>
<path d="M145.263 216H135.58M128.585 216C111.694 216 98 201.155 98 182.843C98 164.531 111.694 149.687 128.585 149.687C129.304 149.687 130.016 149.714 130.722 149.766C130.232 146.738 129.976 143.619 129.976 140.434C129.976 111.475 151.138 88 177.244 88C198.085 88 215.776 102.962 222.063 123.731C223.553 123.558 225.066 123.47 226.598 123.47C250.016 123.47 269 144.183 269 169.735C269 194.01 251.866 214.037 230.073 215.966V216H151.535H128.585Z" stroke="#661FFF" stroke-width="2.5" stroke-linecap="round"/>
<path fill-rule="evenodd" clip-rule="evenodd" d="M162.423 99.0865C162.423 149.163 202.892 190.427 255 195.998C248.47 204.946 238.385 211.017 226.897 211.971V212H133.321C121.967 212 103 206.669 103 183.325C103 159.981 117.746 154.65 133.321 154.65C133.983 154.65 134.64 154.673 135.291 154.719C134.839 152.1 134.759 149.4 134.602 146.648C133.545 128.056 140.823 104.626 162.448 97C162.431 97.6952 162.423 98.39 162.423 99.0865ZM177.07 177.435C172.833 177.435 169.398 181.218 169.398 185.884C169.398 190.55 172.833 194.333 177.07 194.333C181.308 194.333 184.743 190.55 184.743 185.884C184.743 181.218 181.308 177.435 177.07 177.435Z" fill="#EAE6FE"/>
<path d="M178 195C182.418 195 186 191.194 186 186.5C186 181.806 182.418 178 178 178C173.582 178 170 181.806 170 186.5C170 191.194 173.582 195 178 195Z" stroke="#661FFF" stroke-width="2.5"/>
<path d="M156 168L166 159.803L156 152" stroke="#661FFF" stroke-width="2.5" stroke-linecap="round" stroke-linejoin="round"/>
<path d="M200 168L190 159.803L200 152" stroke="#661FFF" stroke-width="2.5" stroke-linecap="round" stroke-linejoin="round"/>
<path d="M191 104C200.201 106.592 207.467 114.25 210 124" stroke="#661FFF" stroke-width="2.5" stroke-linecap="round"/>
<path d="M220.5 77C222.985 77 225 74.9853 225 72.5C225 70.0147 222.985 68 220.5 68C218.015 68 216 70.0147 216 72.5C216 74.9853 218.015 77 220.5 77Z" stroke="#661FFF" stroke-width="2"/>
<path d="M264 102C266.209 102 268 99.9853 268 97.5C268 95.0147 266.209 93 264 93C261.791 93 260 95.0147 260 97.5C260 99.9853 261.791 102 264 102Z" fill="#661FFF"/>
<path d="M231 89L242.82 102M243 89L231.18 102L243 89Z" stroke="#661FFF" stroke-width="2.5" stroke-linecap="round" stroke-linejoin="round"/>
<path d="M100 117L108 126M108 117L100 126L108 117Z" stroke="#661FFF" stroke-width="2.5" stroke-linecap="round" stroke-linejoin="round"/>
<path d="M118.5 107C120.985 107 123 104.761 123 102C123 99.2386 120.985 97 118.5 97C116.015 97 114 99.2386 114 102C114 104.761 116.015 107 118.5 107Z" fill="#661FFF"/>
</svg>
