<svg width="54" height="54" viewBox="0 0 54 54" fill="none" xmlns="http://www.w3.org/2000/svg">
<path d="M27 1C41.3594 1 53 12.6406 53 27C53 41.3594 41.3594 53 27 53C12.6406 53 1 41.3594 1 27C1 12.6406 12.6406 1 27 1Z" stroke="#0088FF" stroke-width="2"/>
<path d="M26.4303 14.1221C22.4309 14.1221 19.1719 17.3811 19.1719 21.3805C19.1719 21.7415 19.3153 22.0876 19.5705 22.3429C19.8257 22.5981 20.1719 22.7415 20.5328 22.7415C20.8938 22.7415 21.2399 22.5981 21.4952 22.3429C21.7504 22.0876 21.8938 21.7415 21.8938 21.3805C21.8938 18.8836 23.9334 16.844 26.4303 16.844C28.9272 16.844 30.9668 18.8836 30.9668 21.3805C30.9668 22.4638 30.6838 23.1498 30.2991 23.6851C29.8781 24.2748 29.3065 24.7375 28.5407 25.3545L28.5226 25.369C27.7967 25.9551 26.9021 26.6828 26.218 27.7062C25.5085 28.7732 25.0694 30.0888 25.0694 31.8145V32.7218C25.0694 33.0828 25.2127 33.4289 25.468 33.6842C25.7232 33.9394 26.0694 34.0828 26.4303 34.0828C26.7913 34.0828 27.1374 33.9394 27.3927 33.6842C27.6479 33.4289 27.7913 33.0828 27.7913 32.7218V31.8145C27.7913 30.5915 28.0889 29.8094 28.4845 29.216C28.9073 28.5827 29.4861 28.0909 30.2337 27.4867L30.3571 27.3869C31.0358 26.8389 31.8705 26.1675 32.5129 25.2692C33.2351 24.2621 33.6888 23.0191 33.6888 21.3805C33.6888 17.3811 30.4297 14.1221 26.4303 14.1221ZM26.4303 39.5266C26.9116 39.5266 27.3731 39.3354 27.7134 38.9951C28.0537 38.6548 28.2449 38.1933 28.2449 37.712C28.2449 37.2307 28.0537 36.7692 27.7134 36.4289C27.3731 36.0886 26.9116 35.8974 26.4303 35.8974C25.9491 35.8974 25.4875 36.0886 25.1472 36.4289C24.8069 36.7692 24.6157 37.2307 24.6157 37.712C24.6157 38.1933 24.8069 38.6548 25.1472 38.9951C25.4875 39.3354 25.9491 39.5266 26.4303 39.5266Z" fill="#0088FF"/>
</svg>
