<svg width="24" height="24" viewBox="0 0 24 24" fill="none" xmlns="http://www.w3.org/2000/svg">
<g clip-path="url(#clip0_608_11306)">
<path d="M12 0C5.3726 0 0 5.3726 0 12C0 18.6274 5.3726 24 12 24C18.6274 24 24 18.6274 24 12C24 5.37262 18.6274 0 12 0ZM12 21.3913C6.8126 21.3913 2.6087 17.1861 2.6087 12C2.6087 6.81392 6.8126 2.6087 12 2.6087C17.1874 2.6087 21.3913 6.81392 21.3913 12C21.3913 17.1861 17.1874 21.3913 12 21.3913ZM14.3478 6.97826H9.65216V12.313H6.7174L12 17.2826L17.2826 12.313H14.3478L14.3478 6.97826Z" fill="#661FFF"/>
</g>
<defs>
<clipPath id="clip0_608_11306">
<rect width="24" height="24" fill="white"/>
</clipPath>
</defs>
</svg>
