<svg width="17" height="22" viewBox="0 0 17 22" fill="none" xmlns="http://www.w3.org/2000/svg">
<path fill-rule="evenodd" clip-rule="evenodd" d="M2.34197 0.152208C1.50666 0.296261 1.06528 0.561265 0.749719 0.967605C0.435188 1.3753 0.229969 1.94608 0.117562 3.02377C0.00206234 4.13407 0 5.6045 0 7.7123V19.3589C0.408351 18.9915 0.861429 18.7189 1.33959 18.553C1.88409 18.3641 2.51934 18.3641 3.45056 18.3655H16.5V7.71366C16.5 5.6045 16.4979 4.13407 16.3824 3.02377C16.27 1.94608 16.0648 1.3753 15.7503 0.967605C15.4347 0.561265 14.9933 0.296261 14.158 0.152208C13.298 0.00271798 12.1595 0 10.526 0H5.97403C4.34053 0 3.20203 0.00271798 2.34197 0.152208ZM2.84522 6.24459C2.84522 5.63576 3.22678 5.14244 3.69806 5.14244H12.8019C13.0257 5.1399 13.2411 5.25433 13.4009 5.46065C13.5608 5.66698 13.6521 5.94838 13.6548 6.24323C13.6523 6.53831 13.5612 6.82006 13.4013 7.02668C13.2414 7.2333 13.0259 7.34791 12.8019 7.34537H3.69806C3.47432 7.34791 3.25893 7.23349 3.09908 7.02716C2.93922 6.82084 2.84794 6.53943 2.84522 6.24459ZM3.69806 10.2849C3.47432 10.2823 3.25893 10.3968 3.09908 10.6031C2.93922 10.8094 2.84794 11.0908 2.84522 11.3857C2.84522 11.9945 3.22678 12.4878 3.69806 12.4878H9.38747C9.61139 12.4907 9.82705 12.3764 9.98712 12.1701C10.1472 11.9637 10.2386 11.6821 10.2413 11.387C10.2389 11.0917 10.1476 10.8097 9.98748 10.6031C9.82738 10.3964 9.61157 10.282 9.38747 10.2849H3.69806Z" fill="#747474"/>
<path d="M3.55059 17.5156H16.4691C16.466 18.5573 16.4474 19.3354 16.3525 19.9493C16.2401 20.6803 16.0349 21.0675 15.7204 21.3441C15.4048 21.6197 14.9634 21.7995 14.1281 21.8972C13.2681 21.9986 12.1296 22.0004 10.4961 22.0004H5.94309C4.30959 22.0004 3.17109 21.9986 2.31103 21.8981C1.47572 21.7995 1.03434 21.6197 0.718781 21.3441C0.40425 21.0675 0.199031 20.6803 0.0866246 19.9493C0.0443434 19.6728 0.0165 19.3621 0 19.009C0.141349 18.6637 0.374504 18.3543 0.679374 18.1075C0.984245 17.8607 1.35169 17.6838 1.75003 17.5921C2.04909 17.5221 2.43787 17.5156 3.55059 17.5156Z" fill="#747474"/>
</svg>
