<svg width="32" height="22" viewBox="0 0 32 22" fill="none" xmlns="http://www.w3.org/2000/svg">
<g filter="url(#filter0_d_1184_7819)">
<path d="M6.18182 7C6.18182 8.18142 6.58409 9.31445 7.30014 10.1498C8.01619 10.9852 8.98736 11.4545 10 11.4545C11.3135 11.4545 12.2036 10.9022 12.9455 10.038C13.6229 9.24509 14.1684 8.20527 14.7509 7C14.1684 5.79473 13.6229 4.75491 12.9444 3.962C12.2036 3.09655 11.3135 2.54545 10 2.54545C8.98736 2.54545 8.01619 3.01477 7.30014 3.85016C6.58409 4.68555 6.18182 5.81858 6.18182 7ZM10 14C8.4087 14 6.88258 13.2625 5.75736 11.9497C4.63214 10.637 4 8.85651 4 7C4 5.14348 4.63214 3.36301 5.75736 2.05025C6.88258 0.737497 8.4087 0 10 0C11.9604 0 13.3873 0.879454 14.4869 2.16364C15.0716 2.84327 15.5636 3.64255 16 4.45709C16.4364 3.64255 16.9284 2.84327 17.5131 2.16236C18.6127 0.879455 20.0396 0 22 0C23.5913 0 25.1174 0.737497 26.2426 2.05025C27.3679 3.36301 28 5.14348 28 7C28 8.85651 27.3679 10.637 26.2426 11.9497C25.1174 13.2625 23.5913 14 22 14C20.0407 14 18.6127 13.1205 17.5131 11.8364C16.9284 11.1567 16.4364 10.3575 16 9.54291C15.5636 10.3575 15.0716 11.1567 14.4869 11.8376C13.3873 13.1205 11.9604 14 10 14ZM17.2491 7C17.8316 8.20527 18.3771 9.24509 19.0556 10.038C19.7975 10.9035 20.6876 11.4545 22 11.4545C22.5014 11.4545 22.9979 11.3393 23.4612 11.1155C23.9244 10.8916 24.3453 10.5635 24.6999 10.1498C25.0544 9.7362 25.3357 9.24513 25.5275 8.70468C25.7194 8.16423 25.8182 7.58498 25.8182 7C25.8182 6.41502 25.7194 5.83577 25.5275 5.29532C25.3357 4.75487 25.0544 4.2638 24.6999 3.85016C24.3453 3.43652 23.9244 3.1084 23.4612 2.88454C22.9979 2.66067 22.5014 2.54545 22 2.54545C20.6876 2.54545 19.7964 3.09782 19.0545 3.962C18.3771 4.75491 17.8316 5.79473 17.2491 7Z" fill="#661FFF"/>
</g>
<defs>
<filter id="filter0_d_1184_7819" x="0" y="0" width="32" height="22" filterUnits="userSpaceOnUse" color-interpolation-filters="sRGB">
<feFlood flood-opacity="0" result="BackgroundImageFix"/>
<feColorMatrix in="SourceAlpha" type="matrix" values="0 0 0 0 0 0 0 0 0 0 0 0 0 0 0 0 0 0 127 0" result="hardAlpha"/>
<feOffset dy="4"/>
<feGaussianBlur stdDeviation="2"/>
<feComposite in2="hardAlpha" operator="out"/>
<feColorMatrix type="matrix" values="0 0 0 0 0 0 0 0 0 0 0 0 0 0 0 0 0 0 0.25 0"/>
<feBlend mode="normal" in2="BackgroundImageFix" result="effect1_dropShadow_1184_7819"/>
<feBlend mode="normal" in="SourceGraphic" in2="effect1_dropShadow_1184_7819" result="shape"/>
</filter>
</defs>
</svg>
