<svg width="20" height="21" viewBox="0 0 20 21" fill="none" xmlns="http://www.w3.org/2000/svg">
<path d="M2.5 0C1.83696 0 1.20107 0.285483 0.732233 0.793646C0.263392 1.30181 0 1.99103 0 2.70968V7.68329C0.937706 6.42565 2.29794 5.62326 3.78147 5.45265C5.265 5.28203 6.7503 5.75716 7.91062 6.77352C9.07095 7.78987 9.81124 9.26419 9.96866 10.8721C10.1261 12.4801 9.68771 14.09 8.75 15.3476V16.2581H17.5C18.163 16.2581 18.7989 15.9726 19.2678 15.4644C19.7366 14.9563 20 14.267 20 13.5484V2.70968C20 1.99103 19.7366 1.30181 19.2678 0.793646C18.7989 0.285483 18.163 0 17.5 0H2.5ZM4.375 5.41935C4.20924 5.41935 4.05027 5.34798 3.93306 5.22094C3.81585 5.0939 3.75 4.9216 3.75 4.74194C3.75 4.56227 3.81585 4.38997 3.93306 4.26293C4.05027 4.13589 4.20924 4.06452 4.375 4.06452H15.625C15.7908 4.06452 15.9497 4.13589 16.0669 4.26293C16.1842 4.38997 16.25 4.56227 16.25 4.74194C16.25 4.9216 16.1842 5.0939 16.0669 5.22094C15.9497 5.34798 15.7908 5.41935 15.625 5.41935H4.375ZM11.25 10.1613C11.25 9.98163 11.3158 9.80932 11.4331 9.68228C11.5503 9.55524 11.7092 9.48387 11.875 9.48387H15.625C15.7908 9.48387 15.9497 9.55524 16.0669 9.68228C16.1842 9.80932 16.25 9.98163 16.25 10.1613C16.25 10.341 16.1842 10.5133 16.0669 10.6403C15.9497 10.7673 15.7908 10.8387 15.625 10.8387H11.875C11.7092 10.8387 11.5503 10.7673 11.4331 10.6403C11.3158 10.5133 11.25 10.341 11.25 10.1613ZM4.375 16.2581C3.21468 16.2581 2.10188 15.7585 1.28141 14.8692C0.460936 13.9799 0 12.7738 0 11.5161C0 10.2585 0.460936 9.05236 1.28141 8.16307C2.10188 7.27379 3.21468 6.77419 4.375 6.77419C5.53532 6.77419 6.64812 7.27379 7.46859 8.16307C8.28906 9.05236 8.75 10.2585 8.75 11.5161C8.75 12.7738 8.28906 13.9799 7.46859 14.8692C6.64812 15.7585 5.53532 16.2581 4.375 16.2581ZM1.25 16.5859C2.17506 17.2557 3.26256 17.613 4.375 17.6129C5.53125 17.6129 6.60625 17.2335 7.5 16.5859V20.3226C7.5 20.4484 7.46768 20.5717 7.40666 20.6787C7.34563 20.7857 7.25832 20.8722 7.15451 20.9285C7.05069 20.9847 6.93447 21.0086 6.81887 20.9973C6.70327 20.986 6.59286 20.94 6.5 20.8645L4.75 19.4419C4.64181 19.354 4.51023 19.3064 4.375 19.3064C4.23977 19.3064 4.10818 19.354 4 19.4419L2.25 20.8645C2.15714 20.94 2.04673 20.986 1.93113 20.9973C1.81553 21.0086 1.69931 20.9847 1.59549 20.9285C1.49168 20.8722 1.40436 20.7857 1.34334 20.6787C1.28232 20.5717 1.25 20.4484 1.25 20.3226V16.5859Z" fill="#747474"/>
</svg>
