<svg width="24" height="14" viewBox="0 0 24 14" fill="none" xmlns="http://www.w3.org/2000/svg">
<path d="M16 2.33333V11.6667H2.66667V2.33333H16ZM17.3333 0H1.33333C0.979711 0 0.640573 0.122917 0.390524 0.341709C0.140476 0.560501 0 0.857247 0 1.16667V12.8333C0 13.1428 0.140476 13.4395 0.390524 13.6583C0.640573 13.8771 0.979711 14 1.33333 14H17.3333C17.687 14 18.0261 13.8771 18.2761 13.6583C18.5262 13.4395 18.6667 13.1428 18.6667 12.8333V8.75L24 13.4167V0.583333L18.6667 5.25V1.16667C18.6667 0.857247 18.5262 0.560501 18.2761 0.341709C18.0261 0.122917 17.687 0 17.3333 0Z" fill="#747474"/>
</svg>
