<svg width="24" height="24" viewBox="0 0 24 24" fill="none" xmlns="http://www.w3.org/2000/svg">
<path fill-rule="evenodd" clip-rule="evenodd" d="M12.2175 4.12477C12.4909 3.44833 13.0015 2.89471 13.6537 2.56754C14.3058 2.24037 15.0548 2.16209 15.7606 2.34733C16.4663 2.53257 17.0803 2.96865 17.4877 3.57394C17.8951 4.17923 18.0679 4.91224 17.9738 5.63577C17.8798 6.3593 17.5253 7.02376 16.9767 7.50477C16.4281 7.98578 15.7229 8.25037 14.9933 8.24902C14.2637 8.24767 13.5596 7.98048 13.0128 7.49744C12.4659 7.01441 12.1139 6.34865 12.0225 5.62477H7.5C6.90326 5.62477 6.33097 5.86183 5.90901 6.28378C5.48705 6.70574 5.25 7.27804 5.25 7.87477C5.25 8.47151 5.48705 9.04381 5.90901 9.46576C6.33097 9.88772 6.90326 10.1248 7.5 10.1248H18C18.9946 10.1248 19.9484 10.5199 20.6516 11.2231C21.3549 11.9264 21.75 12.8802 21.75 13.8748C21.75 14.8693 21.3549 15.8232 20.6516 16.5264C19.9484 17.2297 18.9946 17.6248 18 17.6248H9.7275C9.63612 18.3486 9.28406 19.0144 8.73723 19.4974C8.19041 19.9805 7.48629 20.2477 6.75667 20.249C6.02705 20.2504 5.32195 19.9858 4.77334 19.5048C4.22473 19.0238 3.87022 18.3593 3.77616 17.6358C3.6821 16.9122 3.85494 16.1792 4.26233 15.5739C4.66972 14.9687 5.28374 14.5326 5.98945 14.3473C6.69516 14.1621 7.44419 14.2404 8.09635 14.5675C8.7485 14.8947 9.25907 15.4483 9.5325 16.1248H18C18.5967 16.1248 19.169 15.8877 19.591 15.4658C20.0129 15.0438 20.25 14.4715 20.25 13.8748C20.25 13.278 20.0129 12.7057 19.591 12.2838C19.169 11.8618 18.5967 11.6248 18 11.6248H7.5C6.50544 11.6248 5.55161 11.2297 4.84835 10.5264C4.14509 9.82316 3.75 8.86933 3.75 7.87477C3.75 6.88021 4.14509 5.92638 4.84835 5.22312C5.55161 4.51986 6.50544 4.12477 7.5 4.12477H12.2175Z" fill="#747474"/>
</svg>
