<svg width="28" height="28" viewBox="0 0 28 28" fill="none" xmlns="http://www.w3.org/2000/svg">
<path d="M14.0002 10.208C12.9946 10.208 12.0301 10.6075 11.3191 11.3186C10.608 12.0296 10.2085 12.9941 10.2085 13.9997C10.2085 15.0053 10.608 15.9697 11.3191 16.6808C12.0301 17.3919 12.9946 17.7913 14.0002 17.7913C15.0058 17.7913 15.9702 17.3919 16.6813 16.6808C17.3924 15.9697 17.7918 15.0053 17.7918 13.9997C17.7918 12.9941 17.3924 12.0296 16.6813 11.3186C15.9702 10.6075 15.0058 10.208 14.0002 10.208Z" fill="#661FFF"/>
<path fill-rule="evenodd" clip-rule="evenodd" d="M7.89823 3.59573C11.9536 3.14648 16.0462 3.14648 20.1016 3.59573C22.3171 3.84306 24.1032 5.58723 24.3634 7.81089C24.844 11.923 24.844 16.0771 24.3634 20.1892C24.1032 22.4129 22.3171 24.1571 20.1027 24.4056C16.047 24.8549 11.954 24.8549 7.89823 24.4056C5.68273 24.1571 3.89656 22.4129 3.63639 20.1904C3.15571 16.0779 3.15571 11.9234 3.63639 7.81089C3.89656 5.58723 5.68273 3.84306 7.89823 3.59573ZM19.8332 7.00006C19.5238 7.00006 19.2271 7.12298 19.0083 7.34177C18.7895 7.56056 18.6666 7.85731 18.6666 8.16673C18.6666 8.47615 18.7895 8.77289 19.0083 8.99168C19.2271 9.21048 19.5238 9.33339 19.8332 9.33339C20.1426 9.33339 20.4394 9.21048 20.6582 8.99168C20.877 8.77289 20.9999 8.47615 20.9999 8.16673C20.9999 7.85731 20.877 7.56056 20.6582 7.34177C20.4394 7.12298 20.1426 7.00006 19.8332 7.00006ZM8.45823 14.0001C8.45823 12.5303 9.04208 11.1208 10.0813 10.0815C11.1206 9.04225 12.5302 8.45839 13.9999 8.45839C15.4696 8.45839 16.8792 9.04225 17.9184 10.0815C18.9577 11.1208 19.5416 12.5303 19.5416 14.0001C19.5416 15.4698 18.9577 16.8793 17.9184 17.9186C16.8792 18.9579 15.4696 19.5417 13.9999 19.5417C12.5302 19.5417 11.1206 18.9579 10.0813 17.9186C9.04208 16.8793 8.45823 15.4698 8.45823 14.0001Z" fill="#661FFF"/>
</svg>
