<svg width="345" height="50" viewBox="0 0 345 50" fill="none" xmlns="http://www.w3.org/2000/svg">
<rect x="0.5" y="0.5" width="344" height="49" rx="12.5" fill="#EAE6FE"/>
<rect x="0.5" y="0.5" width="344" height="49" rx="12.5" stroke="#F9F9F9"/>
<path fill-rule="evenodd" clip-rule="evenodd" d="M23 15C22.2044 15 21.4413 15.3161 20.8787 15.8787C20.3161 16.4413 20 17.2044 20 18V32C20 32.7956 20.3161 33.5587 20.8787 34.1213C21.4413 34.6839 22.2044 35 23 35H29C29.7956 35 30.5587 34.6839 31.1213 34.1213C31.6839 33.5587 32 32.7956 32 32V18C32 17.2044 31.6839 16.4413 31.1213 15.8787C30.5587 15.3161 29.7956 15 29 15H23ZM33.293 20.293C33.4805 20.1055 33.7348 20.0002 34 20.0002C34.2652 20.0002 34.5195 20.1055 34.707 20.293L38.707 24.293C38.8945 24.4805 38.9998 24.7348 38.9998 25C38.9998 25.2652 38.8945 25.5195 38.707 25.707L34.707 29.707C34.5184 29.8892 34.2658 29.99 34.0036 29.9877C33.7414 29.9854 33.4906 29.8802 33.3052 29.6948C33.1198 29.5094 33.0146 29.2586 33.0123 28.9964C33.01 28.7342 33.1108 28.4816 33.293 28.293L35.586 26H27C26.7348 26 26.4804 25.8946 26.2929 25.7071C26.1054 25.5196 26 25.2652 26 25C26 24.7348 26.1054 24.4804 26.2929 24.2929C26.4804 24.1054 26.7348 24 27 24H35.586L33.293 21.707C33.1055 21.5195 33.0002 21.2652 33.0002 21C33.0002 20.7348 33.1055 20.4805 33.293 20.293Z" fill="#747474"/>
<path d="M48.596 30.5V20.7H49.632V29.604H55.12V30.5H48.596ZM59.5168 30.57C58.8074 30.57 58.1681 30.4113 57.5988 30.094C57.0388 29.7673 56.5954 29.324 56.2688 28.764C55.9421 28.1947 55.7788 27.546 55.7788 26.818C55.7788 26.0807 55.9421 25.432 56.2688 24.872C56.5954 24.312 57.0388 23.8733 57.5988 23.556C58.1588 23.2387 58.7981 23.08 59.5168 23.08C60.2448 23.08 60.8888 23.2387 61.4488 23.556C62.0181 23.8733 62.4614 24.312 62.7788 24.872C63.1054 25.432 63.2688 26.0807 63.2688 26.818C63.2688 27.546 63.1054 28.1947 62.7788 28.764C62.4614 29.324 62.0181 29.7673 61.4488 30.094C60.8794 30.4113 60.2354 30.57 59.5168 30.57ZM59.5168 29.688C60.0488 29.688 60.5201 29.5713 60.9308 29.338C61.3414 29.0953 61.6634 28.7593 61.8968 28.33C62.1394 27.8913 62.2608 27.3873 62.2608 26.818C62.2608 26.2393 62.1394 25.7353 61.8968 25.306C61.6634 24.8767 61.3414 24.5453 60.9308 24.312C60.5201 24.0693 60.0534 23.948 59.5308 23.948C59.0081 23.948 58.5414 24.0693 58.1308 24.312C57.7201 24.5453 57.3934 24.8767 57.1508 25.306C56.9081 25.7353 56.7868 26.2393 56.7868 26.818C56.7868 27.3873 56.9081 27.8913 57.1508 28.33C57.3934 28.7593 57.7201 29.0953 58.1308 29.338C58.5414 29.5713 59.0034 29.688 59.5168 29.688ZM68.4341 33.286C67.7621 33.286 67.1181 33.188 66.5021 32.992C65.8861 32.796 65.3868 32.516 65.0041 32.152L65.5081 31.396C65.8534 31.704 66.2781 31.9467 66.7821 32.124C67.2954 32.3107 67.8368 32.404 68.4061 32.404C69.3394 32.404 70.0254 32.1847 70.4641 31.746C70.9028 31.3167 71.1221 30.6447 71.1221 29.73V27.896L71.2621 26.636L71.1641 25.376V23.15H72.1161V29.604C72.1161 30.8733 71.8034 31.802 71.1781 32.39C70.5621 32.9873 69.6474 33.286 68.4341 33.286ZM68.2521 30.22C67.5521 30.22 66.9221 30.0707 66.3621 29.772C65.8021 29.464 65.3588 29.0393 65.0321 28.498C64.7148 27.9567 64.5561 27.336 64.5561 26.636C64.5561 25.936 64.7148 25.32 65.0321 24.788C65.3588 24.2467 65.8021 23.8267 66.3621 23.528C66.9221 23.2293 67.5521 23.08 68.2521 23.08C68.9054 23.08 69.4934 23.2153 70.0161 23.486C70.5388 23.7567 70.9541 24.158 71.2621 24.69C71.5701 25.222 71.7241 25.8707 71.7241 26.636C71.7241 27.4013 71.5701 28.05 71.2621 28.582C70.9541 29.114 70.5388 29.52 70.0161 29.8C69.4934 30.08 68.9054 30.22 68.2521 30.22ZM68.3501 29.338C68.8914 29.338 69.3721 29.226 69.7921 29.002C70.2121 28.7687 70.5434 28.4513 70.7861 28.05C71.0288 27.6393 71.1501 27.168 71.1501 26.636C71.1501 26.104 71.0288 25.6373 70.7861 25.236C70.5434 24.8347 70.2121 24.522 69.7921 24.298C69.3721 24.0647 68.8914 23.948 68.3501 23.948C67.8181 23.948 67.3374 24.0647 66.9081 24.298C66.4881 24.522 66.1568 24.8347 65.9141 25.236C65.6808 25.6373 65.5641 26.104 65.5641 26.636C65.5641 27.168 65.6808 27.6393 65.9141 28.05C66.1568 28.4513 66.4881 28.7687 66.9081 29.002C67.3374 29.226 67.8181 29.338 68.3501 29.338ZM81.5422 30.57C80.8328 30.57 80.1935 30.4113 79.6242 30.094C79.0642 29.7673 78.6208 29.324 78.2942 28.764C77.9675 28.1947 77.8042 27.546 77.8042 26.818C77.8042 26.0807 77.9675 25.432 78.2942 24.872C78.6208 24.312 79.0642 23.8733 79.6242 23.556C80.1842 23.2387 80.8235 23.08 81.5422 23.08C82.2702 23.08 82.9142 23.2387 83.4742 23.556C84.0435 23.8733 84.4868 24.312 84.8042 24.872C85.1308 25.432 85.2942 26.0807 85.2942 26.818C85.2942 27.546 85.1308 28.1947 84.8042 28.764C84.4868 29.324 84.0435 29.7673 83.4742 30.094C82.9048 30.4113 82.2608 30.57 81.5422 30.57ZM81.5422 29.688C82.0742 29.688 82.5455 29.5713 82.9562 29.338C83.3668 29.0953 83.6888 28.7593 83.9222 28.33C84.1648 27.8913 84.2862 27.3873 84.2862 26.818C84.2862 26.2393 84.1648 25.7353 83.9222 25.306C83.6888 24.8767 83.3668 24.5453 82.9562 24.312C82.5455 24.0693 82.0788 23.948 81.5562 23.948C81.0335 23.948 80.5668 24.0693 80.1562 24.312C79.7455 24.5453 79.4188 24.8767 79.1762 25.306C78.9335 25.7353 78.8122 26.2393 78.8122 26.818C78.8122 27.3873 78.9335 27.8913 79.1762 28.33C79.4188 28.7593 79.7455 29.0953 80.1562 29.338C80.5668 29.5713 81.0288 29.688 81.5422 29.688ZM90.3615 30.57C89.7362 30.57 89.1902 30.4533 88.7235 30.22C88.2568 29.9867 87.8928 29.6367 87.6315 29.17C87.3795 28.7033 87.2535 28.12 87.2535 27.42V23.15H88.2475V27.308C88.2475 28.092 88.4388 28.6847 88.8215 29.086C89.2135 29.478 89.7595 29.674 90.4595 29.674C90.9728 29.674 91.4162 29.5713 91.7895 29.366C92.1722 29.1513 92.4615 28.8433 92.6575 28.442C92.8628 28.0407 92.9655 27.56 92.9655 27V23.15H93.9595V30.5H93.0075V28.484L93.1615 28.848C92.9282 29.3893 92.5642 29.814 92.0695 30.122C91.5842 30.4207 91.0148 30.57 90.3615 30.57ZM99.0538 30.57C98.3631 30.57 97.8311 30.3833 97.4578 30.01C97.0844 29.6367 96.8978 29.1093 96.8978 28.428V21.526H97.8918V28.372C97.8918 28.8013 97.9991 29.1327 98.2138 29.366C98.4378 29.5993 98.7551 29.716 99.1658 29.716C99.6044 29.716 99.9684 29.59 100.258 29.338L100.608 30.052C100.412 30.2293 100.174 30.36 99.8938 30.444C99.6231 30.528 99.3431 30.57 99.0538 30.57ZM95.5818 23.976V23.15H100.132V23.976H95.5818Z" fill="#1F1F1F"/>
<path d="M320.6 24.9998L316.7 21.0998C316.516 20.9165 316.425 20.6831 316.425 20.3998C316.425 20.1165 316.516 19.8831 316.7 19.6998C316.883 19.5165 317.116 19.4248 317.4 19.4248C317.683 19.4248 317.916 19.5165 318.1 19.6998L322.7 24.2998C322.8 24.3998 322.871 24.5081 322.912 24.6248C322.954 24.7415 322.975 24.8665 322.975 24.9998C322.975 25.1331 322.954 25.2581 322.912 25.3748C322.871 25.4915 322.8 25.5998 322.7 25.6998L318.1 30.2998C317.916 30.4831 317.683 30.5748 317.4 30.5748C317.116 30.5748 316.883 30.4831 316.7 30.2998C316.516 30.1165 316.425 29.8831 316.425 29.5998C316.425 29.3165 316.516 29.0831 316.7 28.8998L320.6 24.9998Z" fill="#B2B2B2"/>
</svg>
