<svg width="54" height="54" viewBox="0 0 54 54" fill="none" xmlns="http://www.w3.org/2000/svg">
<path d="M27 1C41.3594 1 53 12.6406 53 27C53 41.3594 41.3594 53 27 53C12.6406 53 1 41.3594 1 27C1 12.6406 12.6406 1 27 1Z" stroke="#FF383C" stroke-width="2"/>
<path d="M26.2843 14.3037C25.6754 14.3037 25.1186 14.8212 25.1593 15.4287L25.7218 30.6162C25.7218 30.7654 25.7811 30.9085 25.8866 31.014C25.9921 31.1194 26.1352 31.1787 26.2843 31.1787C26.4335 31.1787 26.5766 31.1194 26.6821 31.014C26.7876 30.9085 26.8468 30.7654 26.8468 30.6162L27.4093 15.4287C27.4501 14.8212 26.8932 14.3037 26.2843 14.3037Z" stroke="#FF383C" stroke-width="2" stroke-linecap="round" stroke-linejoin="round"/>
<path d="M26.2842 39.0537C26.9055 39.0537 27.4092 38.55 27.4092 37.9287C27.4092 37.3074 26.9055 36.8037 26.2842 36.8037C25.6629 36.8037 25.1592 37.3074 25.1592 37.9287C25.1592 38.55 25.6629 39.0537 26.2842 39.0537Z" stroke="#FF383C" stroke-width="2" stroke-linecap="round" stroke-linejoin="round"/>
</svg>
