<svg width="411" height="186" viewBox="0 0 411 186" fill="none" xmlns="http://www.w3.org/2000/svg">
<g clip-path="url(#clip0_1184_7887)">
<rect width="411" height="202" rx="20" fill="#F3F3F3"/>
<line x1="-1.5" y1="24" x2="412.5" y2="24" stroke="#F5F5F7"/>
<line x1="182.5" y1="42.5" x2="228.5" y2="42.5" stroke="#747474" stroke-width="4" stroke-linecap="round"/>
<path d="M32.416 80.5L36.928 70.292L37.6 71.412H31.568L32.72 70.196V73.236H30.416V69.3H39.392V70.98L35.232 80.5H32.416ZM49.1411 80.5L44.3091 69.3H47.1091L51.3331 79.22H49.6851L53.9731 69.3H56.5491L51.7011 80.5H49.1411ZM57.4489 80.5V71.892H59.9449V80.5H57.4489ZM58.6969 70.692C58.2382 70.692 57.8649 70.5587 57.5769 70.292C57.2889 70.0253 57.1449 69.6947 57.1449 69.3C57.1449 68.9053 57.2889 68.5747 57.5769 68.308C57.8649 68.0413 58.2382 67.908 58.6969 67.908C59.1555 67.908 59.5289 68.036 59.8169 68.292C60.1049 68.5373 60.2489 68.8573 60.2489 69.252C60.2489 69.668 60.1049 70.0147 59.8169 70.292C59.5395 70.5587 59.1662 70.692 58.6969 70.692ZM65.9574 80.628C65.1467 80.628 64.416 80.4467 63.7654 80.084C63.1147 79.7107 62.5974 79.1933 62.2134 78.532C61.84 77.8707 61.6534 77.092 61.6534 76.196C61.6534 75.2893 61.84 74.5053 62.2134 73.844C62.5974 73.1827 63.1147 72.6707 63.7654 72.308C64.416 71.9453 65.1467 71.764 65.9574 71.764C66.6827 71.764 67.3174 71.924 67.8614 72.244C68.4054 72.564 68.8267 73.0493 69.1254 73.7C69.424 74.3507 69.5734 75.1827 69.5734 76.196C69.5734 77.1987 69.4294 78.0307 69.1414 78.692C68.8534 79.3427 68.4374 79.828 67.8934 80.148C67.36 80.468 66.7147 80.628 65.9574 80.628ZM66.3894 78.58C66.7947 78.58 67.1627 78.484 67.4934 78.292C67.824 78.1 68.0854 77.828 68.2774 77.476C68.48 77.1133 68.5814 76.6867 68.5814 76.196C68.5814 75.6947 68.48 75.268 68.2774 74.916C68.0854 74.564 67.824 74.292 67.4934 74.1C67.1627 73.908 66.7947 73.812 66.3894 73.812C65.9734 73.812 65.6 73.908 65.2694 74.1C64.9387 74.292 64.672 74.564 64.4694 74.916C64.2774 75.268 64.1814 75.6947 64.1814 76.196C64.1814 76.6867 64.2774 77.1133 64.4694 77.476C64.672 77.828 64.9387 78.1 65.2694 78.292C65.6 78.484 65.9734 78.58 66.3894 78.58ZM68.6454 80.5V78.74L68.6934 76.18L68.5334 73.636V68.628H71.0294V80.5H68.6454ZM77.6115 80.628C76.6302 80.628 75.7662 80.436 75.0195 80.052C74.2835 79.668 73.7128 79.1453 73.3075 78.484C72.9022 77.812 72.6995 77.0493 72.6995 76.196C72.6995 75.332 72.8968 74.5693 73.2915 73.908C73.6968 73.236 74.2462 72.7133 74.9395 72.34C75.6328 71.956 76.4168 71.764 77.2915 71.764C78.1342 71.764 78.8915 71.9453 79.5635 72.308C80.2462 72.66 80.7848 73.172 81.1795 73.844C81.5742 74.5053 81.7715 75.3 81.7715 76.228C81.7715 76.324 81.7662 76.436 81.7555 76.564C81.7448 76.6813 81.7342 76.7933 81.7235 76.9H74.7315V75.444H80.4115L79.4515 75.876C79.4515 75.428 79.3608 75.0387 79.1795 74.708C78.9982 74.3773 78.7475 74.1213 78.4275 73.94C78.1075 73.748 77.7342 73.652 77.3075 73.652C76.8808 73.652 76.5022 73.748 76.1715 73.94C75.8515 74.1213 75.6008 74.3827 75.4195 74.724C75.2382 75.0547 75.1475 75.4493 75.1475 75.908V76.292C75.1475 76.7613 75.2488 77.1773 75.4515 77.54C75.6648 77.892 75.9582 78.164 76.3315 78.356C76.7155 78.5373 77.1635 78.628 77.6755 78.628C78.1342 78.628 78.5342 78.5587 78.8755 78.42C79.2275 78.2813 79.5475 78.0733 79.8355 77.796L81.1635 79.236C80.7688 79.684 80.2728 80.0307 79.6755 80.276C79.0782 80.5107 78.3902 80.628 77.6115 80.628ZM87.5293 80.628C86.6119 80.628 85.7959 80.436 85.0813 80.052C84.3773 79.668 83.8173 79.1453 83.4013 78.484C82.9959 77.812 82.7933 77.0493 82.7933 76.196C82.7933 75.332 82.9959 74.5693 83.4013 73.908C83.8173 73.236 84.3773 72.7133 85.0813 72.34C85.7959 71.956 86.6119 71.764 87.5293 71.764C88.4359 71.764 89.2466 71.956 89.9613 72.34C90.6759 72.7133 91.2359 73.2307 91.6413 73.892C92.0466 74.5533 92.2493 75.3213 92.2493 76.196C92.2493 77.0493 92.0466 77.812 91.6413 78.484C91.2359 79.1453 90.6759 79.668 89.9613 80.052C89.2466 80.436 88.4359 80.628 87.5293 80.628ZM87.5293 78.58C87.9453 78.58 88.3186 78.484 88.6493 78.292C88.9799 78.1 89.2413 77.828 89.4333 77.476C89.6253 77.1133 89.7213 76.6867 89.7213 76.196C89.7213 75.6947 89.6253 75.268 89.4333 74.916C89.2413 74.564 88.9799 74.292 88.6493 74.1C88.3186 73.908 87.9453 73.812 87.5293 73.812C87.1133 73.812 86.7399 73.908 86.4093 74.1C86.0786 74.292 85.8119 74.564 85.6093 74.916C85.4173 75.268 85.3213 75.6947 85.3213 76.196C85.3213 76.6867 85.4173 77.1133 85.6093 77.476C85.8119 77.828 86.0786 78.1 86.4093 78.292C86.7399 78.484 87.1133 78.58 87.5293 78.58Z" fill="#141522"/>
<path d="M311.71 80.084C310.954 80.084 310.282 79.888 309.694 79.496C309.106 79.0947 308.644 78.5253 308.308 77.788C307.972 77.0413 307.804 76.1453 307.804 75.1C307.804 74.0547 307.972 73.1633 308.308 72.426C308.644 71.6793 309.106 71.11 309.694 70.718C310.282 70.3167 310.954 70.116 311.71 70.116C312.466 70.116 313.138 70.3167 313.726 70.718C314.314 71.11 314.776 71.6793 315.112 72.426C315.458 73.1633 315.63 74.0547 315.63 75.1C315.63 76.1453 315.458 77.0413 315.112 77.788C314.776 78.5253 314.314 79.0947 313.726 79.496C313.138 79.888 312.466 80.084 311.71 80.084ZM311.71 79.16C312.289 79.16 312.793 79.006 313.222 78.698C313.652 78.3807 313.988 77.9233 314.23 77.326C314.473 76.7193 314.594 75.9773 314.594 75.1C314.594 74.2227 314.473 73.4853 314.23 72.888C313.988 72.2813 313.652 71.824 313.222 71.516C312.793 71.1987 312.289 71.04 311.71 71.04C311.15 71.04 310.651 71.1987 310.212 71.516C309.774 71.824 309.433 72.2813 309.19 72.888C308.948 73.4853 308.826 74.2227 308.826 75.1C308.826 75.9773 308.948 76.7193 309.19 77.326C309.433 77.9233 309.774 78.3807 310.212 78.698C310.651 79.006 311.15 79.16 311.71 79.16ZM315.722 81.4L320.342 68.212H321.252L316.632 81.4H315.722ZM323.417 80L327.645 70.648L327.953 71.096H321.891L322.409 70.606V72.93H321.415V70.2H328.611V70.914L324.509 80H323.417ZM337.173 80.084C336.445 80.084 335.745 79.9673 335.073 79.734C334.41 79.4913 333.897 79.1833 333.533 78.81L333.939 78.012C334.284 78.348 334.746 78.6327 335.325 78.866C335.913 79.09 336.529 79.202 337.173 79.202C337.789 79.202 338.288 79.1273 338.671 78.978C339.063 78.8193 339.348 78.6093 339.525 78.348C339.712 78.0867 339.805 77.7973 339.805 77.48C339.805 77.0973 339.693 76.7893 339.469 76.556C339.254 76.3227 338.97 76.1407 338.615 76.01C338.26 75.87 337.868 75.7487 337.439 75.646C337.01 75.5433 336.58 75.436 336.151 75.324C335.722 75.2027 335.325 75.044 334.961 74.848C334.606 74.652 334.317 74.3953 334.093 74.078C333.878 73.7513 333.771 73.3267 333.771 72.804C333.771 72.3187 333.897 71.8753 334.149 71.474C334.41 71.0633 334.807 70.7367 335.339 70.494C335.871 70.242 336.552 70.116 337.383 70.116C337.934 70.116 338.48 70.1953 339.021 70.354C339.562 70.5033 340.029 70.7133 340.421 70.984L340.071 71.81C339.651 71.53 339.203 71.3247 338.727 71.194C338.26 71.0633 337.808 70.998 337.369 70.998C336.781 70.998 336.296 71.0773 335.913 71.236C335.53 71.3947 335.246 71.6093 335.059 71.88C334.882 72.1413 334.793 72.44 334.793 72.776C334.793 73.1587 334.9 73.4667 335.115 73.7C335.339 73.9333 335.628 74.1153 335.983 74.246C336.347 74.3767 336.744 74.4933 337.173 74.596C337.602 74.6987 338.027 74.8107 338.447 74.932C338.876 75.0533 339.268 75.212 339.623 75.408C339.987 75.5947 340.276 75.8467 340.491 76.164C340.715 76.4813 340.827 76.8967 340.827 77.41C340.827 77.886 340.696 78.3293 340.435 78.74C340.174 79.1413 339.772 79.468 339.231 79.72C338.699 79.9627 338.013 80.084 337.173 80.084ZM345.996 80.07C345.231 80.07 344.559 79.9113 343.98 79.594C343.402 79.2673 342.949 78.824 342.622 78.264C342.296 77.6947 342.132 77.046 342.132 76.318C342.132 75.59 342.286 74.946 342.594 74.386C342.912 73.826 343.341 73.3873 343.882 73.07C344.433 72.7433 345.049 72.58 345.73 72.58C346.421 72.58 347.032 72.7387 347.564 73.056C348.106 73.364 348.53 73.8027 348.838 74.372C349.146 74.932 349.3 75.5807 349.3 76.318C349.3 76.3647 349.296 76.416 349.286 76.472C349.286 76.5187 349.286 76.57 349.286 76.626H342.888V75.884H348.754L348.362 76.178C348.362 75.646 348.246 75.1747 348.012 74.764C347.788 74.344 347.48 74.0173 347.088 73.784C346.696 73.5507 346.244 73.434 345.73 73.434C345.226 73.434 344.774 73.5507 344.372 73.784C343.971 74.0173 343.658 74.344 343.434 74.764C343.21 75.184 343.098 75.6647 343.098 76.206V76.36C343.098 76.92 343.22 77.4147 343.462 77.844C343.714 78.264 344.06 78.5953 344.498 78.838C344.946 79.0713 345.455 79.188 346.024 79.188C346.472 79.188 346.888 79.1087 347.27 78.95C347.662 78.7913 347.998 78.5487 348.278 78.222L348.838 78.866C348.512 79.258 348.101 79.5567 347.606 79.762C347.121 79.9673 346.584 80.07 345.996 80.07ZM351.324 80V69.612H352.318V80H351.324ZM358.205 80.07C357.44 80.07 356.768 79.9113 356.189 79.594C355.611 79.2673 355.158 78.824 354.831 78.264C354.505 77.6947 354.341 77.046 354.341 76.318C354.341 75.59 354.495 74.946 354.803 74.386C355.121 73.826 355.55 73.3873 356.091 73.07C356.642 72.7433 357.258 72.58 357.939 72.58C358.63 72.58 359.241 72.7387 359.773 73.056C360.315 73.364 360.739 73.8027 361.047 74.372C361.355 74.932 361.509 75.5807 361.509 76.318C361.509 76.3647 361.505 76.416 361.495 76.472C361.495 76.5187 361.495 76.57 361.495 76.626H355.097V75.884H360.963L360.571 76.178C360.571 75.646 360.455 75.1747 360.221 74.764C359.997 74.344 359.689 74.0173 359.297 73.784C358.905 73.5507 358.453 73.434 357.939 73.434C357.435 73.434 356.983 73.5507 356.581 73.784C356.18 74.0173 355.867 74.344 355.643 74.764C355.419 75.184 355.307 75.6647 355.307 76.206V76.36C355.307 76.92 355.429 77.4147 355.671 77.844C355.923 78.264 356.269 78.5953 356.707 78.838C357.155 79.0713 357.664 79.188 358.233 79.188C358.681 79.188 359.097 79.1087 359.479 78.95C359.871 78.7913 360.207 78.5487 360.487 78.222L361.047 78.866C360.721 79.258 360.31 79.5567 359.815 79.762C359.33 79.9673 358.793 80.07 358.205 80.07ZM365.506 80.07C364.9 80.07 364.326 79.986 363.784 79.818C363.243 79.6407 362.818 79.4213 362.51 79.16L362.958 78.376C363.257 78.6 363.64 78.796 364.106 78.964C364.573 79.1227 365.063 79.202 365.576 79.202C366.276 79.202 366.78 79.0947 367.088 78.88C367.396 78.656 367.55 78.362 367.55 77.998C367.55 77.7273 367.462 77.5173 367.284 77.368C367.116 77.2093 366.892 77.0927 366.612 77.018C366.332 76.934 366.02 76.864 365.674 76.808C365.329 76.752 364.984 76.6867 364.638 76.612C364.302 76.5373 363.994 76.43 363.714 76.29C363.434 76.1407 363.206 75.94 363.028 75.688C362.86 75.436 362.776 75.1 362.776 74.68C362.776 74.2787 362.888 73.9193 363.112 73.602C363.336 73.2847 363.663 73.0373 364.092 72.86C364.531 72.6733 365.063 72.58 365.688 72.58C366.164 72.58 366.64 72.6453 367.116 72.776C367.592 72.8973 367.984 73.0607 368.292 73.266L367.858 74.064C367.532 73.84 367.182 73.6813 366.808 73.588C366.435 73.4853 366.062 73.434 365.688 73.434C365.026 73.434 364.536 73.5507 364.218 73.784C363.91 74.008 363.756 74.2973 363.756 74.652C363.756 74.932 363.84 75.1513 364.008 75.31C364.186 75.4687 364.414 75.5947 364.694 75.688C364.984 75.772 365.296 75.842 365.632 75.898C365.978 75.954 366.318 76.024 366.654 76.108C367 76.1827 367.312 76.29 367.592 76.43C367.882 76.5607 368.11 76.752 368.278 77.004C368.456 77.2467 368.544 77.5687 368.544 77.97C368.544 78.3993 368.423 78.7727 368.18 79.09C367.947 79.398 367.602 79.6407 367.144 79.818C366.696 79.986 366.15 80.07 365.506 80.07ZM374.974 80V78.376L374.932 78.11V75.394C374.932 74.7687 374.755 74.288 374.4 73.952C374.055 73.616 373.537 73.448 372.846 73.448C372.37 73.448 371.918 73.5273 371.488 73.686C371.059 73.8447 370.695 74.0547 370.396 74.316L369.948 73.574C370.322 73.2567 370.77 73.014 371.292 72.846C371.815 72.6687 372.366 72.58 372.944 72.58C373.896 72.58 374.629 72.818 375.142 73.294C375.665 73.7607 375.926 74.4747 375.926 75.436V80H374.974ZM372.44 80.07C371.89 80.07 371.409 79.9813 370.998 79.804C370.597 79.6173 370.289 79.3653 370.074 79.048C369.86 78.7213 369.752 78.348 369.752 77.928C369.752 77.5453 369.841 77.2 370.018 76.892C370.205 76.5747 370.504 76.3227 370.914 76.136C371.334 75.94 371.894 75.842 372.594 75.842H375.128V76.584H372.622C371.913 76.584 371.418 76.71 371.138 76.962C370.868 77.214 370.732 77.5267 370.732 77.9C370.732 78.32 370.896 78.656 371.222 78.908C371.549 79.16 372.006 79.286 372.594 79.286C373.154 79.286 373.635 79.16 374.036 78.908C374.447 78.6467 374.746 78.2733 374.932 77.788L375.156 78.474C374.97 78.9593 374.643 79.3467 374.176 79.636C373.719 79.9253 373.14 80.07 372.44 80.07ZM378.626 80V72.65H379.62V80H378.626ZM379.13 71.026C378.925 71.026 378.752 70.956 378.612 70.816C378.472 70.676 378.402 70.508 378.402 70.312C378.402 70.116 378.472 69.9527 378.612 69.822C378.752 69.682 378.925 69.612 379.13 69.612C379.336 69.612 379.508 69.6773 379.648 69.808C379.788 69.9387 379.858 70.102 379.858 70.298C379.858 70.5033 379.788 70.676 379.648 70.816C379.518 70.956 379.345 71.026 379.13 71.026Z" fill="#9C9CA4"/>
<rect x="36.5" y="104.5" width="338" height="43" rx="21.5" fill="#661FFF"/>
<path d="M171.115 131.5V121.7H175.903C177.135 121.7 178.059 121.933 178.675 122.4C179.3 122.867 179.613 123.483 179.613 124.248C179.613 124.761 179.487 125.209 179.235 125.592C178.983 125.965 178.638 126.255 178.199 126.46C177.76 126.665 177.256 126.768 176.687 126.768L176.953 126.194C177.569 126.194 178.115 126.297 178.591 126.502C179.067 126.698 179.436 126.992 179.697 127.384C179.968 127.776 180.103 128.257 180.103 128.826C180.103 129.666 179.772 130.324 179.109 130.8C178.446 131.267 177.471 131.5 176.183 131.5H171.115ZM173.369 129.792H176.015C176.603 129.792 177.046 129.699 177.345 129.512C177.653 129.316 177.807 129.008 177.807 128.588C177.807 128.177 177.653 127.874 177.345 127.678C177.046 127.473 176.603 127.37 176.015 127.37H173.201V125.718H175.623C176.174 125.718 176.594 125.625 176.883 125.438C177.182 125.242 177.331 124.948 177.331 124.556C177.331 124.173 177.182 123.889 176.883 123.702C176.594 123.506 176.174 123.408 175.623 123.408H173.369V129.792ZM185.404 131.612C184.546 131.612 183.79 131.444 183.136 131.108C182.492 130.772 181.993 130.315 181.638 129.736C181.284 129.148 181.106 128.481 181.106 127.734C181.106 126.978 181.279 126.311 181.624 125.732C181.979 125.144 182.46 124.687 183.066 124.36C183.673 124.024 184.359 123.856 185.124 123.856C185.862 123.856 186.524 124.015 187.112 124.332C187.71 124.64 188.181 125.088 188.526 125.676C188.872 126.255 189.044 126.95 189.044 127.762C189.044 127.846 189.04 127.944 189.03 128.056C189.021 128.159 189.012 128.257 189.002 128.35H182.884V127.076H187.854L187.014 127.454C187.014 127.062 186.935 126.721 186.776 126.432C186.618 126.143 186.398 125.919 186.118 125.76C185.838 125.592 185.512 125.508 185.138 125.508C184.765 125.508 184.434 125.592 184.144 125.76C183.864 125.919 183.645 126.147 183.486 126.446C183.328 126.735 183.248 127.081 183.248 127.482V127.818C183.248 128.229 183.337 128.593 183.514 128.91C183.701 129.218 183.958 129.456 184.284 129.624C184.62 129.783 185.012 129.862 185.46 129.862C185.862 129.862 186.212 129.801 186.51 129.68C186.818 129.559 187.098 129.377 187.35 129.134L188.512 130.394C188.167 130.786 187.733 131.089 187.21 131.304C186.688 131.509 186.086 131.612 185.404 131.612ZM190.498 131.5V121.112H192.682V131.5H190.498ZM194.709 131.5V123.968H196.893V131.5H194.709ZM195.801 122.918C195.4 122.918 195.073 122.801 194.821 122.568C194.569 122.335 194.443 122.045 194.443 121.7C194.443 121.355 194.569 121.065 194.821 120.832C195.073 120.599 195.4 120.482 195.801 120.482C196.203 120.482 196.529 120.594 196.781 120.818C197.033 121.033 197.159 121.313 197.159 121.658C197.159 122.022 197.033 122.325 196.781 122.568C196.539 122.801 196.212 122.918 195.801 122.918ZM205.069 129.26L204.943 126.642L209.633 121.7H212.153L207.925 126.25L206.665 127.594L205.069 129.26ZM203.039 131.5V121.7H205.293V131.5H203.039ZM209.745 131.5L206.259 127.23L207.743 125.62L212.391 131.5H209.745ZM216.672 131.612C215.813 131.612 215.057 131.444 214.404 131.108C213.76 130.772 213.26 130.315 212.906 129.736C212.551 129.148 212.374 128.481 212.374 127.734C212.374 126.978 212.546 126.311 212.892 125.732C213.246 125.144 213.727 124.687 214.334 124.36C214.94 124.024 215.626 123.856 216.392 123.856C217.129 123.856 217.792 124.015 218.38 124.332C218.977 124.64 219.448 125.088 219.794 125.676C220.139 126.255 220.312 126.95 220.312 127.762C220.312 127.846 220.307 127.944 220.298 128.056C220.288 128.159 220.279 128.257 220.27 128.35H214.152V127.076H219.122L218.282 127.454C218.282 127.062 218.202 126.721 218.044 126.432C217.885 126.143 217.666 125.919 217.386 125.76C217.106 125.592 216.779 125.508 216.406 125.508C216.032 125.508 215.701 125.592 215.412 125.76C215.132 125.919 214.912 126.147 214.754 126.446C214.595 126.735 214.516 127.081 214.516 127.482V127.818C214.516 128.229 214.604 128.593 214.782 128.91C214.968 129.218 215.225 129.456 215.552 129.624C215.888 129.783 216.28 129.862 216.728 129.862C217.129 129.862 217.479 129.801 217.778 129.68C218.086 129.559 218.366 129.377 218.618 129.134L219.78 130.394C219.434 130.786 219 131.089 218.478 131.304C217.955 131.509 217.353 131.612 216.672 131.612ZM221.766 131.5V121.112H223.95V131.5H221.766ZM230.597 131.5V130.03L230.457 129.708V127.076C230.457 126.609 230.312 126.245 230.023 125.984C229.743 125.723 229.309 125.592 228.721 125.592C228.319 125.592 227.923 125.657 227.531 125.788C227.148 125.909 226.821 126.077 226.551 126.292L225.767 124.766C226.177 124.477 226.672 124.253 227.251 124.094C227.829 123.935 228.417 123.856 229.015 123.856C230.163 123.856 231.054 124.127 231.689 124.668C232.323 125.209 232.641 126.054 232.641 127.202V131.5H230.597ZM228.301 131.612C227.713 131.612 227.209 131.514 226.789 131.318C226.369 131.113 226.047 130.837 225.823 130.492C225.599 130.147 225.487 129.759 225.487 129.33C225.487 128.882 225.594 128.49 225.809 128.154C226.033 127.818 226.383 127.557 226.859 127.37C227.335 127.174 227.955 127.076 228.721 127.076H230.723V128.35H228.959C228.445 128.35 228.091 128.434 227.895 128.602C227.708 128.77 227.615 128.98 227.615 129.232C227.615 129.512 227.722 129.736 227.937 129.904C228.161 130.063 228.464 130.142 228.847 130.142C229.211 130.142 229.537 130.058 229.827 129.89C230.116 129.713 230.326 129.456 230.457 129.12L230.793 130.128C230.634 130.613 230.345 130.982 229.925 131.234C229.505 131.486 228.963 131.612 228.301 131.612ZM237.151 131.612C236.507 131.612 235.887 131.537 235.289 131.388C234.701 131.229 234.235 131.033 233.889 130.8L234.617 129.232C234.963 129.447 235.369 129.624 235.835 129.764C236.311 129.895 236.778 129.96 237.235 129.96C237.739 129.96 238.094 129.899 238.299 129.778C238.514 129.657 238.621 129.489 238.621 129.274C238.621 129.097 238.537 128.966 238.369 128.882C238.211 128.789 237.996 128.719 237.725 128.672C237.455 128.625 237.156 128.579 236.829 128.532C236.512 128.485 236.19 128.425 235.863 128.35C235.537 128.266 235.238 128.145 234.967 127.986C234.697 127.827 234.477 127.613 234.309 127.342C234.151 127.071 234.071 126.721 234.071 126.292C234.071 125.816 234.207 125.396 234.477 125.032C234.757 124.668 235.159 124.383 235.681 124.178C236.204 123.963 236.829 123.856 237.557 123.856C238.071 123.856 238.593 123.912 239.125 124.024C239.657 124.136 240.101 124.299 240.455 124.514L239.727 126.068C239.363 125.853 238.995 125.709 238.621 125.634C238.257 125.55 237.903 125.508 237.557 125.508C237.072 125.508 236.717 125.573 236.493 125.704C236.269 125.835 236.157 126.003 236.157 126.208C236.157 126.395 236.237 126.535 236.395 126.628C236.563 126.721 236.783 126.796 237.053 126.852C237.324 126.908 237.618 126.959 237.935 127.006C238.262 127.043 238.589 127.104 238.915 127.188C239.242 127.272 239.536 127.393 239.797 127.552C240.068 127.701 240.287 127.911 240.455 128.182C240.623 128.443 240.707 128.789 240.707 129.218C240.707 129.685 240.567 130.1 240.287 130.464C240.007 130.819 239.601 131.099 239.069 131.304C238.547 131.509 237.907 131.612 237.151 131.612Z" fill="#EFEFEF"/>
</g>
<rect x="0.5" y="0.5" width="410" height="201" rx="19.5" stroke="black" stroke-opacity="0.15"/>
<defs>
<clipPath id="clip0_1184_7887">
<rect width="411" height="202" rx="20" fill="white"/>
</clipPath>
</defs>
</svg>
