<svg width="40" height="40" viewBox="0 0 40 40" fill="none" xmlns="http://www.w3.org/2000/svg">
<rect width="40" height="40" rx="10" fill="#F5F5F5"/>
<rect x="0.5" y="0.5" width="39" height="39" rx="9.5" stroke="#1E1E1E" stroke-opacity="0.15"/>
<path d="M13.25 19.25H28.25C28.4489 19.25 28.6397 19.329 28.7803 19.4697C28.921 19.6103 29 19.8011 29 20C29 20.1989 28.921 20.3897 28.7803 20.5303C28.6397 20.671 28.4489 20.75 28.25 20.75H13.25C13.0511 20.75 12.8603 20.671 12.7197 20.5303C12.579 20.3897 12.5 20.1989 12.5 20C12.5 19.8011 12.579 19.6103 12.7197 19.4697C12.8603 19.329 13.0511 19.25 13.25 19.25Z" fill="black"/>
<path d="M13.5605 20L19.781 26.219C19.9218 26.3598 20.0009 26.5508 20.0009 26.75C20.0009 26.9491 19.9218 27.1401 19.781 27.281C19.6402 27.4218 19.4492 27.5009 19.25 27.5009C19.0508 27.5009 18.8598 27.4218 18.719 27.281L11.969 20.531C11.8992 20.4613 11.8437 20.3785 11.8059 20.2874C11.7681 20.1963 11.7487 20.0986 11.7487 20C11.7487 19.9013 11.7681 19.8036 11.8059 19.7125C11.8437 19.6214 11.8992 19.5386 11.969 19.469L18.719 12.719C18.8598 12.5781 19.0508 12.499 19.25 12.499C19.4492 12.499 19.6402 12.5781 19.781 12.719C19.9218 12.8598 20.0009 13.0508 20.0009 13.25C20.0009 13.4491 19.9218 13.6401 19.781 13.781L13.5605 20Z" fill="black"/>
</svg>
