<svg width="349" height="40" viewBox="0 0 349 40" fill="none" xmlns="http://www.w3.org/2000/svg">
<rect width="349" height="40" rx="8" fill="#747474" fill-opacity="0.05"/>
<g clip-path="url(#clip0_1166_6412)">
<path d="M19.7656 24.9599C23.1866 24.9599 25.9599 22.1866 25.9599 18.7656C25.9599 15.3446 23.1866 12.5713 19.7656 12.5713C16.3446 12.5713 13.5713 15.3446 13.5713 18.7656C13.5713 22.1866 16.3446 24.9599 19.7656 24.9599Z" stroke="#747474" stroke-linecap="round" stroke-linejoin="round"/>
<path d="M28.4283 27.4283L24.1426 23.1426" stroke="#747474" stroke-linecap="round" stroke-linejoin="round"/>
</g>
<path d="M44.852 25.584C44.1147 25.584 43.4333 25.4627 42.808 25.22C42.1827 24.968 41.6413 24.618 41.184 24.17C40.7267 23.722 40.3673 23.1947 40.106 22.588C39.854 21.9813 39.728 21.3187 39.728 20.6C39.728 19.8813 39.854 19.2187 40.106 18.612C40.3673 18.0053 40.7267 17.478 41.184 17.03C41.6507 16.582 42.1967 16.2367 42.822 15.994C43.4473 15.742 44.1287 15.616 44.866 15.616C45.5753 15.616 46.2427 15.7373 46.868 15.98C47.4933 16.2133 48.0207 16.568 48.45 17.044L47.792 17.702C47.3907 17.2913 46.9473 16.9973 46.462 16.82C45.9767 16.6333 45.454 16.54 44.894 16.54C44.306 16.54 43.76 16.6427 43.256 16.848C42.752 17.044 42.3133 17.3287 41.94 17.702C41.5667 18.066 41.2727 18.4953 41.058 18.99C40.8527 19.4753 40.75 20.012 40.75 20.6C40.75 21.188 40.8527 21.7293 41.058 22.224C41.2727 22.7093 41.5667 23.1387 41.94 23.512C42.3133 23.876 42.752 24.1607 43.256 24.366C43.76 24.562 44.306 24.66 44.894 24.66C45.454 24.66 45.9767 24.5667 46.462 24.38C46.9473 24.1933 47.3907 23.8947 47.792 23.484L48.45 24.142C48.0207 24.618 47.4933 24.9773 46.868 25.22C46.2427 25.4627 45.5707 25.584 44.852 25.584ZM54.9451 25.5V23.876L54.9031 23.61V20.894C54.9031 20.2687 54.7258 19.788 54.3711 19.452C54.0258 19.116 53.5078 18.948 52.8171 18.948C52.3411 18.948 51.8885 19.0273 51.4591 19.186C51.0298 19.3447 50.6658 19.5547 50.3671 19.816L49.9191 19.074C50.2925 18.7567 50.7405 18.514 51.2631 18.346C51.7858 18.1687 52.3365 18.08 52.9151 18.08C53.8671 18.08 54.5998 18.318 55.1131 18.794C55.6358 19.2607 55.8971 19.9747 55.8971 20.936V25.5H54.9451ZM52.4111 25.57C51.8605 25.57 51.3798 25.4813 50.9691 25.304C50.5678 25.1173 50.2598 24.8653 50.0451 24.548C49.8305 24.2213 49.7231 23.848 49.7231 23.428C49.7231 23.0453 49.8118 22.7 49.9891 22.392C50.1758 22.0747 50.4745 21.8227 50.8851 21.636C51.3051 21.44 51.8651 21.342 52.5651 21.342H55.0991V22.084H52.5931C51.8838 22.084 51.3891 22.21 51.1091 22.462C50.8385 22.714 50.7031 23.0267 50.7031 23.4C50.7031 23.82 50.8665 24.156 51.1931 24.408C51.5198 24.66 51.9771 24.786 52.5651 24.786C53.1251 24.786 53.6058 24.66 54.0071 24.408C54.4178 24.1467 54.7165 23.7733 54.9031 23.288L55.1271 23.974C54.9405 24.4593 54.6138 24.8467 54.1471 25.136C53.6898 25.4253 53.1111 25.57 52.4111 25.57ZM58.5969 25.5V18.15H59.5489V20.152L59.4509 19.802C59.6563 19.242 60.0016 18.8173 60.4869 18.528C60.9723 18.2293 61.5743 18.08 62.2929 18.08V19.046C62.2556 19.046 62.2183 19.046 62.1809 19.046C62.1436 19.0367 62.1063 19.032 62.0689 19.032C61.2943 19.032 60.6876 19.27 60.2489 19.746C59.8103 20.2127 59.5909 20.88 59.5909 21.748V25.5H58.5969ZM64.1067 25.5V18.15H65.1007V25.5H64.1067ZM64.6107 16.526C64.4054 16.526 64.2327 16.456 64.0927 16.316C63.9527 16.176 63.8827 16.008 63.8827 15.812C63.8827 15.616 63.9527 15.4527 64.0927 15.322C64.2327 15.182 64.4054 15.112 64.6107 15.112C64.816 15.112 64.9887 15.1773 65.1287 15.308C65.2687 15.4387 65.3387 15.602 65.3387 15.798C65.3387 16.0033 65.2687 16.176 65.1287 16.316C64.998 16.456 64.8254 16.526 64.6107 16.526ZM70.4385 28.286C70.1399 28.286 69.8552 28.244 69.5845 28.16C69.3045 28.0853 69.0712 27.9687 68.8845 27.81L69.2345 27.054C69.5332 27.306 69.9159 27.432 70.3825 27.432C70.7745 27.432 71.0732 27.3153 71.2785 27.082C71.4932 26.8487 71.6005 26.5033 71.6005 26.046V18.15H72.5945V26.046C72.5945 26.7273 72.4079 27.2687 72.0345 27.67C71.6705 28.0807 71.1385 28.286 70.4385 28.286ZM72.1045 16.526C71.8992 16.526 71.7265 16.456 71.5865 16.316C71.4465 16.176 71.3765 16.008 71.3765 15.812C71.3765 15.616 71.4465 15.4527 71.5865 15.322C71.7265 15.182 71.8992 15.112 72.1045 15.112C72.3099 15.112 72.4825 15.1773 72.6225 15.308C72.7625 15.4387 72.8325 15.602 72.8325 15.798C72.8325 16.0033 72.7625 16.176 72.6225 16.316C72.4919 16.456 72.3192 16.526 72.1045 16.526ZM78.4103 25.57C77.785 25.57 77.239 25.4533 76.7723 25.22C76.3057 24.9867 75.9417 24.6367 75.6803 24.17C75.4283 23.7033 75.3023 23.12 75.3023 22.42V18.15H76.2963V22.308C76.2963 23.092 76.4877 23.6847 76.8703 24.086C77.2623 24.478 77.8083 24.674 78.5083 24.674C79.0217 24.674 79.465 24.5713 79.8383 24.366C80.221 24.1513 80.5103 23.8433 80.7063 23.442C80.9117 23.0407 81.0143 22.56 81.0143 22V18.15H82.0083V25.5H81.0563V23.484L81.2103 23.848C80.977 24.3893 80.613 24.814 80.1183 25.122C79.633 25.4207 79.0637 25.57 78.4103 25.57ZM87.7046 25.57C87.0046 25.57 86.3746 25.4113 85.8146 25.094C85.2639 24.7767 84.8299 24.338 84.5126 23.778C84.1952 23.2087 84.0366 22.5553 84.0366 21.818C84.0366 21.0713 84.1952 20.418 84.5126 19.858C84.8299 19.298 85.2639 18.864 85.8146 18.556C86.3746 18.2387 87.0046 18.08 87.7046 18.08C88.3486 18.08 88.9226 18.2247 89.4266 18.514C89.9399 18.8033 90.3459 19.228 90.6446 19.788C90.9526 20.3387 91.1066 21.0153 91.1066 21.818C91.1066 22.6113 90.9572 23.288 90.6586 23.848C90.3599 24.408 89.9539 24.8373 89.4406 25.136C88.9366 25.4253 88.3579 25.57 87.7046 25.57ZM87.7746 24.688C88.2972 24.688 88.7639 24.5713 89.1746 24.338C89.5946 24.0953 89.9212 23.7593 90.1546 23.33C90.3972 22.8913 90.5186 22.3873 90.5186 21.818C90.5186 21.2393 90.3972 20.7353 90.1546 20.306C89.9212 19.8767 89.5946 19.5453 89.1746 19.312C88.7639 19.0693 88.2972 18.948 87.7746 18.948C87.2612 18.948 86.7992 19.0693 86.3886 19.312C85.9779 19.5453 85.6512 19.8767 85.4086 20.306C85.1659 20.7353 85.0446 21.2393 85.0446 21.818C85.0446 22.3873 85.1659 22.8913 85.4086 23.33C85.6512 23.7593 85.9779 24.0953 86.3886 24.338C86.7992 24.5713 87.2612 24.688 87.7746 24.688ZM90.5466 25.5V23.288L90.6446 21.804L90.5046 20.32V15.112H91.4986V25.5H90.5466ZM97.3049 25.57C96.6795 25.57 96.1335 25.4533 95.6669 25.22C95.2002 24.9867 94.8362 24.6367 94.5749 24.17C94.3229 23.7033 94.1969 23.12 94.1969 22.42V18.15H95.1909V22.308C95.1909 23.092 95.3822 23.6847 95.7649 24.086C96.1569 24.478 96.7029 24.674 97.4029 24.674C97.9162 24.674 98.3595 24.5713 98.7329 24.366C99.1155 24.1513 99.4049 23.8433 99.6009 23.442C99.8062 23.0407 99.9089 22.56 99.9089 22V18.15H100.903V25.5H99.9509V23.484L100.105 23.848C99.8715 24.3893 99.5075 24.814 99.0129 25.122C98.5275 25.4207 97.9582 25.57 97.3049 25.57ZM103.673 25.5V15.112H104.667V25.5H103.673ZM111.881 23.596L111.909 22.322L116.487 18.15H117.705L114.471 21.244L113.911 21.72L111.881 23.596ZM111.097 25.5V15.112H112.091V25.5H111.097ZM116.795 25.5L113.729 21.678L114.373 20.908L118.013 25.5H116.795ZM122.406 25.57C121.781 25.57 121.235 25.4533 120.768 25.22C120.302 24.9867 119.938 24.6367 119.676 24.17C119.424 23.7033 119.298 23.12 119.298 22.42V18.15H120.292V22.308C120.292 23.092 120.484 23.6847 120.866 24.086C121.258 24.478 121.804 24.674 122.504 24.674C123.018 24.674 123.461 24.5713 123.834 24.366C124.217 24.1513 124.506 23.8433 124.702 23.442C124.908 23.0407 125.01 22.56 125.01 22V18.15H126.004V25.5H125.052V23.484L125.206 23.848C124.973 24.3893 124.609 24.814 124.114 25.122C123.629 25.4207 123.06 25.57 122.406 25.57ZM128.775 25.5V18.15H129.727V20.152L129.629 19.802C129.834 19.242 130.179 18.8173 130.665 18.528C131.15 18.2293 131.752 18.08 132.471 18.08V19.046C132.433 19.046 132.396 19.046 132.359 19.046C132.321 19.0367 132.284 19.032 132.247 19.032C131.472 19.032 130.865 19.27 130.427 19.746C129.988 20.2127 129.769 20.88 129.769 21.748V25.5H128.775ZM136.34 25.57C135.734 25.57 135.16 25.486 134.618 25.318C134.077 25.1407 133.652 24.9213 133.344 24.66L133.792 23.876C134.091 24.1 134.474 24.296 134.94 24.464C135.407 24.6227 135.897 24.702 136.41 24.702C137.11 24.702 137.614 24.5947 137.922 24.38C138.23 24.156 138.384 23.862 138.384 23.498C138.384 23.2273 138.296 23.0173 138.118 22.868C137.95 22.7093 137.726 22.5927 137.446 22.518C137.166 22.434 136.854 22.364 136.508 22.308C136.163 22.252 135.818 22.1867 135.472 22.112C135.136 22.0373 134.828 21.93 134.548 21.79C134.268 21.6407 134.04 21.44 133.862 21.188C133.694 20.936 133.61 20.6 133.61 20.18C133.61 19.7787 133.722 19.4193 133.946 19.102C134.17 18.7847 134.497 18.5373 134.926 18.36C135.365 18.1733 135.897 18.08 136.522 18.08C136.998 18.08 137.474 18.1453 137.95 18.276C138.426 18.3973 138.818 18.5607 139.126 18.766L138.692 19.564C138.366 19.34 138.016 19.1813 137.642 19.088C137.269 18.9853 136.896 18.934 136.522 18.934C135.86 18.934 135.37 19.0507 135.052 19.284C134.744 19.508 134.59 19.7973 134.59 20.152C134.59 20.432 134.674 20.6513 134.842 20.81C135.02 20.9687 135.248 21.0947 135.528 21.188C135.818 21.272 136.13 21.342 136.466 21.398C136.812 21.454 137.152 21.524 137.488 21.608C137.834 21.6827 138.146 21.79 138.426 21.93C138.716 22.0607 138.944 22.252 139.112 22.504C139.29 22.7467 139.378 23.0687 139.378 23.47C139.378 23.8993 139.257 24.2727 139.014 24.59C138.781 24.898 138.436 25.1407 137.978 25.318C137.53 25.486 136.984 25.57 136.34 25.57ZM144.24 25.57C143.615 25.57 143.069 25.4533 142.602 25.22C142.136 24.9867 141.772 24.6367 141.51 24.17C141.258 23.7033 141.132 23.12 141.132 22.42V18.15H142.126V22.308C142.126 23.092 142.318 23.6847 142.7 24.086C143.092 24.478 143.638 24.674 144.338 24.674C144.852 24.674 145.295 24.5713 145.668 24.366C146.051 24.1513 146.34 23.8433 146.536 23.442C146.742 23.0407 146.844 22.56 146.844 22V18.15H147.838V25.5H146.886V23.484L147.04 23.848C146.807 24.3893 146.443 24.814 145.948 25.122C145.463 25.4207 144.894 25.57 144.24 25.57ZM152.583 25.57C151.976 25.57 151.402 25.486 150.861 25.318C150.319 25.1407 149.895 24.9213 149.587 24.66L150.035 23.876C150.333 24.1 150.716 24.296 151.183 24.464C151.649 24.6227 152.139 24.702 152.653 24.702C153.353 24.702 153.857 24.5947 154.165 24.38C154.473 24.156 154.627 23.862 154.627 23.498C154.627 23.2273 154.538 23.0173 154.361 22.868C154.193 22.7093 153.969 22.5927 153.689 22.518C153.409 22.434 153.096 22.364 152.751 22.308C152.405 22.252 152.06 22.1867 151.715 22.112C151.379 22.0373 151.071 21.93 150.791 21.79C150.511 21.6407 150.282 21.44 150.105 21.188C149.937 20.936 149.853 20.6 149.853 20.18C149.853 19.7787 149.965 19.4193 150.189 19.102C150.413 18.7847 150.739 18.5373 151.169 18.36C151.607 18.1733 152.139 18.08 152.765 18.08C153.241 18.08 153.717 18.1453 154.193 18.276C154.669 18.3973 155.061 18.5607 155.369 18.766L154.935 19.564C154.608 19.34 154.258 19.1813 153.885 19.088C153.511 18.9853 153.138 18.934 152.765 18.934C152.102 18.934 151.612 19.0507 151.295 19.284C150.987 19.508 150.833 19.7973 150.833 20.152C150.833 20.432 150.917 20.6513 151.085 20.81C151.262 20.9687 151.491 21.0947 151.771 21.188C152.06 21.272 152.373 21.342 152.709 21.398C153.054 21.454 153.395 21.524 153.731 21.608C154.076 21.6827 154.389 21.79 154.669 21.93C154.958 22.0607 155.187 22.252 155.355 22.504C155.532 22.7467 155.621 23.0687 155.621 23.47C155.621 23.8993 155.499 24.2727 155.257 24.59C155.023 24.898 154.678 25.1407 154.221 25.318C153.773 25.486 153.227 25.57 152.583 25.57Z" fill="#747474"/>
<path d="M334 27.1047C334 27.3036 333.921 27.4944 333.78 27.635C333.64 27.7757 333.449 27.8547 333.25 27.8547H328.15C327.983 28.4776 327.615 29.0279 327.103 29.4205C326.592 29.813 325.965 30.0257 325.32 30.0257C324.675 30.0257 324.048 29.813 323.537 29.4205C323.025 29.0279 322.657 28.4776 322.49 27.8547H314.75C314.551 27.8547 314.36 27.7757 314.22 27.635C314.079 27.4944 314 27.3036 314 27.1047C314 26.9058 314.079 26.715 314.22 26.5744C314.36 26.4337 314.551 26.3547 314.75 26.3547H322.49C322.657 25.7318 323.025 25.1814 323.537 24.7889C324.048 24.3964 324.675 24.1836 325.32 24.1836C325.965 24.1836 326.592 24.3964 327.103 24.7889C327.615 25.1814 327.983 25.7318 328.15 26.3547H333.25C333.449 26.3547 333.64 26.4337 333.78 26.5744C333.921 26.715 334 26.9058 334 27.1047ZM334 13.8947C334 14.0936 333.921 14.2844 333.78 14.425C333.64 14.5657 333.449 14.6447 333.25 14.6447H330.8C330.633 15.2676 330.265 15.8179 329.753 16.2105C329.242 16.603 328.615 16.8157 327.97 16.8157C327.325 16.8157 326.698 16.603 326.187 16.2105C325.675 15.8179 325.307 15.2676 325.14 14.6447H314.75C314.652 14.6447 314.554 14.6253 314.463 14.5876C314.372 14.5499 314.289 14.4947 314.22 14.425C314.15 14.3554 314.095 14.2727 314.057 14.1817C314.019 14.0907 314 13.9932 314 13.8947C314 13.7962 314.019 13.6987 314.057 13.6077C314.095 13.5167 314.15 13.434 314.22 13.3644C314.289 13.2947 314.372 13.2395 314.463 13.2018C314.554 13.1641 314.652 13.1447 314.75 13.1447H325.14C325.307 12.5218 325.675 11.9714 326.187 11.5789C326.698 11.1864 327.325 10.9736 327.97 10.9736C328.615 10.9736 329.242 11.1864 329.753 11.5789C330.265 11.9714 330.633 12.5218 330.8 13.1447H333.25C333.349 13.1433 333.447 13.1618 333.539 13.199C333.63 13.2363 333.713 13.2914 333.783 13.3614C333.853 13.4313 333.908 13.5145 333.946 13.6061C333.983 13.6977 334.001 13.7958 334 13.8947ZM334 20.4947C334.001 20.5935 333.983 20.6917 333.946 20.7833C333.908 20.8749 333.853 20.9581 333.783 21.028C333.713 21.0979 333.63 21.1531 333.539 21.1903C333.447 21.2276 333.349 21.246 333.25 21.2447H321.55C321.383 21.8676 321.015 22.4179 320.503 22.8105C319.992 23.203 319.365 23.4157 318.72 23.4157C318.075 23.4157 317.448 23.203 316.937 22.8105C316.425 22.4179 316.057 21.8676 315.89 21.2447H314.75C314.551 21.2447 314.36 21.1657 314.22 21.025C314.079 20.8844 314 20.6936 314 20.4947C314 20.2958 314.079 20.105 314.22 19.9644C314.36 19.8237 314.551 19.7447 314.75 19.7447H315.89C316.057 19.1218 316.425 18.5714 316.937 18.1789C317.448 17.7864 318.075 17.5736 318.72 17.5736C319.365 17.5736 319.992 17.7864 320.503 18.1789C321.015 18.5714 321.383 19.1218 321.55 19.7447H333.25C333.449 19.7447 333.64 19.8237 333.78 19.9644C333.921 20.105 334 20.2958 334 20.4947Z" fill="#747474"/>
<defs>
<clipPath id="clip0_1166_6412">
<rect width="16" height="16" fill="white" transform="translate(13 12)"/>
</clipPath>
</defs>
</svg>
