<svg width="349" height="343" viewBox="0 0 349 343" fill="none" xmlns="http://www.w3.org/2000/svg">
<path d="M307.873 151.89C303.925 151.89 302.439 132.998 306.389 132.696C285.033 134.929 263.105 138.363 248.199 136.035C242.966 142.377 238.697 149.433 235.524 156.98C233.51 149.876 232.778 142.48 233.359 135.127C230.524 134.9 199.58 114.736 186.551 107.246C183.726 109.124 181.32 111.547 179.478 114.366C177.634 117.186 176.394 120.345 175.83 123.65L221.494 150.953L225.089 145.862C224.249 147.895 223.779 150.057 223.7 152.25C223.568 156.659 225.02 163.109 230.428 174.433C235.707 175.989 244.319 173.59 250.882 169.862C250.585 165.809 252.597 160.848 254.115 156.7C252.95 155.861 251.726 155.103 250.453 154.43C269.805 155.683 288.016 154.265 307.873 151.89Z" fill="#EAE6FE"/>
<path d="M146.994 181.684C136.964 180.913 126.901 180.642 116.843 180.874C117.471 178.773 117.848 176.608 117.965 174.422C109.718 176.529 101.734 176.594 91.1134 175.104V174.975C86.1789 178.183 81.8712 189.558 84.9652 197.919L76.4002 215.697L51.9899 200.39C44.6333 204.897 40.9385 210.668 38.2334 219.519L69.0106 240.235C71.0752 241.628 73.4164 242.575 75.88 243.013C78.3438 243.454 80.8742 243.375 83.3048 242.783C85.7355 242.193 88.0112 241.102 89.9822 239.583C91.9532 238.066 93.5749 236.155 94.7405 233.978L104.571 215.596L92.1638 206.283C93.9836 207.327 95.9375 208.125 97.9734 208.658C108.101 211.414 122.912 210.311 132.873 209.112C129.943 220.565 127.653 232.167 126.013 243.867C132.293 248.02 139.953 249.655 147.421 248.438C153 233.07 157.714 217.412 161.542 201.534C162.114 199.274 162.178 196.919 161.73 194.633C161.282 192.348 160.332 190.184 158.948 188.295C157.563 186.406 155.777 184.836 153.712 183.695C151.648 182.553 149.355 181.867 146.994 181.684Z" fill="#EAE6FE"/>
<path d="M291.447 81.1143C291.198 80.8682 290.903 80.673 290.577 80.5398C290.252 80.4065 289.903 80.3379 289.549 80.3379C289.196 80.3379 288.847 80.4065 288.523 80.5398C288.196 80.673 287.901 80.8682 287.653 81.1143L286.958 81.7969L286.264 81.1143C285.76 80.62 285.078 80.3422 284.366 80.3423C283.654 80.3425 282.972 80.6205 282.468 81.1152C281.967 81.6099 281.684 82.2807 281.684 82.9801C281.684 83.6794 281.967 84.3502 282.47 84.8446L286.984 89.254L291.438 84.8446C291.69 84.601 291.889 84.3111 292.027 83.9912C292.162 83.6714 292.233 83.3281 292.233 82.9811C292.235 82.6344 292.165 82.2907 292.03 81.9703C291.895 81.6498 291.697 81.359 291.447 81.1143Z" fill="#EAE6FE"/>
<path d="M102.559 270.775L97.9733 270.094L95.9279 266.041L93.8826 270.094L89.2988 270.775L92.6307 273.92L91.839 278.394L95.9279 276.286L100.019 278.394L99.2269 273.92L102.559 270.775Z" fill="#EAE6FE"/>
<path d="M240.348 128.669L236.875 131.911C237.197 131.011 237.396 130.074 237.469 129.123C238.443 129.077 239.409 128.925 240.348 128.669Z" fill="#661FFF"/>
<path d="M254.798 154.646C254.567 155.294 254.336 155.975 254.072 156.693C252.907 155.854 251.683 155.096 250.41 154.424C251.895 154.484 253.346 154.581 254.798 154.646Z" fill="#661FFF"/>
<path d="M281.649 100.827C276.246 96.4176 261.594 108.803 261.594 108.803C264.297 95.7044 244.505 106.926 237.841 113.31C241.272 110.619 244.01 116.453 243.713 119.76C243.713 120.54 244.142 120.702 245.363 119.859C247.903 118.043 249.717 122.355 244.934 124.364C244.613 124.705 244.377 125.114 244.239 125.558C243.363 128.005 243.305 130.664 244.075 133.145C266.276 128.678 287.027 105.204 281.649 100.827Z" fill="#661FFF"/>
<path d="M243.515 200.293L240.876 202.53L238.567 192.9L243.515 200.293Z" fill="#661FFF"/>
<path d="M171.041 49.4072C168.397 49.4072 165.812 50.1779 163.614 51.6217C161.415 53.0655 159.701 55.1175 158.689 57.5184C157.678 59.9193 157.413 62.5612 157.929 65.1101C158.445 67.6588 159.718 70.0002 161.588 71.8377C163.457 73.6753 165.84 74.9267 168.433 75.4336C171.026 75.9408 173.714 75.6806 176.158 74.6861C178.601 73.6916 180.688 72.0073 182.157 69.8466C183.626 67.6858 184.41 65.1454 184.41 62.5467C184.414 60.8203 184.07 59.1103 183.4 57.5148C182.728 55.9191 181.744 54.4694 180.502 53.2488C179.259 52.028 177.785 51.0603 176.161 50.4011C174.538 49.7419 172.798 49.4042 171.041 49.4072ZM171.371 70.5464C171.371 70.6324 171.336 70.7149 171.274 70.7758C171.213 70.8365 171.129 70.8707 171.041 70.8707C170.997 70.8732 170.953 70.8664 170.912 70.851C170.871 70.8357 170.833 70.8118 170.802 70.7812C170.771 70.7505 170.747 70.7138 170.731 70.6734C170.716 70.633 170.709 70.5896 170.711 70.5464V60.3659C170.712 60.2801 170.747 60.1978 170.808 60.1371C170.87 60.0765 170.954 60.0422 171.041 60.0417C171.085 60.0391 171.129 60.046 171.17 60.0613C171.211 60.0767 171.249 60.1006 171.28 60.1311C171.311 60.1618 171.335 60.1985 171.351 60.239C171.367 60.2794 171.374 60.3227 171.371 60.3659V70.5464ZM170.117 55.4395C170.128 55.2012 170.232 54.9762 170.407 54.8113C170.582 54.6463 170.815 54.5543 171.058 54.5543C171.3 54.5543 171.534 54.6463 171.709 54.8113C171.884 54.9762 171.987 55.2012 171.998 55.4395C171.987 55.6777 171.884 55.9028 171.709 56.0676C171.534 56.2326 171.3 56.3246 171.058 56.3246C170.815 56.3246 170.582 56.2326 170.407 56.0676C170.232 55.9028 170.128 55.6777 170.117 55.4395Z" fill="#661FFF"/>
<path d="M91.9697 206.161L104.572 215.596L107.508 210.149C102.085 210.013 96.7681 208.647 91.9697 206.161Z" fill="#661FFF"/>
<path d="M102.856 134.707L98.8975 132.082C100.036 132.216 101.183 132.26 102.328 132.212C102.419 133.059 102.596 133.894 102.856 134.707Z" fill="#661FFF"/>
<path d="M225.043 145.859C224.203 147.892 223.732 150.054 223.654 152.247L221.444 150.917L225.043 145.859Z" fill="#661FFF"/>
<path d="M119.747 146.087C120.041 147.5 120.25 148.929 120.373 150.367C121 150.075 121.693 149.718 122.386 149.362L119.747 146.087Z" fill="#661FFF"/>
<path d="M128.751 246.525C127.994 248.665 127.035 250.805 126.377 252.684C126.889 254.841 127.687 256.923 128.751 258.876C132.083 264.939 135.415 276.838 138.054 279.821C139.505 275.574 141.056 264.909 142.079 258.909C136.93 255.583 132.418 251.392 128.751 246.525Z" fill="#661FFF"/>
<path d="M40.9388 197.829C38.6884 197.732 36.4351 197.94 34.242 198.445C27.3803 200.001 14.8131 200.001 11.2173 201.72C14.9781 204.248 25.038 208.561 30.6462 211.09C35.2824 207.071 40.6112 203.897 46.382 201.72C44.4357 200.423 42.5883 198.964 40.9388 197.829Z" fill="#661FFF"/>
<path d="M99.5573 113.994C98.4687 112.243 96.0848 112.34 96.3244 113.669C94.8416 112.372 92.2684 112.987 92.5636 114.48C90.7839 113.053 88.7056 114.188 89.1327 115.55C87.584 114.383 85.9015 115.55 86.4294 116.944C84.2191 116.004 82.3717 117.627 84.9778 120.186C86.0995 121.288 90.9801 124.853 93.7182 129.36C93.8867 128.712 93.871 128.031 93.6734 127.39C93.4757 126.75 93.1033 126.176 92.5966 125.729C89.8915 123.718 91.7389 121.321 93.4543 122.973C94.9718 124.432 94.4787 122.29 93.3883 120.379C93.6142 120.57 93.8856 120.703 94.1773 120.764C94.469 120.826 94.7718 120.814 95.0576 120.73C95.3436 120.646 95.6033 120.493 95.8132 120.285C96.023 120.076 96.1761 119.82 96.2584 119.538C96.4747 119.698 96.7241 119.811 96.989 119.867C97.2542 119.923 97.5283 119.922 97.7929 119.863C98.0574 119.804 98.3057 119.69 98.5204 119.527C98.7352 119.365 98.9113 119.158 99.0364 118.922C100.252 119.763 101.907 119.246 101.972 117.981C101.24 116.746 100.415 115.384 99.5573 113.994Z" fill="#661FFF"/>
<path d="M90.9853 157.303L88.5788 160.351C88.2489 159.088 87.919 157.854 87.5562 156.656C88.6726 156.851 90.9853 157.303 90.9853 157.303Z" fill="#661FFF"/>
<path d="M57.3328 149.296C57.3214 149.581 57.1985 149.85 56.9894 150.048C56.7805 150.245 56.5019 150.355 56.2121 150.355C55.9223 150.355 55.6436 150.245 55.4347 150.048C55.2259 149.85 55.1028 149.581 55.0913 149.296C55.1028 149.012 55.2259 148.742 55.4347 148.545C55.6436 148.348 55.9223 148.237 56.2121 148.237C56.5019 148.237 56.7805 148.348 56.9894 148.545C57.1985 148.742 57.3214 149.012 57.3328 149.296Z" fill="#661FFF"/>
<path d="M72.3756 139.569C72.3756 139.861 72.2575 140.142 72.0471 140.349C71.8368 140.555 71.5514 140.671 71.254 140.671C70.9565 140.671 70.6713 140.555 70.4608 140.349C70.2506 140.142 70.1323 139.861 70.1323 139.569C70.1323 139.277 70.2506 138.996 70.4608 138.79C70.6713 138.583 70.9565 138.467 71.254 138.467C71.5514 138.467 71.8368 138.583 72.0471 138.79C72.2575 138.996 72.3756 139.277 72.3756 139.569Z" fill="#661FFF"/>
<path d="M86.7921 150.398C86.7921 150.691 86.6739 150.971 86.4636 151.178C86.2533 151.384 85.9679 151.501 85.6705 151.501C85.373 151.501 85.0878 151.384 84.8773 151.178C84.6671 150.971 84.5488 150.691 84.5488 150.398C84.5488 150.106 84.6671 149.826 84.8773 149.619C85.0878 149.412 85.373 149.296 85.6705 149.296C85.9679 149.296 86.2533 149.412 86.4636 149.619C86.6739 149.826 86.7921 150.106 86.7921 150.398Z" fill="#661FFF"/>
<path d="M106.452 153.478C106.452 153.771 106.334 154.051 106.123 154.258C105.913 154.464 105.628 154.581 105.33 154.581C105.033 154.581 104.747 154.464 104.537 154.258C104.327 154.051 104.208 153.771 104.208 153.478C104.208 153.186 104.327 152.906 104.537 152.699C104.747 152.492 105.033 152.376 105.33 152.376C105.628 152.376 105.913 152.492 106.123 152.699C106.334 152.906 106.452 153.186 106.452 153.478Z" fill="#661FFF"/>
<path d="M116.682 136.619C116.682 136.911 116.564 137.192 116.354 137.398C116.143 137.605 115.858 137.721 115.561 137.721C115.263 137.721 114.978 137.605 114.767 137.398C114.557 137.192 114.439 136.911 114.439 136.619C114.439 136.327 114.557 136.046 114.767 135.839C114.978 135.633 115.263 135.517 115.561 135.517C115.858 135.517 116.143 135.633 116.354 135.839C116.564 136.046 116.682 136.327 116.682 136.619Z" fill="#661FFF"/>
<path d="M135.811 136.392C135.811 136.685 135.693 136.965 135.482 137.172C135.272 137.379 134.986 137.495 134.689 137.495C134.392 137.495 134.106 137.379 133.896 137.172C133.686 136.965 133.567 136.685 133.567 136.392C133.567 136.1 133.686 135.82 133.896 135.613C134.106 135.406 134.392 135.29 134.689 135.29C134.986 135.29 135.272 135.406 135.482 135.613C135.693 135.82 135.811 136.1 135.811 136.392Z" fill="#661FFF"/>
<path d="M142.276 121.447C142.276 121.739 142.158 122.02 141.948 122.227C141.738 122.433 141.452 122.549 141.155 122.549C140.857 122.549 140.572 122.433 140.362 122.227C140.151 122.02 140.033 121.739 140.033 121.447C140.033 121.155 140.151 120.874 140.362 120.668C140.572 120.461 140.857 120.345 141.155 120.345C141.452 120.345 141.738 120.461 141.948 120.668C142.158 120.874 142.276 121.155 142.276 121.447Z" fill="#661FFF"/>
<path d="M98.1715 168.618C98.1715 168.91 98.0532 169.191 97.843 169.397C97.6327 169.604 97.3473 169.72 97.0499 169.72C96.7524 169.72 96.4672 169.604 96.2567 169.397C96.0465 169.191 95.9282 168.91 95.9282 168.618C95.9282 168.326 96.0465 168.045 96.2567 167.838C96.4672 167.632 96.7524 167.516 97.0499 167.516C97.3473 167.516 97.6327 167.632 97.843 167.838C98.0532 168.045 98.1715 168.326 98.1715 168.618Z" fill="#661FFF"/>
<path d="M115.557 167.515C115.557 167.808 115.438 168.088 115.228 168.295C115.018 168.502 114.733 168.618 114.435 168.618C114.138 168.618 113.852 168.502 113.642 168.295C113.432 168.088 113.313 167.808 113.313 167.515C113.313 167.223 113.432 166.943 113.642 166.736C113.852 166.529 114.138 166.413 114.435 166.413C114.733 166.413 115.018 166.529 115.228 166.736C115.438 166.943 115.557 167.223 115.557 167.515Z" fill="#661FFF"/>
<path d="M308.435 134.576C307.28 134.641 305.235 134.738 304.773 134.771C305.631 132.082 307.152 132.047 308.435 134.576Z" fill="#661FFF"/>
<path d="M309.49 150.14C308.665 152.344 307.313 152.442 306.158 150.399C307.115 150.341 308.27 150.237 309.49 150.14Z" fill="#661FFF"/>
<path d="M188.13 113.311C188.13 113.604 188.012 113.884 187.802 114.091C187.592 114.297 187.305 114.414 187.008 114.414C186.711 114.414 186.425 114.297 186.215 114.091C186.005 113.884 185.887 113.604 185.887 113.311C185.887 113.019 186.005 112.739 186.215 112.532C186.425 112.325 186.711 112.209 187.008 112.209C187.305 112.209 187.592 112.325 187.802 112.532C188.012 112.739 188.13 113.019 188.13 113.311Z" fill="#661FFF"/>
<path d="M300.715 138.824C300.703 139.108 300.581 139.378 300.371 139.575C300.163 139.772 299.883 139.883 299.595 139.883C299.305 139.883 299.026 139.772 298.817 139.575C298.607 139.378 298.486 139.108 298.474 138.824C298.486 138.539 298.607 138.27 298.817 138.072C299.026 137.875 299.305 137.765 299.595 137.765C299.883 137.765 300.163 137.875 300.371 138.072C300.581 138.27 300.703 138.539 300.715 138.824Z" fill="#661FFF"/>
<path d="M274.358 211.511C274.348 209.647 274.238 207.786 274.028 205.934L283.562 197.245L274.358 211.511Z" fill="#661FFF"/>
<path d="M181.598 255.603C168.711 257.185 155.627 255.82 143.365 251.615" stroke="#1F1F1F" stroke-linecap="round" stroke-linejoin="round"/>
<path d="M247.672 206.482C239.721 224.782 225.279 239.621 207.031 248.24" stroke="#1F1F1F" stroke-linecap="round" stroke-linejoin="round"/>
<path d="M252.95 159.734C253.681 163.609 254.11 167.533 254.237 171.471" stroke="#1F1F1F" stroke-linecap="round" stroke-linejoin="round"/>
<path d="M184.072 93.5967C203.325 96.5708 220.9 106.109 233.717 120.539" stroke="#1F1F1F" stroke-linecap="round" stroke-linejoin="round"/>
<path d="M164.047 92.8833C167.802 92.5869 171.572 92.5326 175.333 92.7212C175.993 92.7553 176.686 92.786 177.345 92.8509" stroke="#1F1F1F" stroke-linecap="round" stroke-linejoin="round"/>
<path d="M105.198 124.299C117.482 108.714 135.075 98.0077 154.746 94.1484" stroke="#1F1F1F" stroke-linecap="round" stroke-linejoin="round"/>
<path d="M87.8806 178.442C87.7458 175.698 87.7568 172.949 87.9135 170.207C88.0719 167.286 88.3801 164.375 88.8372 161.485" stroke="#1F1F1F" stroke-linecap="round" stroke-linejoin="round"/>
<path d="M126.177 243.38C116.627 237.361 108.423 229.498 102.064 220.265" stroke="#1F1F1F" stroke-linecap="round" stroke-linejoin="round"/>
<path d="M237.478 129.097C238.438 129.069 239.39 128.927 240.315 128.676L236.884 131.886" stroke="#1F1F1F" stroke-linecap="round" stroke-linejoin="round"/>
<path d="M323.444 137.884L329.943 134.966C334.065 133.118 334.11 131.147 329.185 132.697C328.886 132.79 321.564 134.93 320.409 135.096C319.519 135.224 317.979 135.353 317.805 134.772C317.143 132.553 319.889 126.56 317.97 125.953C316.718 125.559 314.579 129.425 313.219 132.21C312.268 134.159 310.615 134.48 308.436 134.577" stroke="#1F1F1F" stroke-linecap="round" stroke-linejoin="round"/>
<path d="M322.257 138.014C322.257 138.014 332.154 136.819 332.813 136.717C337.956 135.981 337.597 137.889 333.209 139.084C329.02 140.223 323.972 141.643 323.972 141.643" stroke="#1F1F1F" stroke-linecap="round" stroke-linejoin="round"/>
<path d="M322.257 141.613C325.504 141.708 328.752 141.621 331.989 141.353C337.166 140.956 336.605 142.65 332.22 143.72C329.514 144.447 326.757 144.978 323.972 145.309" stroke="#1F1F1F" stroke-linecap="round" stroke-linejoin="round"/>
<path d="M309.49 150.139C309.49 150.139 316.649 149.679 318.034 149.556C320.705 149.317 323.448 148.899 326.117 148.551C327.041 148.429 328.129 148.264 329.383 148.039C334.005 147.185 334.692 145.5 329.449 145.639C326.634 145.705 323.821 145.444 321.069 144.861" stroke="#1F1F1F" stroke-linecap="round" stroke-linejoin="round"/>
<path d="M322.059 136.457C322.56 140.495 321.665 144.582 319.519 148.061" stroke="#1F1F1F" stroke-linecap="round" stroke-linejoin="round"/>
<path d="M318.166 136.393C317.392 138.405 316.201 140.236 314.666 141.771C313.133 143.306 311.292 144.511 309.259 145.309" stroke="#1F1F1F" stroke-linecap="round" stroke-linejoin="round"/>
<path d="M254.818 154.659C254.587 155.308 254.356 155.989 254.092 156.707C252.377 155.572 250.922 154.839 250.431 154.438C251.915 154.497 253.367 154.594 254.818 154.659Z" stroke="#1F1F1F" stroke-linecap="round" stroke-linejoin="round"/>
<path d="M221.447 150.95L225.043 145.859C224.108 147.865 223.622 150.044 223.619 152.25" stroke="#1F1F1F" stroke-linecap="round" stroke-linejoin="round"/>
<path d="M233.359 135.128C234.552 135.128 236.094 134.121 236.889 131.886C237.209 130.986 237.408 130.048 237.483 129.097C234.382 129.13 230.399 127.562 234.91 117.589C235.88 115.446 237.764 112.168 240.105 112.67C242.381 113.159 243.944 117.12 243.751 119.666C243.673 120.76 244.445 120.492 245.36 119.852C247.916 118.057 249.715 122.347 244.932 124.357C244.614 124.7 244.376 125.108 244.237 125.551C243.003 130.671 242.959 134.887 248.196 136.056" stroke="#1F1F1F" stroke-linecap="round" stroke-linejoin="round"/>
<path d="M237.874 113.311C244.538 106.924 264.331 95.7058 261.626 108.804C261.626 108.804 276.27 96.4208 281.682 100.828C287.064 105.207 266.342 128.677 244.142 133.152" stroke="#1F1F1F" stroke-linecap="round" stroke-linejoin="round"/>
<path d="M307.873 151.89C303.968 151.89 302.437 132.998 306.389 132.696C285.206 134.914 263.239 138.387 248.199 136.035C242.966 142.377 238.697 149.433 235.524 156.98C233.51 149.876 232.778 142.48 233.359 135.127C230.524 134.9 199.58 114.736 186.551 107.246C183.726 109.124 181.32 111.547 179.478 114.366C177.634 117.186 176.394 120.345 175.83 123.65L223.624 152.25C223.612 152.774 223.624 153.323 223.654 153.91C223.898 158.258 225.591 164.451 230.357 174.421C236.252 176.15 245.388 172.967 250.877 169.85C250.529 165.111 253.339 159.133 254.823 154.663C272.57 155.459 289.517 154.077 307.873 151.89Z" stroke="#1F1F1F" stroke-linecap="round" stroke-linejoin="round"/>
<path d="M230.385 174.422L201.885 204.411C196.736 209.815 192.981 216.352 190.934 223.475L180.278 260.076C183.22 262.629 186.744 264.445 190.555 265.366C194.365 266.287 198.346 266.287 202.155 265.366L213.094 226.422C245.463 198.577 239.918 203.336 243.508 200.292L261.157 226.714C262.194 228.263 263.56 229.572 265.161 230.553C266.764 231.533 268.561 232.161 270.434 232.391C272.306 232.623 274.206 232.452 276.004 231.891C277.803 231.331 279.456 230.395 280.85 229.145L314.201 199.222C313.324 195.505 311.568 192.044 309.077 189.12C306.587 186.195 303.429 183.888 299.861 182.386L274.022 205.935C274.022 205.935 269.568 177.048 250.832 169.851" stroke="#1F1F1F" stroke-linecap="round" stroke-linejoin="round"/>
<path d="M240.876 202.53L238.566 192.9L243.515 200.293" stroke="#1F1F1F" stroke-linecap="round" stroke-linejoin="round"/>
<path d="M182.357 261.632C181.056 268.509 179.066 275.241 176.418 281.734C173.906 287.307 171.937 292.298 172.658 293.146C175.182 296.114 183.77 283.295 190.142 280.015C191.66 279.275 193.017 278.251 194.135 277C196.374 274.403 195.123 271.391 197.73 265.976" stroke="#1F1F1F" stroke-linecap="round" stroke-linejoin="round"/>
<path d="M312.855 195.235C318.317 190.665 324.045 186.411 330.009 182.495C335.187 179.121 339.574 175.946 339.443 174.876C338.975 171.05 324.667 177.249 317.539 176.659C315.845 176.485 314.133 176.628 312.492 177.08C309.193 178.06 308.764 181.133 303.585 184.343" stroke="#1F1F1F" stroke-linecap="round" stroke-linejoin="round"/>
<path d="M175.132 103.551C175.132 96.3836 180.803 83.0222 183.016 81.9267C183.075 81.9004 183.14 81.8894 183.202 81.895C183.266 81.9006 183.327 81.9225 183.381 81.9585C183.433 81.9946 183.475 82.0434 183.502 82.1004C183.53 82.1574 183.542 82.2206 183.537 82.2834C182.778 89.9384 177.726 103.013 184.768 108.52" stroke="#1F1F1F" stroke-linecap="round" stroke-linejoin="round"/>
<path d="M176.682 120.377C174.142 118.691 170.558 115.77 170.678 112.92C171.01 105.043 170.959 101.345 170.975 98.2327C170.987 95.9307 172.829 95.8642 174.076 99.8538C175.17 103.354 176.319 108.284 176.319 108.284" stroke="#1F1F1F" stroke-linecap="round" stroke-linejoin="round"/>
<path d="M181.994 91.3601C182.688 90.2253 183.44 89.0564 183.742 88.5735C185.947 85.048 186.833 85.9115 186.645 86.5633C185.911 89.1127 184.138 92.9488 183.544 95.3156C182.659 98.7984 181.152 103.66 183.961 107.796" stroke="#1F1F1F" stroke-linecap="round" stroke-linejoin="round"/>
<path d="M148.313 206.652C148.313 206.652 141.749 208.046 132.875 209.116" stroke="#1F1F1F" stroke-linecap="round" stroke-linejoin="round"/>
<path d="M87.7818 178.604C88.6392 177.199 89.7711 175.976 91.112 175.005V175.135C101.735 176.626 109.718 176.561 117.965 174.452C117.848 176.638 117.471 178.804 116.844 180.904C126.87 180.677 136.92 180.947 146.994 181.715C149.353 181.894 151.643 182.576 153.706 183.716C155.768 184.855 157.553 186.423 158.935 188.31C160.317 190.197 161.263 192.359 161.708 194.643C162.152 196.926 162.084 199.277 161.508 201.533C157.687 217.415 152.974 233.076 147.39 248.446C139.921 249.663 132.261 248.028 125.98 243.875C127.622 232.175 129.912 220.573 132.842 209.12C122.881 210.314 108.072 211.412 97.9425 208.666C91.9402 207.04 87.0474 203.644 84.9204 197.869C82.4914 191.317 84.6791 183.368 87.7818 178.604Z" stroke="#1F1F1F" stroke-linecap="round" stroke-linejoin="round"/>
<path d="M116.877 180.938C115.227 180.971 113.611 181.036 111.994 181.101" stroke="#1F1F1F" stroke-linecap="round" stroke-linejoin="round"/>
<path d="M107.48 210.147L94.7353 233.977C93.5697 236.155 91.948 238.066 89.977 239.583C88.006 241.102 85.7302 242.192 83.2996 242.782C80.869 243.375 78.3386 243.453 75.8748 243.013C73.4112 242.574 71.07 241.627 69.0054 240.235L38.2334 219.519C40.942 210.657 44.642 204.883 52.0159 200.374L76.3672 215.696L84.9444 197.864" stroke="#1F1F1F" stroke-linecap="round" stroke-linejoin="round"/>
<path d="M92.0024 206.161L104.571 215.596" stroke="#1F1F1F" stroke-linecap="round" stroke-linejoin="round"/>
<path d="M102.856 134.706L98.897 132.048C100.037 132.173 101.186 132.206 102.331 132.145" stroke="#1F1F1F" stroke-linecap="round" stroke-linejoin="round"/>
<path d="M110.246 135.517C109.652 135.874 109.058 136.2 108.464 136.555C107.819 137.053 107.021 137.321 106.201 137.315C105.381 137.309 104.587 137.03 103.95 136.522C102.939 135.277 102.372 133.739 102.337 132.145C107.643 131.84 107.968 128.333 101.971 117.946C101.908 118.249 101.765 118.529 101.556 118.76C101.347 118.99 101.08 119.162 100.781 119.257C100.483 119.353 100.164 119.369 99.8571 119.304C99.5501 119.239 99.2664 119.095 99.0346 118.887C98.916 119.129 98.7431 119.342 98.5288 119.51C98.3145 119.678 98.0643 119.796 97.7971 119.855C97.5299 119.914 97.2526 119.913 96.9858 119.852C96.7189 119.791 96.4698 119.672 96.2565 119.503C96.1741 119.784 96.0209 120.041 95.811 120.249C95.6013 120.458 95.3415 120.611 95.0559 120.695C94.7701 120.779 94.4675 120.791 94.1758 120.73C93.8841 120.669 93.6127 120.536 93.3865 120.346C94.5081 122.257 94.97 124.397 93.4525 122.938C91.737 121.286 89.8896 123.716 92.5965 125.695C93.1031 126.142 93.4755 126.716 93.6733 127.356C93.8711 127.996 93.8865 128.677 93.7181 129.325C95.2832 131.569 95.9088 134.318 95.4648 137.004C95.1679 138.369 93.1885 139.435 90.7769 138.819C93.6539 143.899 99.5746 148.58 105.332 146.58C111.668 144.387 110.246 135.517 110.246 135.517Z" stroke="#1F1F1F" stroke-linecap="round" stroke-linejoin="round"/>
<path d="M151.234 108.874C159.382 102.818 159.703 90.0131 159.703 80.8309C159.703 80.5391 160.131 80.1483 160.361 80.3189C162.422 81.6363 165.164 95.2894 164.504 102.473" stroke="#1F1F1F" stroke-linecap="round" stroke-linejoin="round"/>
<path d="M160.583 119.761C162.921 118.836 164.857 117.139 166.06 114.963C168.572 109.468 169.451 103.387 168.596 97.4222C168.148 94.8318 166.78 95.0554 165.594 98.9785C164.537 102.48 162.889 107.181 162.889 107.181" stroke="#1F1F1F" stroke-linecap="round" stroke-linejoin="round"/>
<path d="M151.097 108.789C153.368 106.059 155.505 101.213 155.406 98.655C155.14 95.7871 154.632 92.9459 153.889 90.1604C153.739 89.4778 154.606 88.57 157.122 93.2319" stroke="#1F1F1F" stroke-linecap="round" stroke-linejoin="round"/>
<path d="M120.373 150.367C120.25 148.929 120.041 147.5 119.747 146.087L122.348 149.317" stroke="#1F1F1F" stroke-linecap="round" stroke-linejoin="round"/>
<path d="M117.998 174.454H118.031C119.449 166.219 121 157.887 120.373 150.366C133.546 143.575 150.289 130.41 160.655 121.448C161.83 120.292 157.713 115.176 156.581 113.864C155.42 112.518 150.878 107.561 149.275 108.349C137.166 118.58 124.11 127.675 110.278 135.517" stroke="#1F1F1F" stroke-linecap="round" stroke-linejoin="round"/>
<path d="M144.058 248.859C143.208 252.168 142.558 255.525 142.111 258.91C136.949 255.588 132.435 251.381 128.784 246.493C128.916 246.209 129.026 245.918 129.114 245.617" stroke="#1F1F1F" stroke-linecap="round" stroke-linejoin="round"/>
<path d="M128.751 258.869C127.687 256.916 126.889 254.834 126.377 252.677C125.816 253.98 125.521 255.38 125.509 256.796C125.924 258.815 126.647 260.76 127.654 262.565C131.051 268.791 134.449 281.824 136.891 281.662C137.253 281.63 137.649 280.949 138.045 279.814C135.448 276.838 132.116 264.939 128.751 258.869Z" stroke="#1F1F1F" stroke-linecap="round" stroke-linejoin="round"/>
<path d="M128.751 246.525C127.994 248.665 127.035 250.805 126.377 252.684C126.889 254.841 127.687 256.923 128.751 258.876C132.083 264.939 135.415 276.838 138.054 279.821C139.505 275.574 141.056 264.909 142.079 258.909C136.93 255.583 132.418 251.392 128.751 246.525Z" stroke="#1F1F1F" stroke-linecap="round" stroke-linejoin="round"/>
<path d="M39.6521 215.402C36.7408 213.787 33.7334 212.347 30.646 211.09C35.2692 207.078 40.5879 203.916 46.3489 201.752C47.2396 202.336 47.3715 202.563 48.2293 203.049" stroke="#1F1F1F" stroke-linecap="round" stroke-linejoin="round"/>
<path d="M37.1449 195.948C35.0534 195.795 32.9503 195.959 30.91 196.436C23.9163 198.023 10.1945 197.764 9.72741 200.131C9.66143 200.487 10.2222 201.039 11.2119 201.719C14.8077 200.001 27.3749 200.001 34.2697 198.477C36.4624 197.97 38.7161 197.762 40.9665 197.863C39.8376 196.977 38.5374 196.325 37.1449 195.948Z" stroke="#1F1F1F" stroke-linecap="round" stroke-linejoin="round"/>
<path d="M40.9389 197.829C38.6885 197.732 36.4351 197.94 34.242 198.445C27.3803 200.001 14.8131 200.001 11.2173 201.72C14.9781 204.248 25.0381 208.561 30.6462 211.09C35.2824 207.071 40.6112 203.897 46.3821 201.72C44.4357 200.423 42.5883 198.964 40.9389 197.829Z" stroke="#1F1F1F" stroke-linecap="round" stroke-linejoin="round"/>
<path d="M19.9924 151.436C18.7388 151.857 17.1206 152.34 15.4781 152.83C12.4413 153.731 11.3214 153.187 14.3564 151.144C17.226 149.229 20.3923 147.784 23.7323 146.864" stroke="#1F1F1F" stroke-linecap="round" stroke-linejoin="round"/>
<path d="M26.7532 143.104C25.8371 143.983 25.0081 144.945 24.2773 145.979C22.9657 147.91 22.0786 150.089 21.6729 152.376" stroke="#1F1F1F" stroke-linecap="round" stroke-linejoin="round"/>
<path d="M18.8376 148.648C7.85214 152.441 6.47354 150.672 15.6706 146.54C19.2192 145.047 22.9133 143.914 26.6959 143.158" stroke="#1F1F1F" stroke-linecap="round" stroke-linejoin="round"/>
<path d="M40.3519 151.499C35.756 151.247 25.9495 152.931 18.8377 155.254C15.7367 156.259 14.0785 155.595 17.5181 153.049C18.9672 151.984 20.5201 151.063 22.154 150.3" stroke="#1F1F1F" stroke-linecap="round" stroke-linejoin="round"/>
<path d="M21.3101 144.466C17.617 145.309 9.19957 145.619 22.2998 141.45C24.3451 140.8 26.8141 140.256 29.1286 139.764C29.2593 138.919 29.1088 138.055 28.6997 137.3C27.3107 135.014 27.7795 134.085 30.0522 135.452C32.9367 137.382 36.3617 138.379 39.8501 138.305" stroke="#1F1F1F" stroke-linecap="round" stroke-linejoin="round"/>
<path d="M29.1283 139.761C29.1137 140.617 29.279 141.466 29.614 142.257C29.9489 143.047 30.4463 143.761 31.075 144.354C31.7036 144.946 32.45 145.405 33.2674 145.701C34.0847 145.997 34.9554 146.124 35.8251 146.075" stroke="#1F1F1F" stroke-linecap="round" stroke-linejoin="round"/>
<path d="M101.965 117.978C101.899 119.242 100.25 119.761 99.0293 118.918C98.9043 119.155 98.7283 119.362 98.5137 119.524C98.2989 119.687 98.0504 119.802 97.786 119.86C97.5214 119.919 97.247 119.92 96.9819 119.864C96.7168 119.807 96.4675 119.695 96.2513 119.534C96.1686 119.816 96.0153 120.072 95.8054 120.28C95.5955 120.488 95.3357 120.641 95.05 120.725C94.7643 120.809 94.4617 120.821 94.1702 120.76C93.8787 120.699 93.6073 120.566 93.3812 120.375C94.4699 122.288 94.9647 124.43 93.4472 122.969C91.7318 121.317 89.8913 123.708 92.5895 125.725C93.0968 126.171 93.4698 126.746 93.6677 127.386C93.8655 128.027 93.8804 128.708 93.7111 129.356C90.9747 124.851 86.0923 121.285 84.9707 120.182C82.3663 117.623 84.212 116 86.4222 116.94C85.9014 115.546 87.5769 114.381 89.1256 115.546C88.6968 114.181 90.7768 113.05 92.5565 114.476C92.2596 112.985 94.8327 112.369 96.3173 113.666C96.0863 112.336 98.4668 112.236 99.5502 113.99C100.418 115.381 101.965 117.978 101.965 117.978Z" stroke="#1F1F1F" stroke-linecap="round" stroke-linejoin="round"/>
<path d="M88.5731 160.351L90.9848 157.303C89.7989 157.078 88.6773 156.849 87.5557 156.656" stroke="#1F1F1F" stroke-linecap="round" stroke-linejoin="round"/>
<path d="M90.7838 138.824C90.355 138.661 69.6013 133.344 40.444 136.093C38.8628 141.896 39.0439 148.028 40.9649 153.731C56.5556 152.485 72.2479 153.47 87.5509 156.654C89.4094 162.626 90.6034 168.778 91.112 175.003" stroke="#1F1F1F" stroke-linecap="round" stroke-linejoin="round"/>
<path d="M70.3631 101.67C70.4404 102.549 70.251 103.43 69.8188 104.203C69.3865 104.975 68.731 105.604 67.9349 106.011C67.1389 106.418 66.2379 106.583 65.3463 106.486C64.4546 106.39 63.612 106.036 62.9251 105.469C62.2381 104.901 61.7377 104.147 61.4869 103.3C61.2362 102.454 61.2465 101.553 61.5165 100.712C61.7866 99.8715 62.304 99.1284 63.0038 98.5765C63.7035 98.0248 64.5541 97.6892 65.4477 97.6124C66.6463 97.5134 67.836 97.8846 68.7571 98.645C69.678 99.4053 70.2555 100.493 70.3631 101.67Z" stroke="#1F1F1F" stroke-linecap="round" stroke-linejoin="round"/>
<path d="M251.201 256.252H236.917" stroke="#1F1F1F" stroke-linecap="round" stroke-linejoin="round"/>
<path d="M244.06 263.285V249.216" stroke="#1F1F1F" stroke-linecap="round" stroke-linejoin="round"/>
<path d="M50.8769 135.42C49.2637 141.339 49.5636 147.605 51.7346 153.349" stroke="#1F1F1F" stroke-linecap="round" stroke-linejoin="round"/>
<path d="M143.073 113.472C148.032 116.73 152.068 121.172 154.805 126.381" stroke="#1F1F1F" stroke-linecap="round" stroke-linejoin="round"/>
<path d="M308.434 134.576C307.28 134.641 305.234 134.738 304.772 134.771C305.63 132.082 307.151 132.047 308.434 134.576Z" stroke="#1F1F1F" stroke-linecap="round" stroke-linejoin="round"/>
<path d="M309.49 150.14C308.665 152.344 307.313 152.442 306.158 150.399C307.115 150.341 308.27 150.237 309.49 150.14Z" stroke="#1F1F1F" stroke-linecap="round" stroke-linejoin="round"/>
<path d="M246.022 172.183C259.383 181.397 263.037 192.772 268.651 212.966C268.847 213.671 269.224 214.314 269.745 214.836C270.267 215.357 270.915 215.737 271.629 215.944C272.342 216.149 273.097 216.171 273.821 216.009C274.547 215.845 275.217 215.504 275.77 215.014L307.151 187.066" stroke="#1F1F1F" stroke-linecap="round" stroke-linejoin="round"/>
<path d="M194.134 265.944L205.513 223.085L238.963 194.521" stroke="#1F1F1F" stroke-linecap="round" stroke-linejoin="round"/>
<path d="M108.827 179.609C107.565 181.71 105.862 183.522 103.831 184.927C101.8 186.329 99.4884 187.292 97.0498 187.747" stroke="#1F1F1F" stroke-linecap="round" stroke-linejoin="round"/>
<path d="M127.794 232.811C131.133 235.177 134.937 236.836 138.964 237.681C142.991 238.524 147.152 238.534 151.183 237.71" stroke="#1F1F1F" stroke-linecap="round" stroke-linejoin="round"/>
<path d="M60.8953 205.97C54.4311 210.249 50.304 217.188 47.8003 225.935" stroke="#1F1F1F" stroke-linecap="round" stroke-linejoin="round"/>
<path d="M283.562 197.245L274.36 211.511C274.35 209.647 274.24 207.786 274.03 205.934" stroke="#1F1F1F" stroke-linecap="round" stroke-linejoin="round"/>
<path d="M151.244 108.875C155.97 105.373 157.121 100.172 157.286 95.4401C156.948 92.1307 156.375 88.8487 155.571 85.6179C155.467 84.9695 156.396 84.1913 158.276 87.9199L159.365 90.2475" stroke="#1F1F1F" stroke-linecap="round" stroke-linejoin="round"/>
<path d="M171.041 49.4072C168.397 49.4072 165.812 50.1779 163.614 51.6217C161.415 53.0655 159.701 55.1175 158.689 57.5184C157.678 59.9193 157.413 62.5612 157.929 65.1101C158.445 67.6588 159.718 70.0002 161.588 71.8377C163.457 73.6753 165.84 74.9267 168.433 75.4336C171.026 75.9408 173.714 75.6806 176.158 74.6861C178.601 73.6916 180.688 72.0073 182.157 69.8466C183.626 67.6858 184.41 65.1454 184.41 62.5467C184.414 60.8203 184.07 59.1103 183.4 57.5148C182.728 55.9191 181.744 54.4694 180.502 53.2488C179.259 52.028 177.785 51.0603 176.161 50.4011C174.538 49.7419 172.798 49.4042 171.041 49.4072Z" stroke="#1F1F1F" stroke-linejoin="round"/>
<path d="M169.739 55.4107C169.739 55.7501 169.876 56.0756 170.12 56.3156C170.364 56.5557 170.696 56.6905 171.041 56.6905C171.386 56.6905 171.718 56.5557 171.962 56.3156C172.206 56.0756 172.343 55.7501 172.343 55.4107C172.343 55.0712 172.206 54.7457 171.962 54.5057C171.718 54.2657 171.386 54.1309 171.041 54.1309C170.696 54.1309 170.364 54.2657 170.12 54.5057C169.876 54.7457 169.739 55.0712 169.739 55.4107Z" stroke="#1F1F1F" stroke-linejoin="round"/>
<path d="M171.678 60.1555C171.678 59.8021 171.387 59.5156 171.027 59.5156C170.668 59.5156 170.376 59.8021 170.376 60.1555H171.678ZM170.376 70.714C170.376 71.0674 170.668 71.3539 171.027 71.3539C171.387 71.3539 171.678 71.0674 171.678 70.714H170.376ZM170.376 60.1555V70.714H171.678V60.1555H170.376Z" fill="#1F1F1F"/>
</svg>
