<svg width="349" height="343" viewBox="0 0 349 343" fill="none" xmlns="http://www.w3.org/2000/svg">
<path d="M213.145 189.425C213.145 189.425 202.664 180.005 198.487 171.5C195.37 165.211 191.292 157.751 183.966 154.492C183.354 148.373 183.288 142.214 183.768 136.083C184.129 129.685 182.529 120.305 180.278 118.848C178.801 117.994 177.219 117.336 175.566 116.893C176.725 120.277 177.634 123.74 178.285 127.253L159.613 127.742C159.019 124.23 158.12 120.775 156.928 117.414C155.27 117.805 153.911 118.1 152.684 118.457C152.717 118.652 159.746 144.163 152.982 140.45C154.308 146.216 156.596 155.665 157.889 157.62C152.253 193.493 145.292 266.086 143.966 278.825C151.492 281.999 159.884 282.608 167.803 280.552C167.803 280.552 177.615 206.362 179.145 189.42L203.711 209.849C205.798 211.605 208.255 212.885 210.904 213.596L246.774 223.337C240.257 221.451 245.745 198.695 253.273 199.129L213.145 189.425Z" fill="#EAE6FE"/>
<path d="M49.1704 171.272V178.93C49.1722 180.355 49.7491 181.72 50.7742 182.728C51.7994 183.735 53.1893 184.303 54.6392 184.304H62.4917C62.5108 182.583 62.1789 180.874 61.5154 179.281C60.8518 177.688 59.8704 176.24 58.6287 175.026C57.3871 173.812 55.9105 172.853 54.2861 172.208C52.6615 171.564 50.922 171.245 49.1704 171.272Z" fill="#EAE6FE"/>
<path d="M101.908 94.2808C100.124 92.006 97.6662 90.3315 94.873 89.4884C92.0798 88.6455 89.0892 88.6757 86.3143 89.5749C86.5317 88.5129 86.5212 87.4179 86.2836 86.3601C86.0459 85.3023 85.5863 84.3048 84.934 83.4317C83.7134 81.9522 81.9521 81.0009 80.0271 80.7812C78.102 80.5613 76.1659 81.0904 74.6326 82.2554C73.0994 83.4204 72.0908 85.1289 71.8224 87.0152C71.5542 88.9015 72.0475 90.8162 73.1971 92.3497C73.8819 93.1974 74.742 93.8925 75.7206 94.3894C76.6992 94.886 77.7737 95.1728 78.8736 95.2309C77.2933 97.6405 76.5119 100.472 76.6369 103.336C76.762 106.2 77.7872 108.956 79.5716 111.223C80.9173 112.752 82.509 114.054 84.2831 115.077C86.3387 111.304 86.843 107.056 86.5376 106.703C84.4018 104.247 86.6371 101.947 88.0628 104.749C88.7922 106.183 89.6874 103.674 90.1184 101.849C92.2892 102.803 94.6095 103.387 96.9797 103.576C96.7476 112.666 94.2279 117.097 90.4168 113.285C90.341 114.448 90.3744 115.615 90.5163 116.771C93.6962 116.572 96.7579 115.51 99.3617 113.705C102.318 111.46 104.247 108.153 104.725 104.511C105.202 100.868 104.189 97.1891 101.908 94.2808Z" fill="#661FFF"/>
<path d="M90.3787 113.276C89.7648 112.63 89.21 111.932 88.7209 111.19C88.5693 112.184 88.6485 113.199 88.9528 114.158C89.2571 115.118 89.7785 115.997 90.4781 116.73C90.3399 115.584 90.3066 114.428 90.3787 113.276Z" fill="#661FFF"/>
<path d="M71.4488 142.666C69.725 143.493 67.9536 144.222 66.144 144.848L70.3233 137.746C70.5538 139.415 70.9304 141.061 71.4488 142.666Z" fill="#661FFF"/>
<path d="M161.688 109.235C161.589 110.18 161.589 111.451 161.555 112.689C159.566 112.885 156.615 112.983 155.985 112.266L155.687 111.875C156.582 113.276 159.168 111.516 161.688 109.235Z" fill="#661FFF"/>
<path d="M133.276 138.364C132.381 139.603 131.452 140.937 130.459 142.372V134.259C131.271 135.707 132.214 137.082 133.276 138.364Z" fill="#661FFF"/>
<path d="M179.159 189.388L183.469 192.972L183.933 177.854C183.668 181.242 179.159 189.42 179.159 189.388Z" fill="#661FFF"/>
<path d="M265.62 203.789C259.068 203.446 252.691 240.416 260.846 242.822C268.635 243.246 274.106 204.245 265.62 203.789Z" fill="#661FFF"/>
<path d="M250.369 220.927C248.355 219.955 246.21 219.274 244 218.903C244.729 223.628 247.716 224.87 250.966 221.448C250.767 221.285 250.601 221.123 250.369 220.927Z" fill="#661FFF"/>
<path d="M253.651 199.162C252.973 199.069 252.282 199.143 251.639 199.376C250.999 199.609 250.425 199.995 249.971 200.5C251.795 201.014 253.917 201.541 256.005 201.997C255.878 201.372 255.595 200.786 255.185 200.292C254.775 199.798 254.248 199.411 253.651 199.162Z" fill="#661FFF"/>
<path d="M170.87 92.1305C171.5 90.6967 168.883 89.7518 167.258 91.9676C167.921 90.6642 165.136 89.6214 163.677 92.1631C164.108 90.9248 161.583 89.8821 159.997 92.717C160.172 91.2507 157.643 91.2833 157.013 93.8901C156.615 95.5193 156.315 97.2789 156.085 98.5823C156.913 99.0147 157.779 99.3745 158.671 99.6576C158.34 102.981 159.533 103.177 160.196 102.004C161.456 99.8205 163.976 101.58 161.522 104.936C161.685 105.108 168.647 112.355 168.815 112.527C164.639 107.704 171.368 97.4744 173.556 93.9552C175.372 91.0226 172.528 89.9799 170.87 92.1305Z" fill="#661FFF"/>
<path d="M31.5336 199.652L18.6363 212.325C17.2578 213.68 19.378 215.781 20.7303 214.383L33.6276 201.708C33.9051 201.435 34.0609 201.065 34.0608 200.679C34.0606 200.293 33.9044 199.923 33.6268 199.65C33.3491 199.377 32.9726 199.225 32.5799 199.225C32.1875 199.225 31.8111 199.379 31.5336 199.652Z" fill="#661FFF"/>
<path d="M272.78 138.268C272.614 139.05 272.316 140.516 272.018 142.041L278.052 137.381L272.78 138.268Z" fill="#661FFF"/>
<path d="M252.922 117.805C252.995 118.193 253.041 118.585 253.055 118.978L254.451 117.121L252.922 117.805Z" fill="#661FFF"/>
<path d="M277.554 94.1536C277.545 93.5981 277.332 93.0644 276.954 92.6513C276.577 92.2379 276.059 91.973 275.498 91.9052C275.861 91.4655 276.05 90.9104 276.025 90.3444C276.001 89.7783 275.767 89.2405 275.369 88.832C274.97 88.4234 274.432 88.1724 273.856 88.1264C273.282 88.0803 272.71 88.2422 272.249 88.5816C272.172 88.006 271.888 87.4771 271.445 87.0928C271.003 86.7083 270.434 86.4942 269.843 86.4903C269.253 86.4863 268.681 86.6927 268.234 87.0712C267.786 87.4497 267.492 87.9746 267.409 88.549C266.955 88.2024 266.388 88.031 265.814 88.0677C265.241 88.1043 264.702 88.3463 264.297 88.7476C263.892 89.1491 263.653 89.6821 263.622 90.246C263.591 90.8099 263.77 91.3654 264.128 91.8075C263.559 91.8776 263.034 92.1498 262.655 92.5729C262.275 92.9958 262.065 93.5405 262.065 94.1047C262.065 94.6688 262.275 95.2135 262.655 95.6366C263.034 96.0595 263.559 96.3316 264.128 96.402C263.774 96.8446 263.598 97.3987 263.631 97.9606C263.664 98.5224 263.903 99.053 264.306 99.4531C264.709 99.8531 265.247 100.095 265.817 100.133C266.39 100.171 266.955 100.003 267.409 99.6605C267.477 100.221 267.749 100.738 268.176 101.114C268.604 101.49 269.157 101.7 269.731 101.704C270.305 101.708 270.862 101.506 271.295 101.136C271.727 100.765 272.008 100.252 272.083 99.693C272.535 100.041 273.101 100.216 273.673 100.185C274.246 100.154 274.788 99.9194 275.198 99.5245C275.608 99.1297 275.858 98.6016 275.902 98.0391C275.943 97.4764 275.778 96.9178 275.432 96.4671C276.017 96.4145 276.561 96.1471 276.954 95.7184C277.346 95.2896 277.561 94.7309 277.554 94.1536Z" fill="#661FFF"/>
<path d="M270.459 105.816C271.056 105.649 271.574 105.284 271.928 104.783C272.281 104.282 272.447 103.676 272.396 103.069C272.345 102.462 272.08 101.89 271.649 101.453C271.218 101.015 270.644 100.739 270.028 100.671C270.436 100.241 270.688 99.6908 270.742 99.1057C270.796 98.5205 270.649 97.9345 270.325 97.4404C270.002 96.9465 269.518 96.5728 268.955 96.3788C268.389 96.1848 267.777 96.1814 267.21 96.3694C267.348 95.7912 267.285 95.1841 267.028 94.6461C266.774 94.108 266.341 93.67 265.802 93.4028C265.261 93.1356 264.646 93.0548 264.053 93.1733C263.462 93.2916 262.928 93.6026 262.537 94.0558C262.397 93.452 262.053 92.9124 261.563 92.5247C261.071 92.1367 260.462 91.9237 259.832 91.92C259.2 91.9162 258.588 92.122 258.092 92.5038C257.597 92.8857 257.246 93.4211 257.099 94.0233C256.717 93.565 256.19 93.247 255.6 93.1208C255.012 92.9946 254.396 93.0676 253.855 93.328C253.314 93.5882 252.878 94.0207 252.618 94.5549C252.36 95.0893 252.29 95.6942 252.424 96.2716C251.859 96.0722 251.243 96.0644 250.674 96.2495C250.104 96.4347 249.613 96.8019 249.282 97.2927C248.948 97.7836 248.793 98.3697 248.838 98.9578C248.886 99.5457 249.13 100.102 249.535 100.537C248.92 100.604 248.35 100.876 247.917 101.308C247.484 101.741 247.216 102.307 247.156 102.911C247.099 103.515 247.254 104.12 247.596 104.625C247.938 105.129 248.448 105.503 249.037 105.682C248.729 105.858 248.46 106.093 248.245 106.373C248.031 106.653 247.875 106.973 247.79 107.313C247.702 107.653 247.687 108.007 247.741 108.353C247.797 108.7 247.921 109.032 248.109 109.33C250.573 98.4651 255.623 103.842 256.332 108.129C256.497 108.815 256.928 108.846 257.823 107.838C259.68 105.687 262.17 109.028 258.453 111.942C258.247 112.103 257.972 113.387 258.188 116.438C258.527 116.31 258.836 116.117 259.097 115.871C259.359 115.625 259.568 115.331 259.713 115.005C259.952 115.563 260.38 116.023 260.924 116.307C261.471 116.59 262.097 116.68 262.703 116.562C263.306 116.443 263.851 116.122 264.242 115.655C264.634 115.187 264.849 114.6 264.851 113.994C265.337 114.328 265.922 114.492 266.515 114.462C267.107 114.432 267.672 114.208 268.121 113.827C268.569 113.446 268.876 112.929 268.993 112.357C269.108 111.786 269.028 111.192 268.763 110.671C269.143 110.719 269.529 110.687 269.895 110.577C270.262 110.466 270.599 110.279 270.885 110.028C271.171 109.778 271.4 109.47 271.553 109.126C271.708 108.781 271.785 108.408 271.78 108.031C271.768 107.582 271.64 107.144 271.41 106.756C271.18 106.369 270.852 106.045 270.459 105.816Z" fill="#661FFF"/>
<path d="M261.476 151.263C261.502 151.583 261.399 151.9 261.186 152.144C260.975 152.389 260.673 152.541 260.349 152.567C260.024 152.593 259.701 152.49 259.452 152.283C259.204 152.075 259.049 151.779 259.023 151.459C258.996 151.139 259.099 150.822 259.312 150.578C259.523 150.333 259.825 150.181 260.15 150.155C260.474 150.129 260.797 150.232 261.047 150.439C261.295 150.647 261.45 150.944 261.476 151.263Z" fill="#661FFF"/>
<path d="M248.777 142.96C248.803 143.279 248.7 143.596 248.488 143.841C248.276 144.085 247.975 144.237 247.65 144.263C247.325 144.289 247.003 144.187 246.753 143.979C246.505 143.771 246.35 143.475 246.324 143.155C246.298 142.835 246.401 142.518 246.613 142.274C246.825 142.029 247.127 141.878 247.451 141.852C247.776 141.826 248.098 141.928 248.348 142.136C248.596 142.343 248.751 142.64 248.777 142.96Z" fill="#661FFF"/>
<path d="M260.249 133.314C260.275 133.634 260.172 133.951 259.959 134.195C259.748 134.44 259.446 134.592 259.122 134.617C258.797 134.643 258.474 134.541 258.225 134.333C257.977 134.126 257.822 133.829 257.796 133.51C257.769 133.19 257.872 132.873 258.085 132.628C258.296 132.384 258.598 132.232 258.923 132.206C259.247 132.18 259.57 132.282 259.82 132.49C260.067 132.698 260.223 132.994 260.249 133.314Z" fill="#661FFF"/>
<path d="M31.5336 199.652L18.6363 212.325C17.2578 213.68 19.378 215.781 20.7303 214.383L33.6276 201.708C33.9051 201.435 34.0609 201.065 34.0607 200.679C34.0606 200.293 33.9044 199.923 33.6268 199.65C33.3491 199.377 32.9726 199.225 32.5799 199.225C32.1875 199.225 31.8111 199.379 31.5336 199.652Z" stroke="#1F1F1F" stroke-linejoin="round"/>
<path d="M276.954 92.6513C277.333 93.0644 277.545 93.5981 277.554 94.1536C277.561 94.7309 277.347 95.2896 276.954 95.7184C276.561 96.1471 276.017 96.4145 275.432 96.4671C275.778 96.9178 275.944 97.4764 275.902 98.0391C275.858 98.6016 275.609 99.1297 275.198 99.5245C274.788 99.9194 274.246 100.154 273.673 100.185C273.101 100.216 272.536 100.041 272.084 99.693C272.009 100.252 271.728 100.765 271.295 101.136L271.284 101.144C271.414 101.236 271.536 101.339 271.649 101.453C272.08 101.89 272.345 102.462 272.396 103.069C272.447 103.676 272.281 104.282 271.928 104.783C271.574 105.284 271.056 105.649 270.459 105.816C270.852 106.045 271.18 106.369 271.41 106.756C271.64 107.144 271.768 107.582 271.78 108.031C271.785 108.408 271.708 108.781 271.553 109.126C271.4 109.47 271.171 109.778 270.885 110.028C270.599 110.279 270.262 110.466 269.895 110.577C269.529 110.687 269.143 110.719 268.763 110.671C269.028 111.192 269.108 111.786 268.993 112.357C268.876 112.929 268.569 113.446 268.121 113.827C267.672 114.208 267.107 114.432 266.515 114.462C265.922 114.492 265.337 114.328 264.851 113.994C264.849 114.6 264.634 115.187 264.242 115.655C263.851 116.122 263.306 116.443 262.703 116.562C262.097 116.68 261.471 116.59 260.924 116.307C260.38 116.023 259.952 115.563 259.713 115.005C259.568 115.331 259.359 115.625 259.097 115.871C258.836 116.117 258.527 116.31 258.188 116.438C257.972 113.387 258.247 112.103 258.453 111.942C262.17 109.028 259.68 105.687 257.823 107.838C256.928 108.846 256.497 108.815 256.332 108.129C255.623 103.842 250.573 98.4651 248.109 109.33C247.921 109.032 247.797 108.7 247.741 108.353C247.687 108.007 247.702 107.653 247.79 107.313C247.875 106.973 248.031 106.653 248.245 106.373C248.46 106.093 248.729 105.858 249.037 105.682C248.448 105.503 247.938 105.129 247.596 104.625C247.254 104.12 247.099 103.515 247.156 102.911C247.216 102.307 247.484 101.741 247.917 101.308C248.35 100.876 248.92 100.604 249.535 100.537C249.13 100.102 248.886 99.5457 248.838 98.9578C248.793 98.3698 248.948 97.7836 249.282 97.2927C249.613 96.8019 250.104 96.4347 250.674 96.2495C251.243 96.0645 251.859 96.0722 252.424 96.2716C252.29 95.6942 252.36 95.0893 252.618 94.5549C252.878 94.0207 253.314 93.5882 253.855 93.328C254.396 93.0677 255.012 92.9946 255.6 93.1208C256.19 93.247 256.717 93.565 257.099 94.0233C257.246 93.4211 257.597 92.8857 258.092 92.5038C258.588 92.122 259.2 91.9162 259.832 91.92C260.462 91.9238 261.071 92.1368 261.563 92.5247C261.828 92.7348 262.052 92.9896 262.223 93.275C262.322 93.0195 262.467 92.7814 262.655 92.5729C263.034 92.1498 263.559 91.8776 264.128 91.8075C263.77 91.3654 263.591 90.8099 263.622 90.246C263.654 89.6821 263.893 89.1491 264.297 88.7476C264.702 88.3463 265.241 88.1043 265.814 88.0677C266.388 88.031 266.955 88.2024 267.409 88.549C267.493 87.9746 267.786 87.4497 268.234 87.0712C268.681 86.6927 269.253 86.4863 269.843 86.4903C270.435 86.4942 271.003 86.7083 271.445 87.0928C271.888 87.4771 272.173 88.006 272.249 88.5816C272.71 88.2422 273.282 88.0803 273.857 88.1264C274.432 88.1724 274.97 88.4234 275.369 88.832C275.767 89.2405 276.001 89.7783 276.026 90.3444C276.05 90.9104 275.862 91.4655 275.499 91.9052C276.059 91.973 276.577 92.2379 276.954 92.6513Z" stroke="#1F1F1F" stroke-linejoin="round"/>
<path d="M221.76 184.305H207.967" stroke="#1F1F1F" stroke-linecap="round" stroke-linejoin="round"/>
<path d="M236.114 184.304H282.69C284.14 184.302 285.529 183.735 286.555 182.728C287.58 181.72 288.157 180.354 288.159 178.929V129.566" stroke="#1F1F1F" stroke-linecap="round" stroke-linejoin="round"/>
<path d="M288.162 105.847V102.883C288.161 101.458 287.585 100.09 286.559 99.0824C285.533 98.0743 284.14 97.5077 282.69 97.5068H275.874" stroke="#1F1F1F" stroke-linecap="round" stroke-linejoin="round"/>
<path d="M210.447 97.5068H180.607C179.157 97.5082 177.766 98.075 176.74 99.0831C175.714 100.091 175.138 101.458 175.137 102.883V116.665" stroke="#1F1F1F" stroke-linecap="round" stroke-linejoin="round"/>
<path d="M252.856 94.004V90.0449H210.454V101.417H247.462" stroke="#1F1F1F" stroke-linecap="round" stroke-linejoin="round"/>
<path d="M235.186 86.2646C235.186 86.9476 234.98 87.6155 234.594 88.1835C234.207 88.7515 233.659 89.1941 233.017 89.4557C232.375 89.717 231.668 89.7855 230.986 89.6522C230.303 89.5189 229.679 89.19 229.187 88.7069C228.695 88.2238 228.359 87.6084 228.225 86.9384C228.089 86.2683 228.159 85.5739 228.424 84.9428C228.691 84.3115 229.141 83.7721 229.719 83.3926C230.296 83.0131 230.977 82.8105 231.671 82.8105C232.603 82.8109 233.497 83.175 234.156 83.8227C234.814 84.4703 235.186 85.3486 235.186 86.2646Z" stroke="#1F1F1F" stroke-linecap="round" stroke-linejoin="round"/>
<path d="M277.057 114.482V108.682H271.812" stroke="#1F1F1F" stroke-linecap="round" stroke-linejoin="round"/>
<path d="M214.002 119.532H186.188V108.682H214.002V119.532Z" stroke="#1F1F1F" stroke-linecap="round" stroke-linejoin="round"/>
<path d="M193.116 130.512H214.002V139.636H200.244" stroke="#1F1F1F" stroke-linecap="round" stroke-linejoin="round"/>
<path d="M186.188 155.666V150.681H188.111" stroke="#1F1F1F" stroke-linecap="round" stroke-linejoin="round"/>
<path d="M195.238 159.771H191.06" stroke="#1F1F1F" stroke-linecap="round" stroke-linejoin="round"/>
<path d="M209.293 150.681H214.001V155.829" stroke="#1F1F1F" stroke-linecap="round" stroke-linejoin="round"/>
<path d="M197.691 169.969H204.687" stroke="#1F1F1F" stroke-linecap="round" stroke-linejoin="round"/>
<path d="M208.233 173.455H199.515" stroke="#1F1F1F" stroke-linecap="round" stroke-linejoin="round"/>
<path d="M228.588 169.969H277.057V173.423H235.385" stroke="#1F1F1F" stroke-linecap="round" stroke-linejoin="round"/>
<path d="M86.3006 89.5557C83.2398 90.5409 80.6173 92.5314 78.8738 95.1929C77.6207 95.1654 76.3951 94.8265 75.3112 94.2078C74.2272 93.589 73.3205 92.7107 72.6752 91.6545C72.0301 90.5984 71.6675 89.3989 71.6213 88.1679C71.575 86.9369 71.8469 85.7142 72.4112 84.6144C72.9756 83.5144 73.814 82.5729 74.8486 81.8773C75.8832 81.1818 77.0801 80.7551 78.3278 80.6372C79.5755 80.519 80.8331 80.7133 81.9838 81.2019C83.1344 81.6905 84.1404 82.4575 84.908 83.4314C85.5952 84.2829 86.0774 85.2761 86.3185 86.3366C86.5597 87.3973 86.5536 88.4977 86.3006 89.5557Z" stroke="#1F1F1F" stroke-linecap="round" stroke-linejoin="round"/>
<path d="M109.935 130.186C99.7563 122.297 91.5688 125.298 90.5078 116.763" stroke="#1F1F1F" stroke-linecap="round" stroke-linejoin="round"/>
<path d="M99.3622 113.705C96.7562 115.509 93.6928 116.57 90.5115 116.768C90.5115 116.768 90.3789 113.998 90.4121 113.281C94.2231 117.094 96.7429 112.662 96.975 103.573C94.6048 103.384 92.2844 102.8 90.1137 101.846C89.6826 103.67 88.7875 106.178 88.0581 104.746C86.6324 101.943 84.3935 104.243 86.5329 106.699C86.8383 107.052 86.334 111.294 84.2784 115.074C82.5009 114.059 80.9086 112.759 79.5669 111.228C77.8585 109.06 76.8429 106.442 76.6485 103.706C76.4542 100.97 77.0895 98.2384 78.4745 95.8573C79.8595 93.4762 81.9319 91.5521 84.4293 90.3286C86.9269 89.105 89.7376 88.6368 92.5061 88.9831C95.2743 89.3295 97.8761 90.4748 99.9822 92.2743C102.088 94.0739 103.604 96.4467 104.338 99.0928C105.072 101.739 104.991 104.54 104.105 107.141C103.219 109.742 101.569 112.026 99.3622 113.705Z" stroke="#1F1F1F" stroke-linecap="round" stroke-linejoin="round"/>
<path d="M90.5111 116.762C89.8059 116.026 89.2789 115.142 88.969 114.177C88.6589 113.213 88.5741 112.192 88.7207 111.19C89.2203 111.933 89.7862 112.631 90.4116 113.276" stroke="#1F1F1F" stroke-linecap="round" stroke-linejoin="round"/>
<path d="M76.918 121.39C83.0848 124.42 89.482 125.135 94.7868 122.856" stroke="#1F1F1F" stroke-linecap="round" stroke-linejoin="round"/>
<path d="M101.252 132.728C104.269 137.974 101.252 150.615 100.622 155.209C101.116 156.672 101.784 158.072 102.611 159.38" stroke="#1F1F1F" stroke-linecap="round" stroke-linejoin="round"/>
<path d="M71.4488 142.666C70.9177 141.064 70.5402 139.417 70.3216 137.746L66.144 144.848" stroke="#1F1F1F" stroke-linecap="round" stroke-linejoin="round"/>
<path d="M73.9006 159.38C75.1203 158.105 76.1984 156.707 77.1166 155.207C74.791 151.23 72.8918 147.027 71.4488 142.664C66.3833 144.939 61.0802 146.664 55.6339 147.809C52.5365 148.486 49.2978 148.125 46.4327 146.785C43.5676 145.446 41.2403 143.203 39.8207 140.414L26.1626 113.504C28.0215 111.32 30.3433 109.562 32.9655 108.352C35.5877 107.142 38.4472 106.509 41.3441 106.498L53.3462 130.316C62.4361 127.755 71.234 124.284 79.6015 119.956C81.599 118.804 83.2119 117.106 84.2432 115.068" stroke="#1F1F1F" stroke-linecap="round" stroke-linejoin="round"/>
<path d="M156.3 97.5068H126.879" stroke="#1F1F1F" stroke-linecap="round" stroke-linejoin="round"/>
<path d="M77.4342 97.5068H54.6392C53.189 97.5086 51.7989 98.0757 50.7735 99.0836C49.7484 100.092 49.1718 101.458 49.1704 102.883V121.879" stroke="#1F1F1F" stroke-linecap="round" stroke-linejoin="round"/>
<path d="M109.574 101.417H104.7M111.298 101.417H126.879V90.0449H96.8472" stroke="#1F1F1F" stroke-linecap="round" stroke-linejoin="round"/>
<path d="M109.209 86.2646C109.209 86.9476 109.003 87.6155 108.617 88.1835C108.231 88.7515 107.682 89.1941 107.04 89.4557C106.397 89.717 105.691 89.7855 105.009 89.6522C104.327 89.5189 103.701 89.19 103.21 88.7069C102.718 88.2238 102.383 87.6084 102.248 86.9384C102.112 86.2683 102.182 85.5739 102.448 84.9428C102.714 84.3115 103.164 83.7721 103.742 83.3926C104.32 83.0131 105 82.8105 105.695 82.8105C106.627 82.8109 107.52 83.175 108.179 83.8227C108.838 84.4703 109.209 85.3486 109.209 86.2646Z" stroke="#1F1F1F" stroke-linecap="round" stroke-linejoin="round"/>
<path d="M112.224 135.66V159.38H60.2427V146.737" stroke="#1F1F1F" stroke-linecap="round" stroke-linejoin="round"/>
<path d="M60.2427 128.101V108.291H77.6524" stroke="#1F1F1F" stroke-linecap="round" stroke-linejoin="round"/>
<path d="M151.145 118.686H123.331V108.291H151.145V118.686Z" stroke="#1F1F1F" stroke-linecap="round" stroke-linejoin="round"/>
<path d="M151.145 173.455H60.2427V169.969H151.145V173.455Z" stroke="#1F1F1F" stroke-linecap="round" stroke-linejoin="round"/>
<path d="M151.145 143.188V159.381H123.331V155.177" stroke="#1F1F1F" stroke-linecap="round" stroke-linejoin="round"/>
<path d="M126.746 127.253H141.366" stroke="#1F1F1F" stroke-linecap="round" stroke-linejoin="round"/>
<path d="M323.203 304.533H25.7646" stroke="#1F1F1F" stroke-linecap="round" stroke-linejoin="round"/>
<path d="M173.755 116.339C170.539 119.337 165.728 118.946 160.064 116.665C161.954 116.177 161.46 111.321 161.688 109.236C159.169 111.484 156.583 113.244 155.687 111.843C154.858 110.376 154.792 107.183 156.118 98.5498C156.947 98.9822 157.812 99.342 158.704 99.6251C158.373 102.949 159.54 103.148 160.23 101.971C161.503 99.7949 164.009 101.58 161.556 104.904C162.816 106.173 168.012 111.592 168.85 112.494C170.162 114.13 171.841 115.446 173.755 116.339Z" stroke="#1F1F1F" stroke-linecap="round" stroke-linejoin="round"/>
<path d="M173.755 116.339C178.754 117.539 183.304 120.11 186.874 123.753C196.672 132.863 204.06 148.006 225.142 166.515C224.116 169.19 222.507 171.612 220.427 173.61C218.347 175.609 215.846 177.136 213.101 178.082C200.836 166.612 192.348 157.588 183.436 143.837" stroke="#1F1F1F" stroke-linecap="round" stroke-linejoin="round"/>
<path d="M161.688 109.235C161.589 110.18 161.589 111.451 161.555 112.689C159.566 112.885 156.615 112.983 155.985 112.266L155.687 111.875C156.582 113.276 159.168 111.516 161.688 109.235Z" stroke="#1F1F1F" stroke-linecap="round" stroke-linejoin="round"/>
<path d="M130.46 134.285V142.366C131.449 140.939 132.379 139.61 133.264 138.377" stroke="#1F1F1F" stroke-linecap="round" stroke-linejoin="round"/>
<path d="M153.002 140.483C149.341 146.316 144.944 151.669 139.914 156.415C134.906 161.072 126.183 159.482 122.277 153.906C116.792 145.745 112.36 136.945 109.083 127.71C113.445 124.121 118.883 122.038 124.565 121.781C126.606 127.712 129.54 133.309 133.271 138.384C136.691 133.518 139.248 129.929 141.34 127.253C146.015 121.194 148.297 119.677 152.71 118.457C154.864 117.862 157.717 117.257 160.039 116.665" stroke="#1F1F1F" stroke-linecap="round" stroke-linejoin="round"/>
<path d="M179.159 189.42C179.159 189.42 183.635 181.274 183.933 177.854L183.469 192.972" stroke="#1F1F1F" stroke-linecap="round" stroke-linejoin="round"/>
<path d="M152.04 135.953C152.04 135.953 156.053 154.753 157.941 157.62C152.305 193.493 145.344 266.086 144.018 278.825C151.537 281.984 159.912 282.592 167.822 280.552C167.822 280.552 177.594 206.362 179.164 189.42L203.697 209.816C205.784 211.573 208.241 212.852 210.89 213.564L246.76 223.305" stroke="#1F1F1F" stroke-linecap="round" stroke-linejoin="round"/>
<path d="M265.62 203.789C259.338 203.446 254.103 234.986 258.879 241.601C259.071 241.917 259.333 242.188 259.645 242.392C259.958 242.596 260.314 242.728 260.683 242.779C261.055 242.831 261.434 242.802 261.792 242.69C262.149 242.58 262.477 242.392 262.751 242.141C269.456 236.967 273.394 204.207 265.62 203.789Z" stroke="#1F1F1F" stroke-linecap="round" stroke-linejoin="round"/>
<path d="M147.732 280.259L147.208 284.625C146.964 286.75 146.159 288.775 144.873 290.501C143.588 292.228 141.866 293.593 139.879 294.464C134.677 296.754 129.769 299.64 125.26 303.067C125.124 303.173 125.025 303.319 124.977 303.483C124.929 303.646 124.935 303.821 124.992 303.982C125.05 304.144 125.156 304.282 125.298 304.382C125.44 304.48 125.609 304.533 125.783 304.533C140.602 304.533 153.033 304.403 164.871 304.37C165 300.516 164.405 296.673 163.114 293.032C162.951 292.538 162.906 292.015 162.981 291.501C163.269 289.316 163.91 283.322 164.109 281.236" stroke="#1F1F1F" stroke-linecap="round" stroke-linejoin="round"/>
<path d="M256.005 201.996C255.279 199.654 253.609 198.354 251.379 199.491C246.689 201.88 242.047 214.178 244.471 220.736C245.584 223.746 248.018 224.552 250.966 221.448" stroke="#1F1F1F" stroke-linecap="round" stroke-linejoin="round"/>
<path d="M250.004 200.497C255.128 201.895 260.33 202.994 265.586 203.788" stroke="#1F1F1F" stroke-linecap="round" stroke-linejoin="round"/>
<path d="M244 218.903C246.228 219.248 248.389 219.931 250.402 220.927C252.516 222.657 253.146 225.215 253.95 227.959C255.609 233.635 255.958 240.907 259.801 242.461" stroke="#1F1F1F" stroke-linecap="round" stroke-linejoin="round"/>
<path d="M106.523 109.333C107.622 109.386 108.698 109.665 109.68 110.152C110.662 110.639 111.529 111.323 112.224 112.161" stroke="#1F1F1F" stroke-linecap="round" stroke-linejoin="round"/>
<path d="M113.949 110.376C113.397 109.773 112.774 109.237 112.094 108.779" stroke="#1F1F1F" stroke-linecap="round" stroke-linejoin="round"/>
<path d="M106.125 115.395C107.002 116.564 107.736 117.83 108.314 119.168" stroke="#1F1F1F" stroke-linecap="round" stroke-linejoin="round"/>
<path d="M105.064 112.136C106.357 111.745 108.579 112.429 110.668 114.58" stroke="#1F1F1F" stroke-linecap="round" stroke-linejoin="round"/>
<path d="M110.303 126.765C110.098 124.14 109.425 121.57 108.314 119.174C104.799 118.751 103.211 114.402 104.136 112.829C104.341 112.489 104.675 112.242 105.064 112.143C104.808 111.484 104.785 110.759 104.998 110.085C105.164 109.838 105.391 109.636 105.657 109.499C105.924 109.363 106.222 109.295 106.523 109.303C106.521 108.956 106.588 108.613 106.722 108.293C107.265 107.192 109.706 107.217 112.093 108.781C108.645 102.397 109.401 97.9358 110.038 99.2684C112.198 103.227 114.577 107.066 117.164 110.769C117.264 109.792 117.531 108.104 118.258 107.967C119.089 107.812 121.541 117.612 122.568 121.881" stroke="#1F1F1F" stroke-linecap="round" stroke-linejoin="round"/>
<path d="M236.114 182.382C234.727 181.862 233.374 181.254 232.069 180.559C233.547 182.053 235.107 183.468 236.744 184.793C238.91 186.21 237.842 187.556 235.153 186.357C233.479 185.55 231.862 184.632 230.312 183.613C231.572 185.08 232.703 186.478 233.23 186.937C235.163 188.62 233.936 189.82 231.472 188.309C230.028 187.373 228.644 186.351 227.328 185.246C227.715 186.021 228.171 186.762 228.687 187.462C230.396 189.304 229.316 190.034 226.996 188.407C222.531 185.075 218.301 181.451 214.333 177.558C218.912 175.637 222.608 172.12 224.711 167.685C226.565 169.113 228.698 170.155 230.975 170.748C237.904 172.473 237.142 174.43 228.82 173.973C231.406 176.536 234.301 178.779 237.44 180.652C239.601 182.048 238.904 183.379 236.114 182.382Z" stroke="#1F1F1F" stroke-linecap="round" stroke-linejoin="round"/>
<path d="M228.919 178.703C229.682 179.192 230.776 179.876 232.069 180.56" stroke="#1F1F1F" stroke-linecap="round" stroke-linejoin="round"/>
<path d="M228.787 173.977C228.29 173.462 227.759 172.934 227.262 172.348" stroke="#1F1F1F" stroke-linecap="round" stroke-linejoin="round"/>
<path d="M226.335 180.948C227.063 181.463 228.588 182.512 230.312 183.588" stroke="#1F1F1F" stroke-linecap="round" stroke-linejoin="round"/>
<path d="M224.407 182.675C225.004 183.261 226.098 184.206 227.289 185.216" stroke="#1F1F1F" stroke-linecap="round" stroke-linejoin="round"/>
<path d="M156.118 98.5497C156.35 97.2463 156.617 95.5193 157.013 93.8901C157.647 91.285 160.163 91.2507 159.997 92.717C161.589 89.8821 164.109 90.9248 163.678 92.1631C165.136 89.6214 167.921 90.6642 167.258 91.9676C168.883 89.7518 171.5 90.6967 170.87 92.1305C172.528 89.9799 175.379 91.0226 173.556 93.9552C171.422 97.3852 164.964 107.21 168.53 112.165" stroke="#1F1F1F" stroke-linecap="round" stroke-linejoin="round"/>
<path d="M304.539 123.769L325.922 141.689L304.539 159.576" stroke="#1F1F1F" stroke-linecap="round" stroke-linejoin="round"/>
<path d="M30.8374 124.388L10.9131 141.102L32.2631 158.99" stroke="#1F1F1F" stroke-linecap="round" stroke-linejoin="round"/>
<path d="M152.736 118.457C152.736 118.457 159.832 144.163 153.036 140.459" stroke="#1F1F1F" stroke-linecap="round" stroke-linejoin="round"/>
<path d="M180.258 118.85C182.998 121.496 184.071 130.416 183.748 136.085C183.295 142.216 183.361 148.374 183.947 154.494C191.295 157.744 195.379 165.203 198.501 171.502C202.678 180.007 213.159 189.427 213.159 189.427L253.533 199.165" stroke="#1F1F1F" stroke-linecap="round" stroke-linejoin="round"/>
<path d="M156.98 117.415C158.172 120.761 159.06 124.204 159.633 127.705L178.304 127.216C177.653 123.703 176.744 120.24 175.585 116.855" stroke="#1F1F1F" stroke-linecap="round" stroke-linejoin="round"/>
<path d="M40.0528 193.33L32.5615 200.693" stroke="#1F1F1F" stroke-linecap="round" stroke-linejoin="round"/>
<path d="M49.1704 147.878V178.93C49.1722 180.355 49.7491 181.72 50.7742 182.728C51.7994 183.735 53.1893 184.303 54.6392 184.305H154.258" stroke="#1F1F1F" stroke-linecap="round" stroke-linejoin="round"/>
<path d="M58.6511 175.052C60.49 176.86 61.7424 179.163 62.2497 181.671C62.757 184.176 62.4966 186.776 61.5013 189.138C60.5059 191.499 58.8204 193.516 56.6578 194.938C54.4953 196.358 51.9528 197.116 49.352 197.116C46.7511 197.116 44.2087 196.358 42.0462 194.938C39.8837 193.516 38.1982 191.499 37.2028 189.138C36.2075 186.776 35.9469 184.176 36.4542 181.671C36.9615 179.163 38.2139 176.86 40.0529 175.052C42.5207 172.631 45.8652 171.271 49.352 171.271C52.8389 171.271 56.1834 172.631 58.6511 175.052Z" stroke="#1F1F1F" stroke-linecap="round" stroke-linejoin="round"/>
<path d="M144.416 45.5059H130.095" stroke="#1F1F1F" stroke-linecap="round" stroke-linejoin="round"/>
<path d="M137.272 52.5428V38.4678" stroke="#1F1F1F" stroke-linecap="round" stroke-linejoin="round"/>
<path d="M214.598 246.667C214.67 247.473 214.497 248.281 214.102 248.991C213.706 249.699 213.106 250.277 212.377 250.651C211.647 251.025 210.822 251.177 210.003 251.09C209.185 251.002 208.412 250.678 207.782 250.159C207.15 249.639 206.691 248.948 206.461 248.171C206.231 247.396 206.239 246.569 206.486 245.797C206.733 245.026 207.206 244.345 207.848 243.837C208.491 243.331 209.269 243.022 210.089 242.952C211.188 242.858 212.281 243.196 213.125 243.892C213.972 244.588 214.5 245.586 214.598 246.667Z" stroke="#1F1F1F" stroke-linecap="round" stroke-linejoin="round"/>
<path d="M336.93 83.5617C335.469 84.5711 333.902 85.4232 332.255 86.1033C332.52 85.9078 334.41 83.6595 336.631 80.9223C339.284 77.6638 338.551 76.1975 334.874 79.4886C333.571 80.6706 332.173 81.7493 330.697 82.7145C330.862 82.4864 333.314 78.7065 334.974 75.611C336.83 72.0918 335.497 71.2446 332.785 74.6334C332.642 74.8049 327.887 80.3564 326.519 81.8364L327.51 80.7302C327.782 78.9041 328.318 77.1258 329.105 75.4497C330.597 72.0197 329.342 71.0302 326.95 74.7003C326.821 74.8975 323.35 80.413 322.706 81.1521C322.183 81.7472 321.247 82.7162 320.686 82.5241C318.63 81.7747 316.21 76.9521 314.452 77.7993C313.325 78.3138 315.215 81.4488 316.309 83.6972C317.122 85.3796 315.599 87.4239 313.955 88.7461C317.784 91.4526 320.722 95.2021 322.408 99.5318C329.337 93.8294 331.094 91.8143 336.399 87.0517C336.996 86.4995 337.692 85.8512 338.455 85.0658C341.306 82.128 340.776 80.9223 336.93 83.5617Z" stroke="#1F1F1F" stroke-linecap="round" stroke-linejoin="round"/>
<path d="M278.052 137.388L272.78 138.267C272.614 139.05 272.316 140.516 272.018 142.04" stroke="#1F1F1F" stroke-linecap="round" stroke-linejoin="round"/>
<path d="M261.509 122.237C262.935 122.824 264.921 122.688 267.641 121.292C271.02 119.558 311.004 88.4155 311.004 88.4155C314.552 85.7778 325.757 100.763 322.076 103.405L272.018 142.047C270.927 147.784 270.384 153.609 270.393 159.446" stroke="#1F1F1F" stroke-linecap="round" stroke-linejoin="round"/>
<path d="M250.634 124.681C251.591 123.807 252.297 122.703 252.688 121.478C253.079 120.254 253.14 118.95 252.864 117.696C250.76 118.31 245.693 118.972 248.28 108.423C250.723 98.5652 255.501 104.082 256.267 107.895C256.43 108.709 256.756 109.044 257.796 107.837C259.649 105.684 262.143 109.037 258.426 111.942C257.902 112.357 257.253 120.45 261.476 122.232C256.735 131.359 253.088 132.207 250.634 124.681Z" stroke="#1F1F1F" stroke-linecap="round" stroke-linejoin="round"/>
<path d="M252.864 117.694C253.374 117.536 254.039 117.255 254.447 117.121L253.025 118.978" stroke="#1F1F1F" stroke-linecap="round" stroke-linejoin="round"/>
<path d="M225.075 147.78C232.666 136.214 239.463 129.21 247.518 126.439C248.666 126.065 249.727 125.467 250.634 124.681" stroke="#1F1F1F" stroke-linecap="round" stroke-linejoin="round"/>
<path d="M242.58 135.204C240.66 139.245 238.697 140.972 243.375 154.558C244.073 156.578 244.27 157.197 245.265 159.771" stroke="#1F1F1F" stroke-linecap="round" stroke-linejoin="round"/>
<path d="M254.116 129.697C252.126 138.202 252.624 148.171 254.978 159.185" stroke="#1F1F1F" stroke-linecap="round" stroke-linejoin="round"/>
<path d="M324.795 80.8896C327.632 82.3807 329.85 84.801 331.061 87.7308" stroke="#1F1F1F" stroke-linecap="round" stroke-linejoin="round"/>
<path d="M324.032 83.5615C325.856 86.7223 325.952 89.6858 323.509 92.1622" stroke="#1F1F1F" stroke-linecap="round" stroke-linejoin="round"/>
<path d="M241.949 150.159C239.756 153.657 237.102 156.856 234.059 159.674" stroke="#1F1F1F" stroke-linecap="round" stroke-linejoin="round"/>
<path d="M28.3339 111.367C27.081 108.349 25.6235 105.416 23.9714 102.59C22.2501 100.026 20.2489 97.6548 18.0035 95.5186C14.6879 92.3836 14.9881 91.1522 19.3628 93.4984C20.963 94.3559 35.8478 104.311 38.228 106.762" stroke="#1F1F1F" stroke-linecap="round" stroke-linejoin="round"/>
<path d="M30.2739 100.798C32.4953 102.101 31.0662 97.5393 31.0033 95.7797C30.9335 93.8572 31.5914 91.7426 33.3242 96.8224C34.5914 100.292 36.2244 103.623 38.1962 106.759" stroke="#1F1F1F" stroke-linecap="round" stroke-linejoin="round"/>
<path d="M18.6718 96.1707C17.5011 95.313 16.2836 94.519 15.0247 93.792C10.3132 91.1989 10.1509 92.8144 12.0408 94.2156C13.6653 95.4161 16.3841 97.3026 17.7417 98.582C19.9317 100.64 25.4005 104.708 26.4283 107.085" stroke="#1F1F1F" stroke-linecap="round" stroke-linejoin="round"/>
<path d="M11.7752 94.0201C8.69178 93.1729 8.45969 94.0476 8.89071 94.3134C10.5938 95.3698 13.5568 96.7693 15.1902 97.7022C16.1133 98.2304 19.7969 100.505 20.6921 101.156" stroke="#1F1F1F" stroke-linecap="round" stroke-linejoin="round"/>
<path d="M102.479 142.373L112.191 148.302" stroke="#1F1F1F" stroke-linecap="round" stroke-linejoin="round"/>
<path d="M248.114 108.682H225.075V159.771H277.057V138.267" stroke="#1F1F1F" stroke-linecap="round" stroke-linejoin="round"/>
<path d="M117.165 110.767C117.83 111.983 118.374 113.26 118.789 114.579" stroke="#1F1F1F" stroke-linecap="round" stroke-linejoin="round"/>
<path d="M155.388 140.06L156.441 143.48M147.731 280.161L148.005 277.599M159.784 154.343L160.793 157.621L160.52 160.178M159.614 168.685L159.065 173.835M158.157 182.345L157.626 187.334M156.719 195.84L156.15 201.177M155.257 209.56L154.722 214.58M153.802 223.211L153.255 228.336M152.35 236.832L151.8 241.985M150.897 250.461L150.358 255.519M149.467 263.883L148.914 269.067" stroke="#1F1F1F" stroke-linecap="round" stroke-linejoin="round"/>
<path d="M243.839 216.171L241.595 215.538M189.55 189.789L192.704 192.471M198.308 197.241L201.76 200.177M207.388 204.967L209.028 206.363L211.197 206.973M218.428 209.011L222.885 210.268M229.973 212.264L234.364 213.501" stroke="#1F1F1F" stroke-linecap="round" stroke-linejoin="round"/>
</svg>
