<svg width="349" height="343" viewBox="0 0 349 343" fill="none" xmlns="http://www.w3.org/2000/svg">
<path d="M236.714 97.8609C235.789 91.9465 230.696 85.8375 225.935 82.8802C225.439 82.556 224.944 82.2625 224.447 81.9707C213.668 89.3083 193.96 101.177 170.814 104.784C169.029 105.076 166.846 104.653 165.49 105.856C161.226 109.593 160.367 122.657 149.819 122.949C148.362 126.59 147.041 130.099 145.619 133.088C147.343 130.715 159.943 132.965 163.143 133.674C166.282 134.356 179.823 137.982 179.247 140.824C181.627 135.785 180.702 130.684 179.148 125.353C198.028 121.78 224.183 108.651 236.714 97.8609Z" fill="#EAE6FE"/>
<path d="M71.5856 152.685C68.2275 155.857 63.9875 157.98 59.4018 158.784C54.8163 159.588 50.091 159.037 45.8238 157.202C41.5565 155.367 37.9388 152.329 35.4282 148.473C32.9175 144.617 31.6268 140.116 31.719 135.539C31.8113 130.962 33.2825 126.515 35.9466 122.759C38.6106 119.004 42.3479 116.11 46.6858 114.442C51.0237 112.774 55.7674 112.408 60.317 113.39C64.8665 114.372 69.0176 116.658 72.2454 119.959C74.3904 122.149 76.0751 124.734 77.203 127.564C78.3308 130.395 78.8798 133.417 78.8187 136.456C78.7574 139.496 78.0871 142.493 76.8458 145.278C75.6047 148.063 73.8172 150.58 71.5856 152.685Z" fill="#EAE6FE"/>
<path d="M324.668 243.644C327.049 235.553 334.985 238.022 339.35 233.146C340.144 240.59 335.977 248.064 328.438 248.421L324.668 243.644Z" fill="#EAE6FE"/>
<path d="M145.221 259.663C142.212 261.387 136.592 257.812 130.442 250.986C130.549 253.341 131.229 255.638 132.425 257.682C136.592 265.351 136.394 284.265 141.023 282.937C142.313 282.547 143.834 276.112 145.19 268.737C145.892 265.174 146.819 261.657 147.968 258.206C147.393 258.495 145.798 259.286 145.221 259.663Z" fill="#661FFF"/>
<path d="M164.466 96.6914C165.073 98.4263 165.967 100.051 167.112 101.5C170.02 101.079 173.253 100.212 173.856 98.9012C173.961 98.6804 174.05 98.4523 174.121 98.2187C173.361 100.591 168.963 98.9985 164.466 96.6914Z" fill="#661FFF"/>
<path d="M168.367 79.2397C162.514 73.1956 143.436 77.9394 130.507 87.1371C117.513 96.3654 121.25 105.01 138.079 101.046C137.088 101.338 126.307 104.522 119.265 112.479C108.915 124.178 117.909 128.663 129.509 126.323C143.363 123.528 155.267 112.349 159.3 104.614C161.153 100.057 162.409 95.2868 163.04 90.4185C158.213 86.5518 161.156 83.0416 163.801 85.7071C165.223 87.1371 166.809 86.4545 165.058 81.7823C166.823 80.7055 168.943 80.3609 168.367 79.2397Z" fill="#661FFF"/>
<path d="M212.51 268.178C211.899 260.462 211.988 252.708 212.774 245.007C206.501 246.747 199.846 246.647 193.63 244.715C193.762 250.111 192.043 252.839 193.465 256.187C194.319 258.064 195.531 259.762 197.035 261.19C203.252 267.366 208.576 285.563 212.642 282.964C213.767 282.246 213.337 275.652 212.51 268.178Z" fill="#661FFF"/>
<path d="M150.313 132.049C150.016 133.557 149.55 135.028 148.924 136.436C143.535 133.803 144.792 132.081 150.313 132.049Z" fill="#661FFF"/>
<path d="M179.28 140.783C179.146 141.401 178.254 141.792 176.766 141.978C177.328 140.971 177.825 140.06 178.254 139.15C179.014 139.782 179.377 140.335 179.28 140.783Z" fill="#661FFF"/>
<path d="M194.092 190.64L190.619 200.421C190.487 196.619 190.355 192.882 190.288 189.21L194.092 190.64Z" fill="#661FFF"/>
<path d="M75.3427 259.696C66.4634 244.758 54.6811 232.035 49.1146 234.142C41.5809 236.996 51.8023 259.875 57.664 269.868C67.5174 286.637 79.4213 298.011 84.387 295.386C91.6047 291.434 79.8137 267.216 75.3427 259.696Z" fill="#661FFF"/>
<path d="M136.394 224.503C126.606 207.864 114.735 196.62 109.841 199.418C104.915 202.212 108.882 217.942 118.637 234.579C128.391 251.217 140.295 262.43 145.188 259.664C150.115 256.87 146.148 241.141 136.394 224.503Z" fill="#661FFF"/>
<path d="M147.966 258.201C146.821 261.652 145.893 265.169 145.188 268.732C143.847 276.11 142.314 282.554 141.021 282.933C136.401 284.298 136.574 265.356 132.423 257.677C131.225 255.635 130.545 253.338 130.44 250.981" stroke="#1F1F1F" stroke-linecap="round" stroke-linejoin="round"/>
<path d="M262.406 135.916C261.746 134.866 260.86 133.972 259.81 133.297C258.76 132.621 257.572 132.181 256.329 132.008C255.086 131.834 253.82 131.931 252.62 132.291C251.42 132.652 250.314 133.268 249.384 134.095C249.016 132.861 248.361 131.726 247.476 130.78C246.588 129.834 245.491 129.101 244.269 128.639C243.048 128.177 241.734 127.998 240.43 128.115C239.126 128.233 237.869 128.644 236.752 129.317C235.787 129.901 234.948 130.667 234.285 131.57C233.62 132.474 233.144 133.497 232.884 134.581C231.51 133.564 229.858 132.978 228.14 132.9C226.423 132.822 224.722 133.256 223.26 134.145C221.798 135.034 220.643 136.336 219.947 137.881C219.251 139.426 219.047 141.141 219.36 142.803C218.244 142.515 217.08 142.451 215.94 142.613C214.797 142.775 213.701 143.161 212.714 143.746C211.599 144.419 210.658 145.334 209.96 146.421C209.262 147.508 208.828 148.738 208.691 150.016C208.553 151.294 208.717 152.586 209.168 153.792C209.618 154.998 210.345 156.087 211.292 156.973C210.132 157.422 209.086 158.115 208.229 159.003C207.371 159.891 206.72 160.952 206.324 162.113C205.926 163.274 205.793 164.506 205.932 165.723C206.069 166.94 206.477 168.113 207.124 169.159C208.029 170.628 209.382 171.783 210.988 172.459C212.595 173.135 214.379 173.298 216.085 172.928L262.244 145.113C263.406 144.426 264.817 139.743 262.406 135.916Z" stroke="#1F1F1F" stroke-linecap="round" stroke-linejoin="round"/>
<path d="M227.39 148.816C228.481 149.826 229.184 151.175 229.382 152.635C229.58 154.095 229.26 155.577 228.476 156.833C227.691 158.088 226.491 159.039 225.078 159.527C223.663 160.014 222.121 160.008 220.711 159.509" stroke="#1F1F1F" stroke-linecap="round" stroke-linejoin="round"/>
<path d="M247.956 143.098C247.772 144.412 247.182 145.639 246.262 146.61C245.341 147.581 244.138 148.25 242.819 148.524C241.497 148.797 240.122 148.663 238.881 148.14C237.641 147.616 236.596 146.729 235.887 145.599C235.587 145.111 235.354 144.587 235.193 144.04" stroke="#1F1F1F" stroke-linecap="round" stroke-linejoin="round"/>
<path d="M249.378 134.095C248.489 134.919 247.751 135.887 247.196 136.956" stroke="#1F1F1F" stroke-linecap="round" stroke-linejoin="round"/>
<path d="M214.302 156.425C213.276 156.475 212.262 156.66 211.286 156.974" stroke="#1F1F1F" stroke-linecap="round" stroke-linejoin="round"/>
<path d="M232.879 134.583C232.662 135.642 232.627 136.729 232.773 137.8" stroke="#1F1F1F" stroke-linecap="round" stroke-linejoin="round"/>
<path d="M222.631 144.311C221.64 143.622 220.53 143.111 219.355 142.805" stroke="#1F1F1F" stroke-linecap="round" stroke-linejoin="round"/>
<path d="M274.178 154.698C271.725 150.727 266.662 150.019 265.78 150.669L219.586 178.52C218.265 179.3 216.45 184.018 218.959 188.008C219.612 189.05 220.489 189.941 221.527 190.615C222.567 191.291 223.744 191.733 224.977 191.912C226.21 192.089 227.467 192.001 228.661 191.651C229.854 191.301 230.957 190.699 231.887 189.885C232.417 191.675 233.542 193.239 235.08 194.33C236.619 195.42 238.484 195.973 240.38 195.903C242.276 195.832 244.093 195.14 245.543 193.937C246.993 192.736 247.991 191.091 248.382 189.267C249.747 190.294 251.396 190.893 253.113 190.984C254.831 191.076 256.536 190.654 258.006 189.775C259.475 188.897 260.64 187.603 261.349 186.062C262.055 184.521 262.272 182.806 261.972 181.143C263.804 181.598 265.738 181.443 267.471 180.702C269.203 179.96 270.638 178.673 271.546 177.046C272.454 175.416 272.785 173.537 272.488 171.701C272.192 169.867 271.284 168.181 269.907 166.909C271.079 166.472 272.14 165.787 273.013 164.902C273.884 164.017 274.549 162.954 274.957 161.788C275.364 160.623 275.506 159.383 275.371 158.158C275.237 156.933 274.829 155.751 274.178 154.698Z" stroke="#1F1F1F" stroke-linecap="round" stroke-linejoin="round"/>
<path d="M246.568 179.559C246.227 178.428 245.578 177.411 244.689 176.619C243.8 175.827 242.708 175.291 241.529 175.069C240.35 174.848 239.133 174.95 238.009 175.363C236.886 175.778 235.9 176.486 235.16 177.414C234.436 178.33 233.969 179.417 233.804 180.566" stroke="#1F1F1F" stroke-linecap="round" stroke-linejoin="round"/>
<path d="M261.084 164.162C259.812 163.73 258.433 163.694 257.138 164.06C255.844 164.425 254.695 165.174 253.849 166.205C253.004 167.235 252.5 168.496 252.412 169.817C252.321 171.138 252.648 172.455 253.346 173.586C253.644 174.078 254.013 174.527 254.438 174.919" stroke="#1F1F1F" stroke-linecap="round" stroke-linejoin="round"/>
<path d="M269.911 166.918C268.746 167.341 267.515 167.561 266.274 167.568" stroke="#1F1F1F" stroke-linecap="round" stroke-linejoin="round"/>
<path d="M233.717 187.54C233.222 188.407 232.606 189.2 231.887 189.9" stroke="#1F1F1F" stroke-linecap="round" stroke-linejoin="round"/>
<path d="M261.977 181.151C260.912 180.85 259.905 180.381 258.996 179.762" stroke="#1F1F1F" stroke-linecap="round" stroke-linejoin="round"/>
<path d="M248.481 185.794C248.639 186.953 248.606 188.127 248.387 189.275" stroke="#1F1F1F" stroke-linecap="round" stroke-linejoin="round"/>
<path d="M219.585 178.52L214.66 181.443" stroke="#1F1F1F" stroke-linecap="round" stroke-linejoin="round"/>
<path d="M216.082 172.93L211.22 175.822" stroke="#1F1F1F" stroke-linecap="round" stroke-linejoin="round"/>
<path d="M190.456 195.905L137.948 227.232" stroke="#1F1F1F" stroke-linecap="round" stroke-linejoin="round"/>
<path d="M189.397 188.853L134.607 221.578" stroke="#1F1F1F" stroke-linecap="round" stroke-linejoin="round"/>
<path d="M236.019 98.4455C247.779 97.3765 259.603 99.6694 270.068 105.048C280.532 110.427 289.195 118.663 295.009 128.765C312.574 158.431 303.373 196.746 274.475 214.331C256.398 225.33 251.382 219.515 216.28 229.347" stroke="#1F1F1F" stroke-linecap="round" stroke-linejoin="round"/>
<path d="M145.566 259.411C161.623 251.181 175.974 243.987 190.753 238.054" stroke="#1F1F1F" stroke-linecap="round" stroke-linejoin="round"/>
<path d="M147.404 171.727C136.262 180.501 124.059 189.048 109.808 199.383" stroke="#1F1F1F" stroke-linecap="round" stroke-linejoin="round"/>
<path d="M195.283 120.706C188.353 130.946 180.578 140.608 172.038 149.596" stroke="#1F1F1F" stroke-linecap="round" stroke-linejoin="round"/>
<path d="M224.414 82.0031C230.002 85.09 235.69 91.4277 236.714 97.8609C224.182 108.651 198.028 121.78 179.148 125.353C180.702 130.684 181.627 135.786 179.247 140.824C179.823 137.986 166.48 134.406 163.143 133.674C159.886 132.959 147.329 130.737 145.619 133.088C147.041 130.099 148.364 126.589 149.819 122.949C160.367 122.657 161.209 109.574 165.49 105.856C166.839 104.685 168.963 105.077 170.814 104.784C193.946 101.086 213.668 89.3152 224.447 81.9707L224.414 82.0031Z" stroke="#1F1F1F" stroke-linecap="round" stroke-linejoin="round"/>
<path d="M147.511 138.873C156.978 138.725 166.3 141.158 174.444 145.903" stroke="#1F1F1F" stroke-linecap="round" stroke-linejoin="round"/>
<path d="M173.968 98.5655C172.89 100.419 168.723 98.8761 164.466 96.6885C165.072 98.4236 165.967 100.048 167.112 101.497" stroke="#1F1F1F" stroke-linecap="round" stroke-linejoin="round"/>
<path d="M169.588 104.905C167.284 104.349 167.9 103.246 167.112 101.501C173.328 100.598 174.404 99.4733 174.149 96.412C173.776 91.965 171.119 82.276 168.367 79.2402" stroke="#1F1F1F" stroke-linecap="round" stroke-linejoin="round"/>
<path d="M179.148 125.353C177.229 125.711 175.378 125.97 173.658 126.134" stroke="#1F1F1F" stroke-linecap="round" stroke-linejoin="round"/>
<path d="M165.061 81.7762C166.813 86.4552 165.235 87.1378 163.804 85.701C161.158 83.0372 158.217 86.5542 163.044 90.4124C162.415 95.2824 161.159 100.054 159.307 104.613C155.274 112.348 143.37 123.527 129.516 126.322C117.909 128.662 108.916 124.177 119.272 112.478C126.315 104.516 137.095 101.332 138.087 101.045C121.257 105.009 117.524 96.3695 130.515 87.1361C143.447 77.9435 162.521 73.1946 168.374 79.2387C168.933 80.3513 166.761 80.7438 165.061 81.7762Z" stroke="#1F1F1F" stroke-linecap="round" stroke-linejoin="round"/>
<path d="M149.819 122.949C151.565 118.305 153.816 113.86 156.531 109.69C157.605 108.111 158.523 106.436 159.275 104.687" stroke="#1F1F1F" stroke-linecap="round" stroke-linejoin="round"/>
<path d="M172.088 149.545C174.381 146.226 176.446 142.761 178.271 139.173" stroke="#1F1F1F" stroke-linecap="round" stroke-linejoin="round"/>
<path d="M243.923 80.4105C248.915 79.2399 253.024 81.4514 252.684 83.3353C252.608 83.7129 252.45 84.0703 252.222 84.3837C251.993 84.6974 251.701 84.9598 251.363 85.1544" stroke="#1F1F1F" stroke-linecap="round" stroke-linejoin="round"/>
<path d="M243.459 77.4205C248.717 76.1851 253.941 78.7857 251.693 81.516" stroke="#1F1F1F" stroke-linecap="round" stroke-linejoin="round"/>
<path d="M236.151 95.5208C239.263 92.0305 243.254 89.4079 247.725 87.917" stroke="#1F1F1F" stroke-linecap="round" stroke-linejoin="round"/>
<path d="M243.724 83.919C248.585 82.9446 251.787 84.8285 251.594 86.6817C251.356 88.9564 246.732 92.4016 242.831 90.1918" stroke="#1F1F1F" stroke-linecap="round" stroke-linejoin="round"/>
<path d="M239.624 75.6974C239.69 75.6326 241.707 72.8716 240.815 71.9928C240.054 71.2453 229.076 80.1171 226.001 82.9446" stroke="#1F1F1F" stroke-linecap="round" stroke-linejoin="round"/>
<path d="M245.939 77.0952C254.669 72.9691 257.013 67.9915 255.363 68.9044C249.859 71.6125 244.206 74.0209 238.433 76.1192C233.964 77.7903 229.765 80.0893 225.968 82.9449" stroke="#1F1F1F" stroke-linecap="round" stroke-linejoin="round"/>
<path d="M212.774 245.008C211.995 252.709 211.906 260.463 212.51 268.179C213.352 275.652 213.766 282.249 212.642 282.965C208.573 285.561 203.24 267.379 197.035 261.191C195.528 259.765 194.316 258.065 193.465 256.188C192.04 252.835 193.767 250.101 193.628 244.688" stroke="#1F1F1F" stroke-linecap="round" stroke-linejoin="round"/>
<path d="M136.394 224.503C146.161 241.134 150.119 256.876 145.188 259.655C140.299 262.423 128.391 251.207 118.637 234.571C108.883 217.935 104.919 202.215 109.841 199.415C114.763 196.615 126.619 207.857 136.394 224.503Z" stroke="#1F1F1F" stroke-linecap="round" stroke-linejoin="round"/>
<path d="M86.2067 286.226C83.7342 271.102 68.8717 245.939 56.8046 236.852C50.5714 232.107 46.1074 232.946 46.6179 240.905C47.5867 256.007 64.6977 285.142 77.4697 293.692C84.5607 298.435 87.6096 294.811 86.2067 286.226Z" stroke="#1F1F1F" stroke-linecap="round" stroke-linejoin="round"/>
<path d="M84.7155 295.216L94.5324 289.634C95.4782 288.905 96.1211 287.863 96.3404 286.702C96.5597 285.542 96.3402 284.342 95.7235 283.329C99.6301 289.112 107.296 283.141 104.221 278.129C107.074 282.907 116.043 279.822 112.355 272.573C113.191 273.638 114.382 274.377 115.719 274.662C117.056 274.949 118.452 274.761 119.662 274.133C123.655 271.628 122.174 266.756 119.696 258.826C115.062 245.207 107.71 232.633 98.0709 221.839C95.7544 219.128 93.1023 216.71 90.1761 214.645C85.5489 211.824 80.3436 213.939 82.1337 221.613C80.6613 219.201 78.9337 217.625 76.015 218.394C75.2782 218.596 74.5988 218.962 74.0301 219.464C73.4613 219.968 73.0188 220.592 72.7371 221.292C72.4553 221.99 72.3421 222.744 72.4064 223.493C72.4704 224.242 72.7102 224.966 73.1068 225.609C73.1068 225.609 69.6811 221.353 65.7988 224.375C64.8347 225.114 64.1851 226.179 63.9771 227.361C63.7691 228.546 64.0174 229.762 64.6737 230.776C64.3612 230.233 63.9424 229.759 63.4416 229.377C62.9409 228.995 62.3683 228.715 61.7564 228.551C61.1447 228.387 60.5063 228.346 59.8778 228.426C59.2492 228.506 58.6434 228.71 58.0949 229.022L48.8545 234.247" stroke="#1F1F1F" stroke-linecap="round" stroke-linejoin="round"/>
<path d="M324.668 243.644C320.59 245.857 316.68 248.355 312.964 251.118C302.05 259.402 291.405 269.803 292.823 271.624C294.242 273.445 307.144 265.974 318.084 257.682C321.751 254.85 325.2 251.754 328.401 248.42" stroke="#1F1F1F" stroke-linecap="round" stroke-linejoin="round"/>
<path d="M324.668 243.643C327.049 235.552 334.985 238.021 339.35 233.146C340.144 240.589 335.977 248.063 328.438 248.42L324.668 243.643Z" stroke="#1F1F1F" stroke-linecap="round" stroke-linejoin="round"/>
<path d="M314.336 250.1L319.444 256.61" stroke="#1F1F1F" stroke-linecap="round" stroke-linejoin="round"/>
<path d="M332.44 87.9824L328.108 97.5196H336.043L331.678 107.059" stroke="#1F1F1F" stroke-linecap="round" stroke-linejoin="round"/>
<path d="M178.254 323.554L160.664 324.072" stroke="#1F1F1F" stroke-linecap="round" stroke-linejoin="round"/>
<path d="M169.723 332.458L169.194 315.169" stroke="#1F1F1F" stroke-linecap="round" stroke-linejoin="round"/>
<path d="M150.313 132.049C150.016 133.557 149.55 135.028 148.924 136.436C143.535 133.803 144.792 132.081 150.313 132.049Z" stroke="#1F1F1F" stroke-linecap="round" stroke-linejoin="round"/>
<path d="M179.247 140.823C179.087 141.412 178.238 141.796 176.802 141.987" stroke="#1F1F1F" stroke-linecap="round" stroke-linejoin="round"/>
<path d="M150.313 132.049C149.772 135.741 147.865 139.107 144.957 141.504C131.963 151.644 131.761 165.845 141.253 176.472" stroke="#1F1F1F" stroke-linecap="round" stroke-linejoin="round"/>
<path d="M48.2762 234.602L33.6255 242.765" stroke="#1F1F1F" stroke-linecap="round" stroke-linejoin="round"/>
<path d="M84.0434 295.572L70.8911 303.113" stroke="#1F1F1F" stroke-linecap="round" stroke-linejoin="round"/>
<path d="M64.5415 307.044L54.7871 312.634" stroke="#1F1F1F" stroke-linecap="round" stroke-linejoin="round"/>
<path d="M26.8142 246.958L16.8618 252.516" stroke="#1F1F1F" stroke-linecap="round" stroke-linejoin="round"/>
<path d="M57.697 269.868L25.6558 288.489" stroke="#1F1F1F" stroke-linecap="round" stroke-linejoin="round"/>
<path d="M19.2751 292.422L9.55371 297.978" stroke="#1F1F1F" stroke-linecap="round" stroke-linejoin="round"/>
<path d="M71.5856 152.685C68.2275 155.857 63.9875 157.98 59.4018 158.784C54.8163 159.588 50.091 159.037 45.8238 157.202C41.5565 155.367 37.9388 152.329 35.4282 148.473C32.9175 144.617 31.6268 140.116 31.719 135.539C31.8113 130.962 33.2825 126.515 35.9466 122.759C38.6106 119.004 42.3479 116.11 46.6858 114.442C51.0237 112.774 55.7674 112.408 60.317 113.39C64.8665 114.372 69.0176 116.658 72.2454 119.959C74.3904 122.149 76.0751 124.734 77.203 127.564C78.3308 130.395 78.8798 133.417 78.8187 136.456C78.7574 139.496 78.0871 142.493 76.8458 145.278C75.6047 148.063 73.8172 150.58 71.5856 152.685Z" stroke="#1F1F1F" stroke-linecap="round" stroke-linejoin="round"/>
<path d="M78.7926 137.371C86.1006 140.784 90.4257 144.026 89.8041 146.074C88.6912 149.771 72.2452 148.348 53.035 142.888C33.8249 137.427 19.1377 129.999 20.2333 126.296C20.8584 124.182 26.4162 123.728 34.6444 124.736" stroke="#1F1F1F" stroke-linecap="round" stroke-linejoin="round"/>
<path d="M142.552 161.522C143.511 167.436 146.893 172.859 151.447 174.262C165.669 178.634 190.298 189.243 190.298 189.243C190.605 205.979 192.147 224.395 190.498 243.644C198.384 246.906 207.235 247.103 215.264 244.195C216.653 226.03 217.544 208.611 217.214 192.524C217.139 188.521 216.196 184.581 214.446 180.965C212.694 177.351 210.178 174.144 207.064 171.564C194.213 161.123 179.886 152.574 164.532 146.185" stroke="#1F1F1F" stroke-linecap="round" stroke-linejoin="round"/>
<path d="M190.29 189.243L194.092 190.641L190.621 200.422" stroke="#1F1F1F" stroke-linecap="round" stroke-linejoin="round"/>
<path d="M191.184 230.807C199.223 233.518 207.878 233.935 216.148 232.01" stroke="#1F1F1F" stroke-linecap="round" stroke-linejoin="round"/>
<path d="M183.909 10.541V15.9692" stroke="#1F1F1F" stroke-linecap="round" stroke-linejoin="round"/>
<path d="M194.654 21.1025H189.131" stroke="#1F1F1F" stroke-linecap="round" stroke-linejoin="round"/>
<path d="M183.909 31.6645V26.2363" stroke="#1F1F1F" stroke-linecap="round" stroke-linejoin="round"/>
<path d="M173.163 21.1025H178.688" stroke="#1F1F1F" stroke-linecap="round" stroke-linejoin="round"/>
<path d="M189.131 21.1017C188.445 21.1034 187.765 20.972 187.131 20.7147C186.496 20.4573 185.919 20.0792 185.435 19.6023C184.949 19.1253 184.565 18.5588 184.303 17.9351C184.04 17.3116 183.907 16.6433 183.908 15.9688C183.91 16.6432 183.777 17.3113 183.514 17.9347C183.254 18.5583 182.868 19.1246 182.384 19.6017C181.898 20.0787 181.321 20.4567 180.688 20.7142C180.054 20.9715 179.373 21.1032 178.688 21.1017C179.373 21.1002 180.054 21.2319 180.688 21.4894C181.323 21.7469 181.9 22.125 182.384 22.6023C182.868 23.0794 183.254 23.6461 183.516 24.2698C183.777 24.8934 183.91 25.5618 183.908 26.2363C183.907 25.5616 184.04 24.8932 184.303 24.2693C184.563 23.6456 184.949 23.0788 185.433 22.6016C185.919 22.1245 186.496 21.7464 187.129 21.4889C187.765 21.2314 188.445 21.0998 189.131 21.1017Z" stroke="#1F1F1F" stroke-linecap="round" stroke-linejoin="round"/>
</svg>
